<?xml version="1.0" standalone="no"?>
<!DOCTYPE svg PUBLIC "-//W3C//DTD SVG 20010904//EN"
 "http://www.w3.org/TR/2001/REC-SVG-20010904/DTD/svg10.dtd">
<svg version="1.0" xmlns="http://www.w3.org/2000/svg"
 width="261.000000pt" height="261.000000pt" viewBox="0 0 261.000000 261.000000"
 preserveAspectRatio="xMidYMid meet">
<metadata>
Created by potrace 1.14, written by Peter Selinger 2001-2017
</metadata>
<g transform="translate(0.000000,261.000000) scale(0.100000,-0.100000)"
fill="#000000" stroke="none">
<path d="M1235 2533 c-11 -3 -48 -21 -82 -40 -58 -32 -65 -34 -99 -23 -20 7
-64 10 -97 8 -84 -5 -149 -39 -200 -105 -37 -47 -45 -52 -91 -58 -129 -18
-207 -83 -249 -210 -17 -49 -61 -105 -82 -105 -24 0 -104 -82 -129 -132 -22
-44 -26 -66 -26 -138 0 -91 -5 -105 -74 -215 -22 -36 -30 -62 -34 -114 -4 -60
-1 -75 29 -142 29 -65 33 -82 30 -144 -11 -227 -5 -250 93 -344 64 -61 80 -88
90 -150 16 -102 98 -196 197 -225 70 -21 87 -33 108 -74 26 -50 87 -107 141
-131 34 -16 66 -21 133 -21 92 0 136 -12 185 -51 45 -35 94 -50 163 -51 55 0
77 6 130 32 63 32 65 33 154 25 127 -11 161 -8 213 20 49 25 112 79 112 95 0
20 78 60 142 73 117 25 191 92 228 208 23 74 37 93 101 137 63 42 93 81 119
148 17 48 20 70 14 138 -6 78 -5 83 25 136 56 99 64 123 64 190 1 55 -5 75
-34 130 -33 65 -34 66 -34 200 0 161 -13 194 -101 264 -67 52 -88 85 -104 159
-23 111 -97 185 -217 218 -56 15 -75 26 -106 61 -124 141 -158 161 -269 157
-146 -4 -152 -3 -222 36 -56 31 -79 38 -134 41 -37 1 -76 0 -87 -3z m181 -135
l79 -43 125 0 c144 0 149 -2 220 -93 50 -64 96 -94 188 -121 86 -26 118 -60
139 -152 20 -86 60 -146 135 -202 59 -44 63 -57 63 -207 l0 -135 38 -75 c46
-90 44 -124 -8 -209 -48 -77 -56 -110 -53 -221 3 -109 -11 -146 -72 -182 -80
-48 -126 -108 -156 -202 -25 -80 -71 -120 -154 -134 -78 -14 -135 -47 -193
-112 -25 -28 -58 -57 -74 -65 -34 -18 -94 -19 -162 -3 -61 14 -139 -1 -204
-38 -66 -38 -129 -33 -203 15 -80 52 -120 63 -229 65 -109 1 -130 12 -182 92
-47 72 -86 102 -153 121 -41 11 -71 27 -95 51 -37 38 -38 39 -55 124 -13 68
-56 136 -109 172 -43 30 -75 90 -74 139 0 18 5 68 10 112 6 45 7 84 2 90 -5 5
-9 17 -9 26 0 9 -14 47 -31 83 -39 84 -35 127 21 210 49 72 62 117 64 227 1
77 4 89 29 122 16 21 45 46 66 56 58 30 118 102 136 164 9 30 23 64 33 75 27
31 85 62 117 62 60 1 107 27 162 89 69 77 98 87 201 71 84 -14 92 -12 192 45
64 36 103 33 196 -17z"/>
<path d="M1241 1849 c-34 -28 -61 -54 -61 -57 0 -4 -13 -21 -29 -37 -39 -42
-97 -168 -111 -243 -30 -152 12 -323 111 -455 46 -60 138 -147 157 -147 9 0
55 39 117 100 90 87 165 264 165 389 0 109 -41 236 -108 333 -38 55 -154 168
-173 168 -4 0 -35 -23 -68 -51z"/>
<path d="M648 1623 c-66 -6 -71 -19 -66 -162 3 -93 9 -131 31 -190 78 -220
274 -364 512 -378 l90 -5 -32 27 c-48 39 -118 133 -157 211 -58 118 -80 273
-56 394 11 56 4 62 -88 84 -77 17 -166 25 -234 19z"/>
<path d="M1810 1620 c-30 -5 -81 -16 -113 -26 l-58 -17 8 -61 c29 -222 -25
-397 -171 -553 l-71 -76 85 6 c276 19 481 198 536 468 17 84 15 232 -3 249
-13 12 -153 18 -213 10z"/>
<path d="M476 1235 c-48 -26 -156 -102 -156 -111 0 -15 59 -117 95 -165 171
-222 474 -293 719 -167 l49 25 -76 7 c-132 12 -251 58 -356 139 -66 51 -162
177 -187 246 -10 28 -23 51 -29 51 -7 0 -33 -11 -59 -25z"/>
<path d="M2037 1180 c-27 -58 -57 -101 -106 -153 -111 -116 -233 -177 -406
-201 l-90 -13 55 -26 c228 -108 489 -61 658 117 64 67 142 188 142 218 -1 22
-171 137 -205 138 -5 0 -27 -36 -48 -80z"/>
</g>
</svg>
