<?xml version="1.0" encoding="utf-8"?>
<!-- Generator: Adobe Illustrator 16.0.3, SVG Export Plug-In . SVG Version: 6.00 Build 0)  -->
<!DOCTYPE svg PUBLIC "-//W3C//DTD SVG 1.1//EN" "http://www.w3.org/Graphics/SVG/1.1/DTD/svg11.dtd">
<svg version="1.1" id="Capa_1" xmlns="http://www.w3.org/2000/svg" xmlns:xlink="http://www.w3.org/1999/xlink" x="0px" y="0px"
	 width="837.865px" height="658.418px" viewBox="0 0 837.865 658.418" enable-background="new 0 0 837.865 658.418"
	 xml:space="preserve">
<path fill="#2F2E41" d="M253.615,253.877c-4.484-5.81-10.82-11.186-11.222-18.354c-0.368-6.575,4.535-13.104,2.467-19.394
	c-1.59-4.837-6.835-7.755-11.96-9.301c-9.813-2.917-20.313-2.512-29.873,1.15l0.519-0.366c-5.834-2.079-12.655,0.067-17.245,4.041
	c-4.591,3.974-7.319,9.482-9.436,15.002c-2.117,5.52-3.757,11.242-6.699,16.417c-2.942,5.175-7.445,9.881-13.387,11.669
	c1.989,3.968,8.208,5.329,11.854,2.595c0.932-0.757,1.77-1.623,2.495-2.579c2.433-2.958,4.865-5.916,7.297-8.874
	c2.503,4.452-1.236,10.596,1.841,14.717c1.586,2.125,4.483,2.932,7.174,3.511c21.032,4.487,42.85,3.678,63.492-2.355
	c1.659-0.489,3.489-1.162,4.178-2.664C255.905,257.359,254.793,255.404,253.615,253.877z"/>
<path fill="#FFB7B7" d="M313.25,276.549c-0.132,0.577-0.217,1.164-0.256,1.755l-45.97,26.52l-11.173-6.433l-11.912,15.594
	l18.674,13.31c3.099,2.208,7.284,2.107,10.271-0.25l47.403-37.396c5.817,2.154,12.28-0.817,14.434-6.635
	c2.153-5.818-0.816-12.28-6.635-14.434s-12.28,0.817-14.435,6.635C313.49,275.651,313.355,276.097,313.25,276.549L313.25,276.549z"
	/>
<path fill="#73D629" d="M265.487,306.08l-14.857,19.256c-1.625,2.105-4.649,2.496-6.754,0.871c-0.187-0.144-0.363-0.302-0.527-0.472
	l-16.819-17.466c-5.822-4.544-6.859-12.949-2.314-18.771c4.528-5.801,12.891-6.854,18.716-2.357l21.095,11.795
	c2.321,1.299,3.15,4.233,1.851,6.554C265.762,305.696,265.631,305.894,265.487,306.08L265.487,306.08z"/>
<polygon fill="#FFB7B7" points="245.04,641.589 258.159,641.588 264.4,590.984 245.037,590.985 "/>
<path fill="#2F2E41" d="M241.693,637.306l25.837-0.001h0.001c9.093,0,16.465,7.372,16.465,16.465v0.535l-42.303,0.002
	L241.693,637.306z"/>
<polygon fill="#FFB7B7" points="155.149,641.589 168.269,641.588 174.51,590.984 155.147,590.985 "/>
<path fill="#2F2E41" d="M151.803,637.306l25.837-0.001h0.001c9.094,0,16.465,7.372,16.466,16.465v0.535l-42.303,0.002
	L151.803,637.306z"/>
<circle fill="#FFB7B7" cx="214.623" cy="244.249" r="22.673"/>
<path fill="#2F2E41" d="M227.889,278.239l13.358,6.617c0,0,14.924,25.937,6.363,50.55c-4.156,11.949,7.548,50.042,7.548,50.042
	s18.135,172.543,18.192,225.796c-22.53,3.464-43.932,7.744-45.002-2.957s-12.784-137.229-12.784-137.229
	s-16.109,140.44-28.951,142.58c-12.841,2.141-38.524-1.07-38.524-1.07s20.39-205.717,34.301-218.558l2.14-10.701l-0.057-96.058
	l16.028-7.649L227.889,278.239z"/>
<path fill="#FFB7B7" d="M180.105,424.065c5.584-3.021,7.661-9.998,4.64-15.582c-0.322-0.595-0.696-1.161-1.118-1.69l15.535-103.547
	l-20.295-0.974l-12.11,103.118c-4.719,4.299-5.061,11.608-0.763,16.328C169.59,425.667,175.424,426.638,180.105,424.065
	L180.105,424.065z"/>
<path fill="#73D629" d="M198.721,329.191l-24.273-1.533c-2.654-0.167-4.67-2.455-4.502-5.109c0.015-0.235,0.047-0.47,0.096-0.701
	l5.058-23.714c0.505-7.369,6.889-12.933,14.257-12.428c7.343,0.503,12.899,6.846,12.432,14.191l2.034,24.083
	c0.223,2.65-1.745,4.979-4.395,5.203C199.193,329.203,198.957,329.206,198.721,329.191z"/>
<path fill="#2F2E41" d="M238.386,229.51c-0.883-4.008-3.753-7.329-7.059-9.761c-11.246-8.273-26.798-7.327-36.959,2.248
	c-2.751,2.43-4.735,5.609-5.708,9.148c-0.942,3.592-0.047,7.417,2.392,10.218l0.453,0.284c-0.411-1.742,0.942-3.483,2.559-4.251
	c1.682-0.617,3.437-1.011,5.221-1.17c5.461-1.032,10.207-4.381,13.009-9.18c2.076,5.906,6.605,10.626,12.421,12.945
	c2.997,1.172,11.228,2.783,14.081,1.295C242.435,239.388,239.27,233.518,238.386,229.51z"/>
<path id="a7292837-b693-4341-9d08-f79d69c00516-1424" fill="#E6E6E6" d="M71.554,610.33c7.979,2.805,16.842,1.243,23.383-4.119
	c8.189-6.874,10.758-18.196,12.847-28.682l6.18-31.017l-12.938,8.908c-9.305,6.406-18.818,13.019-25.26,22.298
	c-6.442,9.279-9.252,21.947-4.078,31.988"/>
<path id="bbe87a9d-22ff-4c97-8b47-e161a95b9ece-1425" fill="#F2F2F2" d="M73.552,650.04c-1.628-11.863-3.304-23.881-2.159-35.871
	c1.015-10.649,4.264-21.049,10.878-29.579c3.511-4.519,7.783-8.391,12.625-11.44c1.262-0.797,2.424,1.203,1.167,1.997
	c-8.377,5.294-14.857,13.111-18.505,22.325c-4.028,10.246-4.675,21.416-3.981,32.3c0.419,6.583,1.311,13.122,2.206,19.653
	c0.146,0.612-0.207,1.234-0.808,1.422C74.36,651.013,73.726,650.652,73.552,650.04L73.552,650.04z"/>
<path id="ed3d176e-02dd-4f6a-96fc-dfdec80464da-1426" fill="#E6E6E6" d="M85.273,631.004c3.421,5.202,9.309,8.242,15.531,8.019
	c7.865-0.373,14.418-5.859,20.317-11.07l17.452-15.408l-11.55-0.554c-8.306-0.397-16.827-0.771-24.738,1.794
	c-7.912,2.564-15.208,8.727-16.654,16.915"/>
<path id="ae799342-61c9-47cf-bc03-dd36b89c58fd-1427" fill="#F2F2F2" d="M68.949,656.86c7.84-13.872,16.933-29.288,33.181-34.216
	c4.517-1.365,9.254-1.854,13.955-1.441c1.482,0.129,1.112,2.412-0.367,2.285c-7.88-0.654-15.746,1.427-22.272,5.892
	c-6.28,4.275-11.169,10.218-15.308,16.52c-2.535,3.86-4.806,7.885-7.077,11.903C70.337,659.087,68.215,658.159,68.949,656.86z"/>
<path fill="#CCCCCC" d="M598.711,400.413c-14.711-19.688-41.637-24.438-55.016-14.44c-13.38,9.998-16.453,37.165-1.742,56.853
	c13.617,18.223,38.288,23.192,51.876,16.365c-0.044,0.214-0.046,0.433-0.008,0.647l0.767,3.787c0.188,0.936,1.101,1.541,2.036,1.352
	c0.263-0.054,0.51-0.167,0.722-0.332l6.487-5.068c0.752-0.588,0.886-1.674,0.298-2.426c-0.165-0.212-0.377-0.382-0.619-0.497
	l-3.49-1.659c-0.123-0.056-0.252-0.096-0.384-0.121C610.111,443.8,612.357,418.675,598.711,400.413z"/>
<path fill="#FFFFFF" d="M566.531,392.979c14.945,2.374,25.412,16.037,23.813,31.085c-0.158,1.659,2.436,1.648,2.593,0
	c1.538-16.199-9.676-30.845-25.716-33.584C565.589,390.203,564.888,392.7,566.531,392.979z"/>
<path fill="#CCCCCC" d="M622.689,60.105c12.862-20.942,7.333-47.718-6.9-56.459c-14.232-8.741-40.614-1.563-53.476,19.379
	c-11.905,19.385-7.412,44.147,3.951,54.253c-0.214,0.038-0.419,0.117-0.604,0.232l-3.237,2.11c-0.799,0.521-1.024,1.592-0.503,2.392
	c0.146,0.225,0.343,0.412,0.574,0.548l7.106,4.157c0.824,0.482,1.883,0.205,2.364-0.619c0.136-0.231,0.215-0.491,0.232-0.759
	l0.254-3.855c0.006-0.135-0.004-0.27-0.03-0.401C586.581,86.725,610.759,79.532,622.689,60.105z"/>
<path fill="#FFFFFF" d="M617.712,27.456c3.313,14.765-5.518,29.538-20.092,33.609c-1.601,0.466-0.633,2.872,0.958,2.409
	c15.622-4.553,25.09-20.383,21.711-36.301C619.944,25.554,617.364,25.825,617.712,27.456z"/>
<path fill="#73D629" d="M394.757,159.471c-1.075-24.553-20.653-43.638-37.341-42.907c-16.687,0.731-34.521,21.455-33.445,46.007
	c0.996,22.727,18.588,40.723,33.662,42.73c-0.156,0.151-0.282,0.332-0.371,0.53l-1.499,3.562c-0.37,0.879,0.043,1.893,0.923,2.263
	c0.247,0.104,0.515,0.149,0.783,0.132l8.215-0.537c0.952-0.062,1.674-0.884,1.611-1.837c-0.018-0.268-0.097-0.527-0.232-0.759
	l-1.949-3.336c-0.07-0.114-0.154-0.221-0.25-0.315C379.754,201.748,395.754,182.248,394.757,159.471z"/>
<path fill="#FFFFFF" d="M372.346,135.212c11.016,10.375,11.974,27.56,2.181,39.096c-1.064,1.283,1.085,2.734,2.143,1.459
	c10.392-12.522,9.368-30.939-2.347-42.233C373.13,132.387,371.145,134.056,372.346,135.212z"/>
<path fill="#CCCCCC" d="M471.268,322.354c-13.048-0.822-24.91-7.849-31.9-18.896c-0.966-1.544-2.227-3.24-1.558-5.141
	c0.479-1.5,1.932-2.471,3.502-2.339c1.971,0.24,3.243,2.168,3.485,4.016c0.275,2.096-1.203,3.741-3.028,4.52
	c-4.461,1.903-8.962-1.038-12.596-3.385c-8.279-5.348-17.387-10.185-27.419-10.794c-9.283-0.563-19.237,3.076-24.4,11.126
	c-0.903,1.408,1.34,2.709,2.238,1.308c5.121-7.983,15.473-10.851,24.473-9.617c5.364,0.847,10.543,2.605,15.313,5.199
	c2.474,1.284,4.873,2.707,7.224,4.203c2.237,1.561,4.608,2.92,7.086,4.062c4.132,1.697,9.602,1.565,12.487-2.343
	c2.692-3.646,0.611-9.714-3.892-10.739c-3.297-0.65-6.497,1.496-7.147,4.793c-0.159,0.808-0.152,1.64,0.02,2.446
	c0.449,2.147,2.065,4.248,3.316,6.002c7.615,10.712,19.676,17.394,32.796,18.17C472.935,325.028,472.931,322.436,471.268,322.354
	L471.268,322.354z"/>
<path fill="#2F2E41" d="M720.217,143.756c7.098-3.302,15.811-4.384,23.032-1.316c7.222,3.068,12.145,10.932,9.81,17.891
	c-1.059,3.155-3.47,6.258-2.53,9.445c0.723,2.453,3.245,4.072,5.722,5.224c2.478,1.152,5.188,2.12,6.979,4.062
	c1.792,1.942,2.165,5.286-0.072,6.792c-0.737,0.497-1.659,0.731-2.374,1.254c-1.249,1.015-1.717,2.71-1.164,4.222
	c0.596,1.484,1.58,2.78,2.851,3.75c2.541,2.191,5.898,4.699,5.109,7.809c-0.594,1.687-1.975,2.978-3.697,3.458
	c-1.763,0.509-3.592,0.75-5.427,0.717l-74.966,2.361c-2.475,0.186-4.963,0.047-7.402-0.414c-2.396-0.437-4.502-1.852-5.813-3.905
	c-1.436-2.657-0.493-5.931,1.279-8.412c1.773-2.481,4.282-4.438,6.355-6.717s3.77-5.123,3.404-8.067
	c-0.293-2.357-1.848-4.395-2.963-6.537c-1.116-2.142-1.765-4.819-0.319-6.789c2.037-2.777,6.927-2.525,9.243-5.113
	c1.748-1.953,1.41-4.764,1.584-7.281c0.418-6.057,4.611-11.777,10.58-14.433c6.157-2.644,13.211-2.163,18.953,1.291L720.217,143.756
	z"/>
<polygon fill="#9E616A" points="811.513,443.477 811.513,455.737 764.225,461.57 764.226,443.475 "/>
<path fill="#2F2E41" d="M823.397,440.351l-0.002,39.531h-0.5c-8.497-0.001-15.386-6.89-15.386-15.387v-0.001l0.001-24.144H823.397z"
	/>
<polygon fill="#9E616A" points="753.056,464.332 750.046,476.216 702.773,470.262 707.216,452.722 "/>
<path fill="#2F2E41" d="M765.344,464.218l-9.705,38.321l-0.484-0.123c-8.237-2.086-13.225-10.455-11.139-18.692v-0.001l5.928-23.405
	L765.344,464.218z"/>
<path fill="#2F2E41" d="M740.982,326.846l2.554,2.66c0,0,16.661,13.064,4.334,47.48l-20.164,58.09l67.588,2.636l-1.448,26.544
	c0,0-98.018,5.452-97.16-10.701s4.475-75.965,4.475-75.965l-20.364-16.354l4.91-27.66L740.982,326.846z"/>
<path fill="#2F2E41" d="M688.626,353.208l-7.83,8.028l-26.253,72.165c0,0-4,18,5,22s66.91,26.375,66.91,26.375l5.913-21.282
	l-44.62-26.782l20.797-27.311l3.13-43.046L688.626,353.208z"/>
<path fill="#E4E4E4" d="M689.043,225.901l66.636-13.324l1.448,36.559l-17.261,36.79l3.67,43.58l-59.721,10.434l1.87-57.303
	c0,0-16.037-22.625-6.59-45.43L689.043,225.901z"/>
<path fill="#9E616A" d="M837.63,139.175c1.261,5.797-2.416,11.52-8.213,12.781c-0.618,0.135-1.247,0.214-1.879,0.238l-63.9,74.097
	l-14.856-18.03l67.483-67.166c0.17-5.962,5.141-10.659,11.104-10.489C832.357,130.749,836.6,134.292,837.63,139.175L837.63,139.175z
	"/>
<path fill="#E4E4E4" d="M777.551,218.207c0.03,1.4-0.551,2.744-1.592,3.681l-17.968,16.175c-4.707,5.695-13.14,6.495-18.834,1.788
	c-5.669-4.686-6.492-13.07-1.841-18.769l12.542-20.759c1.375-2.277,4.337-3.007,6.613-1.632c0.202,0.122,0.396,0.259,0.577,0.41
	l18.754,15.496C776.884,215.488,777.521,216.806,777.551,218.207z"/>
<path fill="#9E616A" d="M584.559,313.309c-0.378-5.921,4.116-11.027,10.037-11.404c0.632-0.04,1.266-0.024,1.894,0.047l74.295-63.67
	l11.982,20.055l-76.797,56.28c-1.063,5.87-6.683,9.767-12.552,8.705C588.506,322.431,584.844,318.292,584.559,313.309
	L584.559,313.309z"/>
<path fill="#E4E4E4" d="M655.815,244.188c0.181-1.389,0.957-2.631,2.127-3.401l20.191-13.295c5.505-4.927,13.962-4.458,18.889,1.047
	c4.909,5.485,4.464,13.907-0.996,18.844l-15.515,18.643c-1.702,2.045-4.739,2.323-6.784,0.621c-0.182-0.151-0.352-0.315-0.509-0.491
	l-16.217-18.134C656.067,246.976,655.635,245.576,655.815,244.188z"/>
<circle fill="#9E616A" cx="717.443" cy="184.282" r="24.561"/>
<path fill="#2F2E41" d="M742.57,180.79c-7.757-0.623-14.196-8.372-13.39-16.111c0.188,6.604-4.604,12.3-11.142,13.246
	c-3.558,0.392-7.458-0.685-10.555,1.11c-3.431,1.988-4.528,6.816-8.102,8.533c-3.452,1.659-7.838-0.604-9.543-4.034
	c-1.706-3.43-1.287-7.55-0.157-11.21c5.159-16.703,22.882-26.061,39.584-20.901c4.952,1.529,9.452,4.251,13.105,7.926
	c3.262,3.28,5.852,7.461,6.271,12.068c0.42,4.606-1.717,9.605-5.854,11.675L742.57,180.79z"/>
<path fill="#CACACA" d="M382,655.901H1c-0.552,0-1-0.448-1-1c0-0.553,0.448-1,1-1h381c0.553,0,1,0.447,1,1
	C383,655.453,382.553,655.901,382,655.901z"/>
</svg>
