<?xml version="1.0" encoding="utf-8"?>
<!-- Generator: Adobe Illustrator 16.0.3, SVG Export Plug-In . SVG Version: 6.00 Build 0)  -->
<!DOCTYPE svg PUBLIC "-//W3C//DTD SVG 1.1//EN" "http://www.w3.org/Graphics/SVG/1.1/DTD/svg11.dtd">
<svg version="1.1" id="Capa_1" xmlns="http://www.w3.org/2000/svg" xmlns:xlink="http://www.w3.org/1999/xlink" x="0px" y="0px"
	 width="883.791px" height="477.549px" viewBox="0 0 883.791 477.549" enable-background="new 0 0 883.791 477.549"
	 xml:space="preserve">
<path fill="#F2F2F2" d="M127.542,414.184h624v-37.616c0-7.856-9.467-15.59-25.975-21.217l-0.169-0.059
	c-11.146-3.933-82.392-31.914-120.929-31.068c-20.357,0.445-37.786,3.896-51.801,10.256
	c-43.625,19.804-100.93,27.119-131.206,21.372c-26.683-5.065-99.932-13.444-126.996-13.065
	c-37.905,0.521-38.016,6.854-76.924,27.291c-14.861,7.801-20.418,8.779-90,15V414.184z"/>
<path fill="#F2F2F2" d="M26.943,358.894c-1.359-20.182,7.208-40.568,24.961-48.06c-3.589,20.793,0.833,43.897,12.234,63.929
	c4.44,7.802,10.143,16.131,8.929,24.283c-0.755,5.072-4.206,9.099-8.422,11.721c-4.217,2.623-9.186,4.022-14.093,5.396l-0.848,0.891
	C38.04,398.987,28.302,379.074,26.943,358.894z"/>
<path fill="#FFFFFF" d="M52.165,311.204c-8.804,13.555-12.715,29.709-11.087,45.789c0.27,3.673,1.092,7.284,2.44,10.711
	c1.474,3.434,3.735,6.473,6.601,8.871c2.652,2.311,5.595,4.404,7.719,7.238c2.118,2.796,3.007,6.332,2.463,9.797
	c-0.619,4.063-2.722,7.455-4.906,10.686c-2.425,3.586-5.008,7.265-5.448,11.879c-0.053,0.559-0.947,0.321-0.894-0.237
	c0.765-8.026,7.535-12.908,9.811-20.218c1.253-3.578,0.801-7.533-1.227-10.736c-1.979-2.999-5.012-5.16-7.715-7.479
	c-2.83-2.313-5.132-5.203-6.75-8.479c-1.512-3.369-2.471-6.961-2.838-10.636c-0.918-7.925-0.542-15.945,1.113-23.75
	c1.771-8.588,5.166-16.76,10.004-24.074C51.749,310.12,52.46,310.761,52.165,311.204L52.165,311.204z"/>
<path fill="#FFFFFF" d="M40.285,351.591c-5.986-1.172-10.571-6.01-11.422-12.05c-0.064-0.573,0.829-0.575,0.893-0.001
	c0.783,5.627,5.065,10.129,10.646,11.191c0.238,0.027,0.408,0.243,0.38,0.48c-0.028,0.238-0.244,0.408-0.481,0.381
	C40.294,351.592,40.29,351.591,40.285,351.591L40.285,351.591z"/>
<path fill="#FFFFFF" d="M48.642,375.56c4.408-3.284,7.201-8.297,7.674-13.773c0.056-0.559,0.949-0.32,0.894,0.237
	c-0.504,5.696-3.423,10.905-8.018,14.312C48.758,376.653,48.21,375.876,48.642,375.56z"/>
<path fill="#FFFFFF" d="M44.259,326.713c2.071,0.89,4.455,0.645,6.301-0.648c0.429-0.323,0.977,0.454,0.55,0.775
	c-2.044,1.418-4.672,1.694-6.967,0.733c-0.241-0.07-0.402-0.298-0.389-0.549c0.031-0.212,0.228-0.358,0.44-0.327
	C44.217,326.7,44.238,326.706,44.259,326.713L44.259,326.713z"/>
<path fill="#F2F2F2" d="M116.674,343.716c-0.261,0.21-0.522,0.421-0.783,0.639c-3.49,2.848-6.706,6.014-9.606,9.46
	c-0.229,0.262-0.457,0.532-0.677,0.801c-6.939,8.492-12.018,18.347-14.909,28.925c-1.186,4.314-2.018,8.718-2.488,13.167
	c-0.661,6.204-0.866,13.054-3.532,18.237c-0.27,0.542-0.579,1.065-0.922,1.564l-32.733,1.661c-0.082-0.033-0.162-0.06-0.244-0.094
	l-1.295,0.127c0.008-0.236,0.021-0.479,0.029-0.715c0.004-0.137,0.015-0.274,0.019-0.411c0.005-0.092,0.01-0.183,0.01-0.267
	c0.001-0.03,0.003-0.061,0.006-0.084c-0.001-0.083,0.007-0.159,0.008-0.235c0.071-1.362,0.149-2.725,0.243-4.088
	c-0.001-0.008-0.001-0.008,0.004-0.016c0.563-10.252,2.424-20.391,5.539-30.173c0.097-0.286,0.191-0.579,0.302-0.865
	c1.453-4.239,3.292-8.337,5.493-12.241c1.203-2.113,2.527-4.154,3.965-6.114c3.725-5.048,8.333-9.382,13.6-12.79
	c10.866-7.237,24.235-9.676,36.957-6.741C116,343.544,116.333,343.626,116.674,343.716z"/>
<path fill="#FFFFFF" d="M116.681,344.138c-15.343,3.856-28.797,13.084-37.921,26.008c-2.003,2.752-3.501,5.837-4.425,9.113
	c-0.805,3.405-0.674,6.965,0.38,10.303c0.924,3.244,2.236,6.51,2.371,9.811c0.149,3.277-1.279,6.428-3.842,8.475
	c-3.043,2.526-6.984,3.683-10.898,4.673c-4.345,1.101-8.886,2.172-12.109,5.2c-0.391,0.367-1.034-0.341-0.644-0.707
	c5.607-5.268,14.585-4.678,21.085-8.526c3.033-1.795,5.404-4.592,5.512-8.4c0.094-3.331-1.257-6.698-2.22-9.979
	c-1.073-3.26-1.331-6.731-0.753-10.113c0.74-3.328,2.106-6.483,4.027-9.299c4.167-6.322,9.443-11.838,15.573-16.279
	c7.096-5.186,15.114-8.974,23.625-11.162C116.979,343.112,117.213,343.999,116.681,344.138L116.681,344.138z"/>
<path fill="#FFFFFF" d="M81.377,365.813c-4.548-4.302-5.687-10.926-2.686-15.474c0.296-0.447,1.085,0.088,0.789,0.537
	c-2.812,4.26-1.725,10.371,2.527,14.393C82.456,365.691,81.822,366.233,81.377,365.813z"/>
<path fill="#FFFFFF" d="M74.034,387.948c5.579,0.422,11.087-1.462,15.239-5.213c0.392-0.365,1.036,0.342,0.644,0.707
	c-4.33,3.895-10.067,5.842-15.874,5.39C73.464,388.798,73.458,387.913,74.034,387.948z"/>
<path fill="#FFFFFF" d="M100.171,350.448c1.393,1.942,3.579,3.162,5.963,3.329c0.578,0.027,0.584,0.912,0.01,0.885
	c-2.633-0.195-5.047-1.536-6.604-3.669c-0.17-0.174-0.173-0.449-0.006-0.626C99.734,350.222,100.013,350.257,100.171,350.448z"/>
<path fill="#F2F2F2" d="M846.461,358.894c1.359-20.182-7.209-40.568-24.961-48.06c3.589,20.793-0.833,43.897-12.234,63.929
	c-4.44,7.802-10.143,16.131-8.93,24.283c0.756,5.072,4.206,9.099,8.423,11.721c4.216,2.623,9.185,4.022,14.093,5.396l0.848,0.891
	C835.363,398.987,845.103,379.074,846.461,358.894z"/>
<path fill="#FFFFFF" d="M821.238,311.204c8.805,13.555,12.716,29.709,11.088,45.789c-0.27,3.673-1.093,7.284-2.44,10.711
	c-1.475,3.434-3.735,6.473-6.602,8.871c-2.651,2.311-5.595,4.404-7.719,7.238c-2.117,2.796-3.007,6.332-2.464,9.797
	c0.619,4.063,2.723,7.455,4.907,10.686c2.425,3.586,5.008,7.265,5.447,11.879c0.054,0.559,0.947,0.321,0.894-0.237
	c-0.766-8.026-7.535-12.908-9.811-20.218c-1.253-3.578-0.801-7.533,1.228-10.736c1.979-2.999,5.012-5.16,7.715-7.479
	c2.83-2.313,5.132-5.203,6.75-8.479c1.513-3.369,2.471-6.961,2.838-10.636c0.918-7.925,0.542-15.945-1.113-23.75
	c-1.771-8.588-5.166-16.76-10.004-24.074C821.655,310.12,820.944,310.761,821.238,311.204L821.238,311.204z"/>
<path fill="#FFFFFF" d="M833.119,351.591c5.985-1.172,10.571-6.01,11.422-12.05c0.064-0.573-0.828-0.575-0.893-0.001
	c-0.783,5.627-5.065,10.129-10.646,11.191c-0.238,0.027-0.408,0.243-0.38,0.48c0.028,0.238,0.244,0.408,0.481,0.381
	C833.109,351.592,833.114,351.591,833.119,351.591z"/>
<path fill="#FFFFFF" d="M824.762,375.56c-4.407-3.284-7.2-8.297-7.674-13.773c-0.056-0.559-0.949-0.32-0.895,0.237
	c0.505,5.696,3.423,10.905,8.019,14.312C824.646,376.653,825.194,375.876,824.762,375.56L824.762,375.56z"/>
<path fill="#FFFFFF" d="M829.145,326.713c-2.071,0.89-4.455,0.645-6.301-0.648c-0.43-0.323-0.978,0.454-0.551,0.775
	c2.045,1.418,4.672,1.694,6.967,0.733c0.241-0.07,0.402-0.298,0.39-0.549c-0.031-0.212-0.229-0.358-0.44-0.327
	C829.188,326.7,829.165,326.706,829.145,326.713L829.145,326.713z"/>
<path fill="#F2F2F2" d="M756.729,343.716c0.262,0.21,0.522,0.421,0.783,0.639c3.489,2.848,6.706,6.014,9.606,9.459
	c0.229,0.263,0.456,0.532,0.676,0.802c6.939,8.492,12.019,18.347,14.91,28.925c1.186,4.314,2.018,8.718,2.488,13.167
	c0.66,6.204,0.865,13.054,3.531,18.237c0.271,0.542,0.578,1.065,0.922,1.564l32.733,1.661c0.081-0.033,0.162-0.06,0.244-0.094
	l1.295,0.127c-0.008-0.236-0.021-0.479-0.029-0.715c-0.004-0.138-0.015-0.274-0.02-0.411c-0.005-0.092-0.01-0.183-0.009-0.267
	c-0.002-0.03-0.004-0.061-0.007-0.084c0.001-0.083-0.007-0.159-0.008-0.235c-0.071-1.362-0.149-2.725-0.243-4.089
	c0.001-0.007,0.001-0.007-0.005-0.015c-0.563-10.252-2.424-20.391-5.539-30.173c-0.096-0.286-0.19-0.579-0.302-0.865
	c-1.453-4.239-3.292-8.337-5.493-12.241c-1.203-2.113-2.526-4.154-3.966-6.115c-3.725-5.047-8.332-9.381-13.6-12.789
	c-10.866-7.237-24.234-9.676-36.956-6.741C757.403,343.544,757.07,343.626,756.729,343.716z"/>
<path fill="#FFFFFF" d="M756.723,344.138c15.344,3.856,28.797,13.084,37.922,26.008c2.004,2.752,3.502,5.837,4.426,9.113
	c0.805,3.405,0.674,6.965-0.381,10.303c-0.923,3.244-2.236,6.51-2.37,9.811c-0.149,3.277,1.279,6.428,3.842,8.475
	c3.043,2.526,6.984,3.683,10.898,4.673c4.345,1.101,8.886,2.172,12.108,5.2c0.391,0.367,1.034-0.341,0.645-0.707
	c-5.607-5.268-14.585-4.678-21.086-8.526c-3.033-1.795-5.404-4.592-5.512-8.4c-0.095-3.331,1.257-6.698,2.219-9.979
	c1.073-3.26,1.332-6.731,0.754-10.113c-0.74-3.328-2.107-6.483-4.028-9.299c-4.166-6.322-9.442-11.838-15.573-16.279
	c-7.096-5.186-15.113-8.974-23.625-11.162C756.425,343.112,756.19,343.999,756.723,344.138L756.723,344.138z"/>
<path fill="#FFFFFF" d="M792.026,365.813c4.549-4.302,5.687-10.926,2.686-15.474c-0.296-0.447-1.085,0.088-0.789,0.537
	c2.813,4.26,1.725,10.371-2.527,14.393C790.948,365.691,791.581,366.233,792.026,365.813z"/>
<path fill="#FFFFFF" d="M799.37,387.948c-5.579,0.422-11.087-1.462-15.239-5.213c-0.392-0.365-1.035,0.342-0.644,0.707
	c4.33,3.895,10.067,5.842,15.873,5.39C799.939,388.798,799.946,387.913,799.37,387.948z"/>
<path fill="#FFFFFF" d="M773.233,350.448c-1.394,1.942-3.579,3.162-5.964,3.329c-0.578,0.027-0.584,0.912-0.009,0.885
	c2.633-0.195,5.047-1.536,6.603-3.669c0.171-0.174,0.174-0.449,0.007-0.626C773.67,350.222,773.391,350.257,773.233,350.448
	L773.233,350.448z"/>
<rect x="49.963" y="258.983" fill="#E6E6E6" width="6" height="2"/>
<path fill="#E6E6E6" d="M811.098,260.983h-12.18v-2h12.18V260.983z M786.738,260.983h-12.18v-2h12.18V260.983z M762.379,260.983
	H750.2v-2h12.179V260.983z M738.021,260.983h-12.18v-2h12.18V260.983z M713.661,260.983h-12.18v-2h12.18V260.983z M689.302,260.983
	h-12.18v-2h12.18V260.983z M664.942,260.983h-12.179v-2h12.179V260.983z M640.584,260.983h-12.18v-2h12.18V260.983z
	 M616.225,260.983h-12.18v-2h12.18V260.983z M591.865,260.983h-12.18v-2h12.18V260.983z M567.506,260.983h-12.18v-2h12.18V260.983z
	 M543.147,260.983h-12.18v-2h12.18V260.983z M518.788,260.983h-12.18v-2h12.18V260.983z M494.429,260.983h-12.18v-2h12.18V260.983z
	 M470.069,260.983h-12.18v-2h12.18V260.983z M445.71,260.983h-12.18v-2h12.18V260.983z M421.352,260.983h-12.18v-2h12.18V260.983z
	 M396.992,260.983h-12.18v-2h12.18V260.983z M372.633,260.983h-12.18v-2h12.18V260.983z M348.273,260.983h-12.18v-2h12.18V260.983z
	 M323.914,260.983h-12.18v-2h12.18V260.983z M299.555,260.983h-12.179v-2h12.179V260.983z M275.196,260.983h-12.18v-2h12.18V260.983
	z M250.837,260.983h-12.18v-2h12.18V260.983z M226.478,260.983h-12.179v-2h12.179V260.983z M202.119,260.983h-12.18v-2h12.18
	V260.983z M177.759,260.983h-12.18v-2h12.18V260.983z M153.4,260.983h-12.18v-2h12.18V260.983z M129.041,260.983h-12.18v-2h12.18
	V260.983z M104.682,260.983H92.502v-2h12.179V260.983z M80.323,260.983h-12.18v-2h12.18V260.983z"/>
<rect x="823.277" y="258.983" fill="#E6E6E6" width="6" height="2"/>
<rect x="49.963" y="244.983" fill="#E6E6E6" width="6" height="2"/>
<path fill="#E6E6E6" d="M811.098,246.983h-12.18v-2h12.18V246.983z M786.738,246.983h-12.18v-2h12.18V246.983z M762.379,246.983
	H750.2v-2h12.179V246.983z M738.021,246.983h-12.18v-2h12.18V246.983z M713.661,246.983h-12.18v-2h12.18V246.983z M689.302,246.983
	h-12.18v-2h12.18V246.983z M664.942,246.983h-12.179v-2h12.179V246.983z M640.584,246.983h-12.18v-2h12.18V246.983z
	 M616.225,246.983h-12.18v-2h12.18V246.983z M591.865,246.983h-12.18v-2h12.18V246.983z M567.506,246.983h-12.18v-2h12.18V246.983z
	 M543.147,246.983h-12.18v-2h12.18V246.983z M518.788,246.983h-12.18v-2h12.18V246.983z M494.429,246.983h-12.18v-2h12.18V246.983z
	 M470.069,246.983h-12.18v-2h12.18V246.983z M445.71,246.983h-12.18v-2h12.18V246.983z M421.352,246.983h-12.18v-2h12.18V246.983z
	 M396.992,246.983h-12.18v-2h12.18V246.983z M372.633,246.983h-12.18v-2h12.18V246.983z M348.273,246.983h-12.18v-2h12.18V246.983z
	 M323.914,246.983h-12.18v-2h12.18V246.983z M299.555,246.983h-12.179v-2h12.179V246.983z M275.196,246.983h-12.18v-2h12.18V246.983
	z M250.837,246.983h-12.18v-2h12.18V246.983z M226.478,246.983h-12.179v-2h12.179V246.983z M202.119,246.983h-12.18v-2h12.18
	V246.983z M177.759,246.983h-12.18v-2h12.18V246.983z M153.4,246.983h-12.18v-2h12.18V246.983z M129.041,246.983h-12.18v-2h12.18
	V246.983z M104.682,246.983H92.502v-2h12.179V246.983z M80.323,246.983h-12.18v-2h12.18V246.983z"/>
<rect x="823.277" y="244.983" fill="#E6E6E6" width="6" height="2"/>
<rect x="49.963" y="215.983" fill="#E6E6E6" width="6" height="2"/>
<path fill="#E6E6E6" d="M811.098,217.983h-12.18v-2h12.18V217.983z M786.738,217.983h-12.18v-2h12.18V217.983z M762.379,217.983
	H750.2v-2h12.179V217.983z M738.021,217.983h-12.18v-2h12.18V217.983z M713.661,217.983h-12.18v-2h12.18V217.983z M689.302,217.983
	h-12.18v-2h12.18V217.983z M664.942,217.983h-12.179v-2h12.179V217.983z M640.584,217.983h-12.18v-2h12.18V217.983z
	 M616.225,217.983h-12.18v-2h12.18V217.983z M591.865,217.983h-12.18v-2h12.18V217.983z M567.506,217.983h-12.18v-2h12.18V217.983z
	 M543.147,217.983h-12.18v-2h12.18V217.983z M518.788,217.983h-12.18v-2h12.18V217.983z M494.429,217.983h-12.18v-2h12.18V217.983z
	 M470.069,217.983h-12.18v-2h12.18V217.983z M445.71,217.983h-12.18v-2h12.18V217.983z M421.352,217.983h-12.18v-2h12.18V217.983z
	 M396.992,217.983h-12.18v-2h12.18V217.983z M372.633,217.983h-12.18v-2h12.18V217.983z M348.273,217.983h-12.18v-2h12.18V217.983z
	 M323.914,217.983h-12.18v-2h12.18V217.983z M299.555,217.983h-12.179v-2h12.179V217.983z M275.196,217.983h-12.18v-2h12.18V217.983
	z M250.837,217.983h-12.18v-2h12.18V217.983z M226.478,217.983h-12.179v-2h12.179V217.983z M202.119,217.983h-12.18v-2h12.18
	V217.983z M177.759,217.983h-12.18v-2h12.18V217.983z M153.4,217.983h-12.18v-2h12.18V217.983z M129.041,217.983h-12.18v-2h12.18
	V217.983z M104.682,217.983H92.502v-2h12.179V217.983z M80.323,217.983h-12.18v-2h12.18V217.983z"/>
<rect x="823.277" y="215.983" fill="#E6E6E6" width="6" height="2"/>
<rect x="49.963" y="195.983" fill="#E6E6E6" width="6" height="2"/>
<path fill="#E6E6E6" d="M811.098,197.983h-12.18v-2h12.18V197.983z M786.738,197.983h-12.18v-2h12.18V197.983z M762.379,197.983
	H750.2v-2h12.179V197.983z M738.021,197.983h-12.18v-2h12.18V197.983z M713.661,197.983h-12.18v-2h12.18V197.983z M689.302,197.983
	h-12.18v-2h12.18V197.983z M664.942,197.983h-12.179v-2h12.179V197.983z M640.584,197.983h-12.18v-2h12.18V197.983z
	 M616.225,197.983h-12.18v-2h12.18V197.983z M591.865,197.983h-12.18v-2h12.18V197.983z M567.506,197.983h-12.18v-2h12.18V197.983z
	 M543.147,197.983h-12.18v-2h12.18V197.983z M518.788,197.983h-12.18v-2h12.18V197.983z M494.429,197.983h-12.18v-2h12.18V197.983z
	 M470.069,197.983h-12.18v-2h12.18V197.983z M445.71,197.983h-12.18v-2h12.18V197.983z M421.352,197.983h-12.18v-2h12.18V197.983z
	 M396.992,197.983h-12.18v-2h12.18V197.983z M372.633,197.983h-12.18v-2h12.18V197.983z M348.273,197.983h-12.18v-2h12.18V197.983z
	 M323.914,197.983h-12.18v-2h12.18V197.983z M299.555,197.983h-12.179v-2h12.179V197.983z M275.196,197.983h-12.18v-2h12.18V197.983
	z M250.837,197.983h-12.18v-2h12.18V197.983z M226.478,197.983h-12.179v-2h12.179V197.983z M202.119,197.983h-12.18v-2h12.18
	V197.983z M177.759,197.983h-12.18v-2h12.18V197.983z M153.4,197.983h-12.18v-2h12.18V197.983z M129.041,197.983h-12.18v-2h12.18
	V197.983z M104.682,197.983H92.502v-2h12.179V197.983z M80.323,197.983h-12.18v-2h12.18V197.983z"/>
<rect x="823.277" y="195.983" fill="#E6E6E6" width="6" height="2"/>
<rect x="49.963" y="152.983" fill="#E6E6E6" width="6" height="2"/>
<path fill="#E6E6E6" d="M811.098,154.983h-12.18v-2h12.18V154.983z M786.738,154.983h-12.18v-2h12.18V154.983z M762.379,154.983
	H750.2v-2h12.179V154.983z M738.021,154.983h-12.18v-2h12.18V154.983z M713.661,154.983h-12.18v-2h12.18V154.983z M689.302,154.983
	h-12.18v-2h12.18V154.983z M664.942,154.983h-12.179v-2h12.179V154.983z M640.584,154.983h-12.18v-2h12.18V154.983z
	 M616.225,154.983h-12.18v-2h12.18V154.983z M591.865,154.983h-12.18v-2h12.18V154.983z M567.506,154.983h-12.18v-2h12.18V154.983z
	 M543.147,154.983h-12.18v-2h12.18V154.983z M518.788,154.983h-12.18v-2h12.18V154.983z M494.429,154.983h-12.18v-2h12.18V154.983z
	 M470.069,154.983h-12.18v-2h12.18V154.983z M445.71,154.983h-12.18v-2h12.18V154.983z M421.352,154.983h-12.18v-2h12.18V154.983z
	 M396.992,154.983h-12.18v-2h12.18V154.983z M372.633,154.983h-12.18v-2h12.18V154.983z M348.273,154.983h-12.18v-2h12.18V154.983z
	 M323.914,154.983h-12.18v-2h12.18V154.983z M299.555,154.983h-12.179v-2h12.179V154.983z M275.196,154.983h-12.18v-2h12.18V154.983
	z M250.837,154.983h-12.18v-2h12.18V154.983z M226.478,154.983h-12.179v-2h12.179V154.983z M202.119,154.983h-12.18v-2h12.18
	V154.983z M177.759,154.983h-12.18v-2h12.18V154.983z M153.4,154.983h-12.18v-2h12.18V154.983z M129.041,154.983h-12.18v-2h12.18
	V154.983z M104.682,154.983H92.502v-2h12.179V154.983z M80.323,154.983h-12.18v-2h12.18V154.983z"/>
<rect x="823.277" y="152.983" fill="#E6E6E6" width="6" height="2"/>
<path fill="#F2F2F2" d="M340.488,95.196c0,30.063-24.371,54.435-54.435,54.435s-54.435-24.371-54.435-54.434
	c0-30.063,24.371-54.435,54.435-54.435l0,0c29.93-0.133,54.302,24.022,54.435,53.952C340.489,94.875,340.489,95.036,340.488,95.196z
	"/>
<path fill="#2F2E41" d="M308.316,82.172L308.316,82.172l-0.27,0.486c2.397-5.909,0.218-13.189-4.059-17.644
	c-4.277-4.455-10.222-6.492-16.076-7.3c-4.345-0.766-8.814-0.419-12.989,1.01c-5.984,2.305-10.556,7.642-14.374,13.193
	c-1.746,2.539-3.462,5.434-3.289,8.607c0.162,2.945,1.91,5.444,3.341,7.943c1.432,2.499,2.627,5.599,1.6,8.326
	c-0.612,1.625-1.906,2.795-2.956,4.125c-1.05,1.33-1.914,3.126-1.407,4.794c0.458,1.298,1.565,2.26,2.914,2.533
	c1.285,0.214,2.599,0.183,3.872-0.092l33.369-5.042c7.766-1.173,13.11-8.42,11.937-16.186
	C309.679,85.258,309.132,83.648,308.316,82.172z"/>
<circle fill="#FFB9B9" cx="283.496" cy="86.565" r="16.315"/>
<path fill="#73D629" d="M326.928,131.138c-19.622,22.327-53.529,24.777-76.158,5.504l4.669-13.028
	c2.15-4.715,6.727-7.858,11.9-8.172l2.97-0.182l7.083-6.109c0,0,19.083-0.681,18.8-1.007l11.56,6.953l-0.01-0.048l4.544,0.278
	c5.174,0.312,9.752,3.456,11.9,8.172L326.928,131.138z"/>
<path fill="#2F2E41" d="M298.971,71.423c-0.421-2.228-2.693-3.247-4.64-3.741c-5.647-1.441-11.521-1.763-17.292-0.95
	c-4.207,0.6-8.514,1.923-11.566,5.207c-2.461,2.765-3.856,6.317-3.933,10.018c-0.125,2.213,0.37,4.417,1.428,6.364
	c0.962,1.844,2.826,3.045,4.903,3.16l0.196,0.681c8.546-1.377,16.066-6.414,20.592-13.793c-0.899,3.212-2.689,6.103-5.163,8.34
	c5.53-2.212,10.337-5.917,13.886-10.701C298.351,74.722,299.291,73.118,298.971,71.423z"/>
<circle fill="#F2F2F2" cx="749.93" cy="112.45" r="54.434"/>
<circle fill="#2F2E41" cx="734.982" cy="84.34" r="7.685"/>
<circle fill="#2F2E41" cx="747.278" cy="101.76" r="19.469"/>
<circle fill="#9E616A" cx="748.89" cy="105.403" r="15.821"/>
<path fill="#2F2E41" d="M759.634,89.276c-8.546-5.21-19.697-2.505-24.907,6.041c-1.793,2.941-2.711,6.332-2.646,9.775
	c8.062,2.024,16.531,3.573,25.128,0.484l2.03-4.969l1.197,4.973c2.618,1.07,5.243,1.976,7.868-0.01
	C768.522,98.981,765.22,92.775,759.634,89.276z"/>
<path fill="#2F2E41" d="M727.827,63.478c-5.505-2.35-11.865-1.37-16.407,2.527c-4.423,3.991-6.554,9.931-5.675,15.823
	c0.871,5.9,4.458,10.981,7.765,15.945s6.536,10.403,6.533,16.367c-0.006,8.944-7.249,16.196-16.192,16.214
	c5.041,2.171,10.304,4.384,15.786,4.126c5.483-0.257,11.23-3.782,12.125-9.198c0.645-3.902-1.271-7.708-2.867-11.326
	c-2.601-5.896-4.48-12.084-5.599-18.431c-0.533-3.029-0.881-6.213,0.106-9.126c1.615-4.431,5.937-7.286,10.646-7.032l1.812-1.63
	C736.496,71.757,733.271,66.032,727.827,63.478z"/>
<path fill="#73D629" d="M790.888,148.871c-19.622,22.327-53.528,24.777-76.157,5.504l4.669-13.028
	c2.15-4.715,6.728-7.858,11.9-8.172l2.971-0.182l7.082-6.108c0,0,19.084-0.682,18.801-1.008l11.56,6.953l-0.01-0.048l4.545,0.278
	c5.173,0.312,9.751,3.456,11.9,8.172L790.888,148.871z"/>
<path fill="#F2F2F2" d="M649.488,54.531c-0.054,30.063-24.468,54.391-54.531,54.338s-54.391-24.467-54.338-54.531
	C540.673,24.274,565.087-0.053,595.15,0c29.985-0.024,54.313,24.264,54.338,54.249C649.488,54.343,649.488,54.437,649.488,54.531z"
	/>
<path fill="#2F2E41" d="M569.824,36.727c2.25-7.173,7.369-13.752,14.447-16.178c7.08-2.425,17.445,1.269,22.768,6.573
	c9.734,9.702,12.11,43.032,5.422,53.564c-1.33-0.07-5.921-0.122-7.268-0.173l-1.904-6.348v6.286
	c-2.145-0.066-4.307-0.112-6.485-0.137c-15.181-0.188-27.493-12.352-27.867-27.529C568.763,45.799,568.937,39.554,569.824,36.727z"
	/>
<circle fill="#9E616A" cx="594.246" cy="44.988" r="15.513"/>
<path fill="#2F2E41" d="M580.857,31.363l17.862-8.944l0,0c7.438,3.352,12.472,10.473,13.149,18.601l0.445,5.333l-7.479-1.904
	l-0.819-6.819l-1.271,6.287l-3.452-0.878l0.033-10.587l-3.454,10.579l-12.328-2.833L580.857,31.363z"/>
<path fill="#73D629" d="M635.447,90.457c-19.621,22.327-53.528,24.777-76.157,5.504l4.669-13.028c2.15-4.715,6.728-7.858,11.9-8.172
	l2.971-0.182l7.082-6.108c0,0,19.084-0.682,18.801-1.008l11.56,6.953l-0.009-0.048l4.544,0.278c5.173,0.313,9.751,3.456,11.9,8.172
	L635.447,90.457z"/>
<circle fill="#F2F2F2" cx="445.408" cy="142.45" r="54.434"/>
<circle fill="#FFB6B6" cx="443.906" cy="131.818" r="17.376"/>
<path fill="#73D629" d="M486.246,178.871c-19.621,22.327-53.528,24.777-76.157,5.504l4.669-13.028
	c2.15-4.715,6.728-7.858,11.9-8.172l2.971-0.182l7.082-6.108c0,0,19.084-0.682,18.801-1.008l11.56,6.953l-0.009-0.048l4.544,0.278
	c5.173,0.312,9.751,3.456,11.9,8.172L486.246,178.871z"/>
<path fill="#2F2E41" d="M462.232,121.042c-1.469-5.255-4.805-9.794-9.382-12.765c-3.648-2.333-8.2-3.524-12.333-2.291
	s-7.555,5.29-7.284,9.672c-1.562-0.41-3.222,0.102-4.28,1.322c-1.036,1.224-1.758,2.684-2.1,4.251
	c-1.326,4.913-1.238,10.101,0.254,14.966l-0.082,0.698c2.017-0.333,3.546-2.063,4.496-3.907c0.951-1.843,1.499-3.888,2.529-5.686
	c1.031-1.798,2.742-3.402,4.784-3.458l-0.18,3.121c1.757-0.905,3.514-1.81,5.271-2.715c-0.418,1-0.836,1.999-1.254,2.999
	c1.534-0.641,3.068-1.283,4.603-1.924c-0.171,0.961-0.343,1.922-0.515,2.884c1.643-3.407,5.736-4.837,9.143-3.194
	c0.097,0.046,0.191,0.095,0.286,0.146c1.835,1.234,3.157,3.095,3.72,5.233c0.558,2.133,0.856,4.326,0.891,6.531
	C463.17,131.975,463.679,126.336,462.232,121.042z"/>
<circle fill="#F2F2F2" cx="130.27" cy="167.197" r="54.434"/>
<circle id="a04f79c1-b358-4543-9edb-632b127caa90" fill="#9E616A" cx="129.071" cy="156.329" r="16.514"/>
<path fill="#73D629" d="M170.407,203.138c-19.622,22.327-53.529,24.777-76.158,5.504l4.669-13.028
	c2.15-4.715,6.727-7.858,11.9-8.172l2.97-0.182l7.083-6.109c0,0,19.083-0.681,18.8-1.007l11.56,6.953l-0.01-0.048l4.544,0.278
	c5.173,0.312,9.751,3.456,11.9,8.172L170.407,203.138z"/>
<path fill="#2F2E41" d="M114.066,163.964c-0.032-0.09-0.062-0.182-0.094-0.272c-0.063,0.056-0.125,0.114-0.193,0.166
	L114.066,163.964z"/>
<path fill="#2F2E41" d="M148.854,150.454c-0.171-3.389-1.785-6.543-4.433-8.666c-1.042-0.651-1.96-1.481-2.713-2.453
	c-0.364-0.742-0.671-1.51-0.922-2.298c-1.268-3.018-4.88-4.622-8.122-4.165c-3.256,0.619-6.121,2.536-7.935,5.31
	c-2.69-1.289-5.916-0.153-7.205,2.537c-0.556,1.16-0.679,2.48-0.348,3.724c-1.678-1.352-4.393-0.271-5.441,1.613
	c-1.047,1.883-0.881,4.188-0.57,6.32c0.564,3.854,1.504,7.644,2.807,11.315c1.634-1.439,1.534-4.06,1.334-6.275
	c-0.208-2.302-0.083-5.112,1.929-6.247c1.944-1.098,4.304,0.107,6.448,0.73c3.43,0.971,7.114,0.392,10.081-1.586
	c1.055-0.839,2.162-1.611,3.315-2.31c1.184-0.699,2.648-0.725,3.856-0.068c0.94,0.81,1.572,1.92,1.788,3.143
	c0.826,2.799,1.651,5.598,2.477,8.397C147.652,157.129,148.981,153.846,148.854,150.454z"/>
<rect x="125.255" y="263.525" fill="#3F3D56" width="5.196" height="152.303"/>
<rect x="280.818" y="192.395" fill="#3F3D56" width="5.196" height="223.433"/>
<rect x="436.702" y="239.16" fill="#3F3D56" width="5.196" height="176.668"/>
<rect x="592.586" y="153.424" fill="#3F3D56" width="5.195" height="262.404"/>
<rect x="748.47" y="213.179" fill="#3F3D56" width="5.195" height="202.649"/>
<circle fill="#73D629" cx="283.737" cy="195.976" r="15.896"/>
<circle fill="#73D629" cx="595.504" cy="154.407" r="15.896"/>
<circle fill="#73D629" cx="439.62" cy="240.143" r="15.896"/>
<circle fill="#73D629" cx="127.853" cy="263.526" r="15.896"/>
<circle fill="#73D629" cx="751.388" cy="211.565" r="15.896"/>
<path fill="#3F3D56" d="M862.893,414.258H18.998l-5.299,2.649c0,1.463,1.187,2.649,2.649,2.649h846.544
	c1.463,0,2.648-1.187,2.648-2.649S864.355,414.258,862.893,414.258L862.893,414.258L862.893,414.258z"/>
<circle fill="#3F3D56" cx="15.896" cy="415.653" r="15.896"/>
<circle fill="#E6E6E6" cx="127.896" cy="461.653" r="15.896"/>
<circle fill="#E6E6E6" cx="283.896" cy="461.653" r="15.896"/>
<circle fill="#E6E6E6" cx="439.896" cy="461.653" r="15.896"/>
<circle fill="#E6E6E6" cx="594.896" cy="461.653" r="15.896"/>
<circle fill="#E6E6E6" cx="750.896" cy="461.653" r="15.896"/>
<circle fill="#3F3D56" cx="867.896" cy="415.653" r="15.896"/>
</svg>
