<?xml version="1.0" encoding="utf-8"?>
<!-- Generator: Adobe Illustrator 16.0.3, SVG Export Plug-In . SVG Version: 6.00 Build 0)  -->
<!DOCTYPE svg PUBLIC "-//W3C//DTD SVG 1.1//EN" "http://www.w3.org/Graphics/SVG/1.1/DTD/svg11.dtd">
<svg version="1.1" id="Capa_1" xmlns="http://www.w3.org/2000/svg" xmlns:xlink="http://www.w3.org/1999/xlink" x="0px" y="0px"
	 width="903px" height="823.914px" viewBox="0 0 903 823.914" enable-background="new 0 0 903 823.914" xml:space="preserve">
<title>healthy_lifestyle</title>
<rect x="124" y="315.313" fill="#3F3D56" width="701" height="391"/>
<path fill="#D0CDE1" d="M149.319,348.626l46.153-17.347c-13.358-16.208-31.113-32.765-49.852-48.255l-63.672,10.78l52.565-19.757
	c-46.356-36.66-94.506-65.301-94.506-65.301s-52.63,147.377-37.16,212.845c8.973,37.973,33.153,67.945,63.464,83.689l1.233-84.596
	l16.465,91.929c17.589,5.613,36.373,6.345,54.345,2.116c59.369-14.029,94.955-78.474,79.485-143.942
	c-2.317-9.807-7.942-20.313-15.812-31.086L149.319,348.626z"/>
<ellipse transform="matrix(-0.5 -0.866 0.866 -0.5 -193.7641 858.8455)" opacity="0.1" enable-background="new    " cx="151.044" cy="485.357" rx="10.97" ry="32.154"/>
<path fill="#F2F2F2" d="M334.81,706.313h-63.06c-9.042-8.486-17.479-17.596-25.25-27.26l-43.96-74.08l-55.08-92.85l-6.13-10.32
	l-5.04-8.5l27.24-15.13l5.79,7.72l1.13,1.5l6.64,8.84l44.72,59.57l4.89-44.72h18.16l-14.91,55.56L334.81,706.313z"/>
<path fill="#D0CDE1" d="M732.294,352.527l-52.226-5.211c9.305-20.33,23.037-42.222,38.074-63.287l68.451-6.338l-59.482-5.936
	c37.652-50.4,79.345-93.043,79.345-93.043s94.481,137.202,96.487,208.784c1.163,41.519-15.508,78.971-42.379,103.463l-24.425-86.687
	l8.226,99.074c-16.558,10.589-35.68,16.482-55.326,17.052c-64.912,1.819-119.16-54.735-121.165-126.317
	c-0.301-10.722,2.61-23.069,7.757-36.306L732.294,352.527z"/>
<ellipse transform="matrix(-0.9655 -0.2605 0.2605 -0.9655 1380.7717 1170.3229)" opacity="0.1" enable-background="new    " cx="767.945" cy="493.656" rx="34.227" ry="11.678"/>
<path fill="#F2F2F2" d="M785.3,497.782l-0.31,1.11l-2.55,9.03l-3.48,12.29v0.01l-31.25,110.57l-21.08,74.569
	c-0.36,0.32-0.72,0.63-1.09,0.95h-59.92l43.399-107.439l-30.539-53.07l18.68-4.97l17.27,44.649l29.7-73.5l0.01-0.01l4.4-10.91
	l0.75-1.859l3.84-9.53l31.17,7.87L785.3,497.782z"/>
<path fill="#2F2E41" d="M387.021,731.614l-24.967,92.3h85.49l9.835-9.079l3.783,9.079h91.542c0,0,9.836-59.768-2.27-64.307
	C538.331,755.067,387.021,731.614,387.021,731.614z"/>
<circle fill="#A0616A" cx="483.103" cy="315.512" r="52.202"/>
<path fill="#A0616A" d="M444.141,341.613c0,0,9.835,74.142-5.296,82.464c-15.131,8.321,90.029,9.078,90.029,9.078
	s-23.453-64.307-12.861-83.977L444.141,341.613z"/>
<path fill="#73D629" d="M479.32,411.594c0,0-26.486-3.956-32.157-17.109l-79.813,35.266c0,0,14.375,105.16,22.696,124.074
	L379.455,743.72c0,0,74.143,49.176,174.007,22.696l24.967-208.808l27.235-124.075l-87.2-35.021
	C518.464,398.512,501.26,410.081,479.32,411.594z"/>
<path fill="#A0616A" d="M534.549,650.664c0,0-96.082-3.026-89.273,25.723s95.325-1.514,95.325-1.514L534.549,650.664z"/>
<path fill="#2F2E41" d="M439.676,266.133l-9.761-3.907c0,0,20.408-22.468,48.803-20.515l-7.986-8.792c0,0,19.521-7.815,37.268,12.7
	c9.329,10.784,20.123,23.46,26.852,37.739h10.452l-4.362,9.606l15.27,9.606l-15.673-1.726c0.935,5.261,1.077,10.631,0.426,15.934
	c-0.673,5.304-3.379,10.14-7.55,13.486l0,0c0,0-12.104-25.056-12.104-28.963v9.769c0,0-9.761-8.792-9.761-14.653l-5.323,6.838
	l-2.662-10.746l-32.831,10.746l5.324-8.792l-20.408,2.931l7.986-10.746c0,0-23.07,12.7-23.958,23.445s-7.64,20.928-7.64,20.928
	S413.943,280.787,439.676,266.133z"/>
<path fill="#3F3D56" d="M503.151,619.979v12.877c-0.001,0.248-0.201,0.448-0.449,0.449h-0.319v67.082c0,3.866-3.134,6.999-6.999,7
	h-41.916c-3.865-0.001-6.998-3.134-6.997-6.999v-64.73h-0.231c-0.175,0.001-0.317-0.141-0.317-0.315v-7.329
	c-0.001-0.175,0.142-0.317,0.317-0.317h0.231v-2.761h-0.233c-0.184,0-0.332-0.149-0.332-0.333v-7.229
	c0.001-0.183,0.149-0.331,0.332-0.331h0.233v-3.769h-0.237c-0.162,0-0.294-0.131-0.294-0.293v-0.001v-3.945
	c-0.001-0.163,0.131-0.295,0.294-0.296h0.237v-7.987c0-3.864,3.133-6.997,6.997-6.997h41.916c3.864,0,6.998,3.132,6.999,6.997
	v18.778h0.319C502.95,619.53,503.15,619.73,503.151,619.979z"/>
<circle fill="#F2F2F2" cx="474.496" cy="623.636" r="6.862"/>
<path fill="#73D629" d="M582.211,433.533h23.453c0,0,74.898,163.415,56.741,183.086c-18.157,19.67-127.856,73.385-127.856,73.385
	s-8.322-41.609-15.888-41.609l75.655-46.906l-37.071-88.517L582.211,433.533z"/>
<path fill="#A0616A" d="M414.257,643.854c0,0,85.49,45.394,69.603,65.063c-15.888,19.671-92.299-34.801-92.299-34.801
	L414.257,643.854z"/>
<path fill="#73D629" d="M377.942,430.508h-10.592c0,0-15.131,14.374-19.67,46.906l-43.953,97.941
	c-2.69,5.995-2.577,12.876,0.308,18.779c9.754,19.979,35.429,65.06,73.906,78.469l19.671,15.131c0,0-2.271-37.07,28.748-37.07
	l-52.958-57.498l20.427-66.576L377.942,430.508z"/>
<rect x="475" fill="#3F3D56" width="260.521" height="200.974"/>
<rect x="520.074" y="72.367" fill="#D0CDE1" width="36.391" height="95.938"/>
<rect x="587.065" y="109.584" fill="#D0CDE1" width="36.391" height="58.721"/>
<rect x="654.057" y="32.668" fill="#D0CDE1" width="36.391" height="135.636"/>
<circle fill="#73D629" cx="605.261" cy="72.367" r="18.195"/>
<rect x="151.479" y="38.652" fill="#3F3D56" width="260.521" height="200.973"/>
<path fill="#73D629" d="M191.177,198.272c0,0,2.481-66.991,52.104-56.239c49.623,10.752,123.23-51.277,123.23-51.277"/>
<polygon fill="#D0CDE1" points="191.591,194.965 191.591,66.772 175.05,66.772 175.05,194.965 175.05,210.678 175.05,211.506 
	388.429,211.506 388.429,194.965 "/>
<path fill="#2F2E41" d="M438.349,526.632l9.055,10.563c3.363-0.642,6.877-1.396,10.495-2.242l-2.601-8.321l6.358,7.418
	c38.332-9.428,85.844-27.757,85.844-27.757s-51.294,3.761-89.593-4.606c-16.945-3.702-34.381,4.698-41.334,20.588
	c-4.042,9.236-3.407,17.238,10.928,17.238c4.844-0.083,9.674-0.537,14.448-1.359L438.349,526.632z"/>
</svg>
