<?xml version="1.0" encoding="utf-8"?>
<!-- Generator: Adobe Illustrator 16.0.3, SVG Export Plug-In . SVG Version: 6.00 Build 0)  -->
<!DOCTYPE svg PUBLIC "-//W3C//DTD SVG 1.1//EN" "http://www.w3.org/Graphics/SVG/1.1/DTD/svg11.dtd">
<svg version="1.1" id="Capa_1" xmlns="http://www.w3.org/2000/svg" xmlns:xlink="http://www.w3.org/1999/xlink" x="0px" y="0px"
	 width="767.457px" height="518.945px" viewBox="0 0 767.457 518.945" enable-background="new 0 0 767.457 518.945"
	 xml:space="preserve">
<title>diet</title>
<ellipse fill="#E6E6E6" cx="645.091" cy="509.733" rx="122.366" ry="9.212"/>
<path fill="#3F3D56" d="M124.638,142.927c0.039-9.376-7.949-17.045-17.325-17.045H20.31c-9.228,0-17.2,7.542-17.309,16.77
	c-0.068,5.317,2.365,10.356,6.571,13.61c1.082,0.807,1.653,2.127,1.5,3.468c-0.101,0.748-0.152,1.501-0.152,2.255v60.18
	c0,9.316,7.552,16.868,16.868,16.868l0,0h71.495c9.316,0,16.868-7.552,16.868-16.868c0,0,0,0,0,0v-60.179
	c0-0.661-0.038-1.32-0.115-1.976c-0.139-1.322,0.451-2.615,1.54-3.378C121.992,153.461,124.618,148.364,124.638,142.927z"/>
<path fill="#73D629" d="M120.87,141.276c-0.898-6.755-6.691-11.781-13.505-11.717H20.284c-6.341-0.057-11.871,4.299-13.301,10.478
	c-1.219,5.656,1.353,11.452,6.365,14.342c1.451,0.83,2.156,2.536,1.714,4.147c-0.309,1.128-0.465,2.292-0.464,3.462v60.174
	c0,6.344,4.515,11.79,10.75,12.967c0.806,0.15,1.624,0.226,2.444,0.226h71.495c1.207,0.002,2.409-0.164,3.57-0.492
	c5.688-1.601,9.617-6.788,9.618-12.696v-60.185c0-1.095-0.137-2.186-0.407-3.248c-0.074-0.294-0.112-0.596-0.113-0.899
	c0.001-1.355,0.75-2.6,1.946-3.236l0.005-0.005C118.755,152.02,121.522,146.728,120.87,141.276z"/>
<path opacity="0.2" enable-background="new    " d="M112.474,167.748v-5.658h-9.618V129.56h-5.657v32.531H66.931V129.56h-5.658
	v32.531H31.005V129.56h-5.657v32.531h-10.75v5.658h10.75v16.973h-10.75v5.657h10.75v16.973h-10.75v5.657h10.75v22.121
	c0.806,0.15,1.624,0.226,2.444,0.227h3.213v-22.348h30.268v22.348h5.658v-22.348h30.268v22.348h2.087
	c1.207,0.002,2.409-0.164,3.57-0.492v-21.855h9.618v-5.657h-9.618v-16.973h9.618v-5.657h-9.618v-16.973H112.474z M31.005,167.748
	h30.268v16.973H31.005V167.748z M31.005,207.351v-16.973h30.268v16.973H31.005z M97.199,207.351H66.931v-16.973h30.268V207.351z
	 M97.199,184.721H66.931v-16.973h30.268V184.721z"/>
<path fill="#73D629" d="M124.241,0c0,33.37-27.052,60.422-60.422,60.422C30.449,60.422,3.396,33.37,3.396,0l0,0H124.241z"/>
<path fill="#3F3D56" d="M25.563,10.726c0,1.58-0.561,2.86-1.251,2.86s-1.251-1.28-1.251-2.86c0.076-1.069,0.518-2.079,1.251-2.86
	C25.045,8.647,25.487,9.657,25.563,10.726z"/>
<path fill="#3F3D56" d="M88.846,20.737c0,1.58-0.56,2.86-1.251,2.86c-0.691,0-1.251-1.28-1.251-2.86
	c0.076-1.069,0.518-2.079,1.251-2.86C88.328,18.658,88.77,19.668,88.846,20.737z"/>
<path fill="#3F3D56" d="M42.367,15.016c0,1.58-0.56,2.86-1.251,2.86c-0.691,0-1.251-1.281-1.251-2.86
	c0.076-1.069,0.518-2.079,1.251-2.86C41.849,12.937,42.291,13.947,42.367,15.016z"/>
<path fill="#3F3D56" d="M67.394,37.541c0,1.58-0.56,2.86-1.251,2.86c-0.691,0-1.251-1.281-1.251-2.86
	c0.076-1.069,0.518-2.079,1.251-2.86C66.876,35.461,67.318,36.472,67.394,37.541z"/>
<path fill="#3F3D56" d="M40.58,34.68c0,1.58-0.561,2.86-1.251,2.86s-1.251-1.281-1.251-2.86c0.076-1.069,0.518-2.079,1.251-2.86
	C40.062,32.601,40.503,33.611,40.58,34.68z"/>
<path fill="#3F3D56" d="M103.147,7.866c0,1.58-0.56,2.86-1.251,2.86c-0.691,0-1.251-1.28-1.251-2.86
	c0.076-1.069,0.518-2.079,1.251-2.86C102.629,5.787,103.071,6.797,103.147,7.866z"/>
<path fill="#3F3D56" d="M80.265,43.261c0,1.58-0.56,2.86-1.251,2.86c-0.691,0-1.251-1.28-1.251-2.86
	c0.076-1.069,0.518-2.079,1.251-2.86C79.747,41.182,80.189,42.192,80.265,43.261z"/>
<path fill="#3F3D56" d="M63.819,63.819C28.589,63.779,0.04,35.229,0,0h6.793c0,31.495,25.531,57.026,57.026,57.026
	S120.845,31.495,120.845,0h6.793C127.598,35.229,99.048,63.779,63.819,63.819z"/>
<rect x="190.819" y="21.909" fill="#3F3D56" width="20" height="20"/>
<rect x="245.819" y="30.909" fill="#3F3D56" width="161" height="2"/>
<rect x="190.819" y="172.458" fill="#3F3D56" width="20" height="20"/>
<rect x="245.819" y="181.458" fill="#3F3D56" width="161" height="2"/>
<rect x="190.819" y="321.959" fill="#3F3D56" width="20" height="20"/>
<rect x="245.819" y="330.959" fill="#3F3D56" width="161" height="2"/>
<path fill="#A0616A" d="M632.324,137.344l-25.548,20.137l-54.136-19.026c0,0-18.406-20.703-28.814-5.283
	c-3.564,5.281,19.783,15.038,21.986,15.945c5.507,2.267,58.259,31.207,63.428,27.41s34.253-23.001,34.253-23.001L632.324,137.344z"
	/>
<path fill="#2F2E41" d="M719.534,102.993c-24.213-9.047-47.247-13.329-65.922,0V59.976c0-18.204,14.757-32.961,32.961-32.961l0,0
	l0,0c18.204,0,32.961,14.757,32.961,32.961c0,0,0,0,0,0V102.993z"/>
<path fill="#2F2E41" d="M658.693,196.964l-1.979,13.851c0,0-4.947,14.839,0,42.539l-79.639,217.149l58.863,16.818l29.184-118.716
	l41.056-90.52l-3.957,102.887l-20.775,109.811l61.337-2.473l17.873-188.294c2.89-29.758-2.271-59.746-14.945-86.825
	c-4.958-10.53-10.289-18.829-15.127-20.034C716.072,189.544,658.693,196.964,658.693,196.964z"/>
<path fill="#2F2E41" d="M584.496,469.02l-20.28,21.764c0,0-39.077,20.281-11.377,22.754c27.7,2.474,37.099-8.409,37.099-8.409
	s34.625-2.473,34.131-7.419c-0.495-4.947-2.969-21.271-2.969-21.271L584.496,469.02z"/>
<path fill="#2F2E41" d="M694.555,474.267v15.334c0,0,0.495,6.431,0,7.915c-0.494,1.483-7.914,19.785,16.818,15.828
	s14.839-19.291,14.839-19.291l-5.936-22.259L694.555,474.267z"/>
<circle fill="#A0616A" cx="686.27" cy="65.265" r="24.856"/>
<path fill="#A0616A" d="M703.458,78.991c0,0-3.462,32.646,0,38.583c3.463,5.936-35.119-5.936-35.119-5.936s8.409-22.259,5.44-31.163
	C670.812,71.571,703.458,78.991,703.458,78.991z"/>
<path fill="#E6E6E6" d="M723.244,172.974l7.914,21.765l-73.702,8.409c0,0-7.914-1.484-7.914-7.915s-8.409-29.184-8.409-29.184
	s-20.595-16.692-30.487-21.144c-3.586-1.613,1.778-0.947,4.796-7.792c0.905-2.058,1.988-4.229,3.171-6.431
	c0.964-1.806,2.003-3.636,3.066-5.441c1.291-2.201,2.622-4.368,3.913-6.431c3.907-6.237,7.474-11.48,8.616-13.603
	c3.463-6.43,36.016-7.004,36.016-7.004c9.309,5.857,36.203,7.004,36.203,7.004s18.499,7.741,26.206,13.603
	C733.191,119.23,723.244,172.974,723.244,172.974z"/>
<path fill="#2F2E41" d="M707.244,35.426v-0.59l-0.702,0.039c-8.074-6.149-18.53-8.238-28.349-5.665
	c4.645,1.228,8.963,3.459,12.652,6.537l-23.825,1.324l-10.057,22.346h6.806l5.485-10.056v10.056h23.017l1.564-7.821l4.346,7.821
	h4.521c0.028,0.558,0.071,1.111,0.071,1.676l-4.47,43.017l21.229-8.939V61.093C719.542,51.116,715.021,41.675,707.244,35.426z"/>
<path fill="#A0616A" d="M740.557,149.231l-1.483,39.077l-3.958,75.681c0,0,5.441,32.646-8.408,32.152
	c-13.851-0.494-3.463-38.583-3.463-38.583l-3.957-59.852l3.957-42.045L740.557,149.231z"/>
<path fill="#E6E6E6" d="M744.514,170.5c0,4.452-24.979,3.215-24.979,3.215l-13.107-68.508c0,0,18.499,7.741,26.206,13.603
	c1.813,1.881,3.297,4.056,4.388,6.431c0.588,1.587,1.147,3.428,1.677,5.441c0.524,1.999,1.014,4.17,1.474,6.431
	C742.33,148.138,743.78,159.29,744.514,170.5z"/>
<path fill="#CCCCCC" d="M63.146,329.424l-37.862-3.92c0.951-6.57-3.604-12.667-10.175-13.618c-6.57-0.95-12.667,3.604-13.617,10.175
	c-0.521,3.602,0.617,7.244,3.096,9.908c-4.512,4.874-4.219,12.482,0.654,16.994c4.874,4.513,12.482,4.22,16.994-0.654
	c2.682-2.896,3.771-6.926,2.915-10.779l37.995-3.493V329.424z"/>
<path fill="#73D629" d="M101.648,355.446c14.884,3.66,29.878-6.897,30.655-22.205c0.021-0.425,0.032-0.853,0.032-1.282
	s-0.011-0.857-0.032-1.281c-0.776-15.309-15.771-25.865-30.655-22.205l-50.495,12.416c-6.114-0.006-11.075,4.946-11.081,11.061
	c-0.005,6.113,4.946,11.074,11.06,11.08c0.007,0,0.014,0,0.021,0L101.648,355.446z"/>
</svg>
