<?xml version="1.0" encoding="utf-8"?>
<!-- Generator: Adobe Illustrator 16.0.3, SVG Export Plug-In . SVG Version: 6.00 Build 0)  -->
<!DOCTYPE svg PUBLIC "-//W3C//DTD SVG 1.1//EN" "http://www.w3.org/Graphics/SVG/1.1/DTD/svg11.dtd">
<svg version="1.1" id="Capa_1" xmlns="http://www.w3.org/2000/svg" xmlns:xlink="http://www.w3.org/1999/xlink" x="0px" y="0px"
	 width="888px" height="618.106px" viewBox="0 0 888 618.106" enable-background="new 0 0 888 618.106" xml:space="preserve">
<path fill="#2F2E41" d="M741.957,95.043l-68.503,0.667c-3.22-15.852-14.038-57.443-4.295-68.787
	c0.923-8.871,8.661-15.444,17.563-14.921l0,0c10.618-16.62,28.303-14.125,40.256-3.745c12.029,4.151,16.564,11.525,14.979,21.532
	c8.908,7.798,10.552,17.286,6.553,28.085L741.957,95.043z"/>
<path fill="#FFB9B9" d="M735.362,137.242l-49.423-6.843l-9.885-14.446c13.616-9.032,18.435-21.647,12.166-38.778l34.216-0.76
	c-1.604,15.255,3.441,27.067,17.487,34.215L735.362,137.242z"/>
<path fill="#E6E6E6" d="M674.255,583.02l-1.89,25.834c-0.331,4.531,3.072,8.471,7.603,8.803c0.365,0.027,0.731,0.029,1.098,0.008
	l13.27-0.805c2.313-0.141,4.073-2.129,3.933-4.441c-0.016-0.258-0.055-0.514-0.117-0.764l-7.366-29.463L674.255,583.02z"/>
<path fill="#E6E6E6" d="M717.216,582.192l-7.366,29.463c-0.562,2.248,0.805,4.525,3.053,5.088c0.25,0.063,0.505,0.102,0.763,0.117
	l13.27,0.805c4.534,0.273,8.433-3.178,8.707-7.713c0.022-0.365,0.02-0.732-0.007-1.098l-1.89-25.834L717.216,582.192z"/>
<polygon fill="#73D629" points="734.602,586.606 716.694,584.809 698.866,394.239 692.128,584.196 674.534,583.565 644.881,320.485 
	758.172,320.485 "/>
<circle fill="#FFB9B9" cx="707.229" cy="55.125" r="34.215"/>
<path fill="#73D629" d="M774.9,326.568l-138.383,1.521c20.536-78.181,32.821-150.804,11.405-200.73l34.215-16.728
	c16.498,17.208,34.872,15.434,54.745-1.521l32.694,8.364C763.978,182.944,766.487,253.064,774.9,326.568z"/>
<path fill="#FFB9B9" d="M598.5,245.972l85.919,34.215l19.209,5.65c3.521,1.036,7.215-0.979,8.25-4.5
	c0.026-0.087,0.05-0.175,0.072-0.264l0,0c0.786-3.146-0.813-6.399-3.783-7.699l-19.946-6.113l-60.067-34.976l12.546-33.075
	l-26.232-14.066L598.5,245.972z"/>
<path fill="#73D629" d="M599.261,183.623c16.347,6.377,29.349,17.262,39.537,31.935l31.935-46.381l-22.81-41.819L599.261,183.623z"
	/>
<path fill="#2F2E41" d="M745.792,49.58c-13.887-3.578-27.54-4.069-40.813,0.469c-8.455,4.095-18.608,3.717-29.899,0.344V16.256
	l60.959,1.625L745.792,49.58z"/>
<path fill="#3F3D56" d="M684.134,206.106c-5.594,0.006-10.128,4.54-10.134,10.134l4,83.732c0.006,5.594,4.54,10.128,10.134,10.134
	h45.732c5.594-0.006,10.128-4.54,10.134-10.134l4-83.732c-0.006-5.594-4.54-10.127-10.134-10.134H684.134z"/>
<path fill="#FFB9B9" d="M813.89,239.646L739,269.466l-5.65,2.25c-0.18,0.07-0.359,0.13-0.55,0.19l-18.93,5.57
	c-2.42,0.71-5.771-2.55-7.73-4.8c-2.005-2.24-2.073-5.61-0.159-7.93c0.261-0.302,0.549-0.58,0.859-0.83
	c0.729-0.568,1.589-0.946,2.5-1.1l18.91-3.72c0.679-0.133,1.33-0.376,1.93-0.72l8.82-5.14l45.79-26.66
	c2.63-1.529,3.768-4.736,2.69-7.58l-8.74-23.05c-1.109-2.918,0.119-6.205,2.87-7.68l14.479-7.76c3.02-1.621,6.782-0.487,8.403,2.532
	c0.232,0.433,0.413,0.893,0.537,1.368l12.569,47.88C818.399,235.324,816.809,238.482,813.89,239.646z"/>
<path fill="#73D629" d="M818.239,175.259c-16.347,6.377-29.349,17.262-39.537,31.935l-31.935-46.381l22.81-43.34L818.239,175.259z"
	/>
<path fill="#FFFFFF" d="M730,85.579c-14.969,6.226-30.663,5.973-47,0c4.754-8.114-2.352-14.469-6-22.66l61-1.813
	C733.335,68.222,726.452,76.628,730,85.579z"/>
<polygon fill="#FFFFFF" points="737.354,62.46 736.646,61.753 737.646,60.753 743.62,53.781 744.38,54.431 738.38,61.431 "/>
<rect x="675" y="57.201" transform="matrix(-0.6403 0.7681 -0.7681 -0.6403 1154.9475 -418.6485)" fill="#FFFFFF" width="1.001" height="7.81"/>
<rect x="724.469" y="76.357" transform="matrix(-0.537 0.8436 -0.8436 -0.537 1193.3608 -501.2805)" fill="#FFFFFF" width="19.557" height="1"/>
<rect x="678.25" y="67.078" transform="matrix(-0.8436 0.537 -0.537 -0.8436 1292.6028 -222.7989)" fill="#FFFFFF" width="1" height="19.558"/>
<path fill="#FFFFFF" d="M741,251.821v18.117l-6.307,2.512c-0.201,0.078-0.402,0.145-0.614,0.212l-21.13,6.217
	c-2.701,0.792-6.441-2.846-8.629-5.358c-2.238-2.501-2.314-6.262-0.179-8.852c0.292-0.337,0.613-0.647,0.96-0.927
	c0.814-0.634,1.773-1.056,2.791-1.228L729,258.362c0.758-0.148,1.485-0.42,2.154-0.804L741,251.821z"/>
<path fill="#3F3D56" d="M750.14,187.202h-3.613c0-51.111-10.523-86.729-20.779-86.729l-0.903-3.614
	c9.197,0,15.061,14.824,18.359,27.26C747.677,140.979,750.14,163.382,750.14,187.202z"/>
<path fill="#3F3D56" d="M667.024,174.554h-3.613c0-46.809,10.596-75.888,26.199-75.888l-0.903,3.614
	C677.914,102.28,667.024,124.628,667.024,174.554z"/>
<circle fill="#3F3D56" cx="748.333" cy="188.105" r="9.034"/>
<path fill="#3F3D56" d="M652.57,196.236h-3.614c0-12.952,7.295-23.489,16.262-23.489v3.614
	C658.243,176.361,652.57,185.277,652.57,196.236z"/>
<path fill="#3F3D56" d="M681.479,196.236h-3.614c0-10.959-5.673-19.875-12.647-19.875v-3.614
	C674.185,172.747,681.479,183.284,681.479,196.236z"/>
<circle fill="#3F3D56" cx="679.673" cy="197.14" r="3.614"/>
<circle fill="#3F3D56" cx="650.763" cy="197.14" r="3.614"/>
<path fill="#2F2E41" d="M215.271,75.697l-63.466,10.748c-3.248,0.554-6.388-1.438-7.27-4.612
	c-4.585-16.55-14.172-38.139-4.865-48.977c0.985-9.472,9.249-16.492,18.756-15.933l0,0c11.337-17.747,30.222-15.083,42.986-3.999
	c12.845,4.432,17.688,12.307,15.995,22.992c5.549,4.857,8.458,10.329,9.072,16.334c0.588,6.761-1.763,13.447-6.454,18.351
	L215.271,75.697z"/>
<path fill="#9F616A" d="M205.403,125.663l-49.201-2.894c4.822-11.067,6.748-21.724,4.824-31.836h36.659
	C197.603,98.697,201.466,112.126,205.403,125.663z"/>
<path fill="#E6E6E6" d="M146.18,580.29l-2.018,27.588c-0.354,4.836,3.281,9.045,8.118,9.398c0.39,0.029,0.782,0.031,1.172,0.008
	l14.17-0.857c2.469-0.15,4.35-2.275,4.199-4.744c-0.017-0.275-0.059-0.547-0.125-0.814l-7.865-31.461L146.18,580.29z"/>
<path fill="#E6E6E6" d="M192.055,579.407l-7.866,31.461c-0.6,2.4,0.859,4.832,3.26,5.432c0.267,0.066,0.54,0.109,0.814,0.125
	l14.17,0.859c4.841,0.293,9.004-3.395,9.297-8.234c0.023-0.391,0.021-0.783-0.007-1.172l-2.018-27.588L192.055,579.407z"/>
<polygon fill="#73D629" points="210.62,584.12 191.498,582.2 172.46,378.702 165.265,581.543 146.478,580.872 114.813,299.944 
	235.79,299.944 "/>
<circle fill="#9F616A" cx="180.323" cy="66.107" r="36.537"/>
<path fill="#2F2E41" d="M221.502,48.653c-14.829-2.583-29.409-2.937-43.582,0.339c-9.028,2.956-19.87,2.683-31.928,0.248V24.601
	l65.094,1.173L221.502,48.653z"/>
<path fill="#FFFFFF" d="M204.639,95.423c-15.984,6.649-32.744,6.379-50.188,0c5.076-8.664-2.512-15.45-6.407-24.197l65.138-1.936
	C208.2,76.889,200.85,85.866,204.639,95.423z"/>
<rect x="145.941" y="65.12" transform="matrix(-0.64 0.7683 -0.7683 -0.64 293.408 1.1221)" fill="#FFFFFF" width="1.001" height="8.34"/>
<rect x="198.734" y="85.609" transform="matrix(-0.537 0.8436 -0.8436 -0.537 394.1441 -44.1069)" fill="#FFFFFF" width="20.885" height="1"/>
<rect x="149.41" y="75.667" transform="matrix(-0.8438 0.5367 -0.5367 -0.8438 322.6158 78.3177)" fill="#FFFFFF" width="1" height="20.885"/>
<path fill="#73D629" d="M110.861,232.746l-27.977-17.365l23.859-69.879c2.661-7.21,7.758-13.265,14.41-17.116l8.038-4.653
	l0.699,70.495L110.861,232.746z"/>
<path fill="#73D629" d="M231.789,266.684l-4.139-35.452c-0.221-18.713,2.962-36.805,10.554-53.475l3.859-52.094l-42.447-17.365
	c-0.13,0.865-0.241,1.729-0.365,2.594l-19.894,9.947l-19.402-4.409l0.107-6.203l-38.588,17.365
	c12.761,59.328,5.801,120.938-16.144,193.709l50.837,13.9l0.423-24.41l45.307-3.236c0.467,7.92,0.842,15.699,1.06,23.305
	c25.565,9.412,26.443,9.256,49.736-4.22C243.415,307.137,236.07,286.843,231.789,266.684z"/>
<polygon fill="#73D629" points="297.051,224.063 271.004,215.381 229.34,166.878 242.062,125.663 299.945,206.699 "/>
<path fill="#E6E6E6" d="M215.419,261.613c0.887,3.894,4.758,6.336,8.655,5.459l22.111-5.007l-3.196-14.113l-22.111,5.006
	C216.981,253.841,214.537,257.716,215.419,261.613L215.419,261.613z"/>
<path fill="#73D629" d="M235.31,245.287l12.541,23.153c21.094-5.884,39.376-24.431,56.918-46.307l-4.824-15.436l-29.906,7.718
	L235.31,245.287z"/>
<polygon fill="#E6E6E6" points="71.79,172.661 95.866,176.96 150.897,255.207 121.662,248.328 "/>
<path fill="#3F3D56" d="M67.52,171.703c-1.131,0.017-2.034,0.947-2.017,2.078c0.006,0.39,0.123,0.769,0.336,1.094l51.439,78.046
	c0.287,0.437,0.73,0.746,1.239,0.865l23.934,5.631c1.099,0.259,2.199-0.422,2.458-1.521c0.134-0.568,0.018-1.167-0.318-1.644
	l-56.477-80.304c-0.31-0.442-0.782-0.743-1.313-0.836l-18.896-3.375C67.778,171.715,67.649,171.704,67.52,171.703z"/>
<path fill="#E6E6E6" d="M99.608,227.505l1.43,14.4l22.56-2.239c3.977-0.395,6.88-3.938,6.485-7.915s-3.938-6.88-7.915-6.485
	L99.608,227.505z"/>
<path fill="#73D629" d="M79.991,225.837c0.068,10.22,8.367,18.473,18.587,18.485h3.709l2.701-22.505l-22.36-8.05L79.991,225.837z"/>
<polygon fill="#FFFFFF" points="211.399,71.78 210.692,71.073 211.76,70.005 218.141,62.558 218.9,63.208 212.493,70.683 "/>
<rect y="616.106" fill="#3F3D56" width="888" height="2"/>
<path fill="#E6E6E6" d="M339,615.106h210V360.389c0-13.487-13.285-24.46-29.614-24.46H368.614c-16.329,0-29.614,10.973-29.614,24.46
	V615.106z"/>
<path fill="#FFFFFF" d="M355,604.573h178V388.67c0-11.432-11.261-20.732-25.102-20.732H380.102
	c-13.841,0-25.102,9.301-25.102,20.732V604.573z"/>
<path fill="#3F3D56" d="M337.414,316.106c-5.191,0-9.414,3.488-9.414,7.775v22.443c0,4.287,4.223,7.775,9.414,7.775h213.173
	c5.19,0,9.413-3.488,9.413-7.775v-22.443c0-4.287-4.223-7.775-9.413-7.775H337.414z"/>
<path fill="#3F3D56" d="M381.181,576.889c-5.073,0.014-9.182,4.123-9.196,9.195l0,0c0.015,5.074,4.123,9.184,9.196,9.197h17.214
	v-18.393H381.181z"/>
<path fill="#73D629" d="M414.194,576.889h-16.742v18.393h16.742c5.073-0.014,9.182-4.123,9.196-9.197l0,0
	C423.376,581.012,419.268,576.903,414.194,576.889z"/>
<path opacity="0.2" enable-background="new    " d="M420.195,579.141c1.45,1.662,2.25,3.795,2.253,6l0,0
	c-0.016,5.074-4.124,9.184-9.197,9.197h-15.799v0.943h16.742c5.073-0.016,9.182-4.123,9.196-9.197l0,0
	C423.387,583.417,422.22,580.881,420.195,579.141z"/>
<path fill="#3F3D56" d="M458.861,438.362c-3.49-3.68-9.299-3.852-13-0.383l0,0c-3.682,3.49-3.854,9.299-0.384,13l11.808,12.525
	l13.384-12.615L458.861,438.362z"/>
<path fill="#73D629" d="M481.507,462.385l-11.484-12.184l-13.385,12.617l11.484,12.184c3.491,3.682,9.299,3.852,13.001,0.383l0,0
	C484.804,471.895,484.976,466.086,481.507,462.385z"/>
<path opacity="0.2" enable-background="new    " d="M483.984,468.297c-0.216,2.195-1.218,4.24-2.822,5.756l0,0
	c-3.701,3.469-9.51,3.297-13-0.385l-10.838-11.496l-0.687,0.646l11.484,12.184c3.491,3.682,9.299,3.852,13.001,0.383l0,0
	C483.063,473.551,484.106,470.963,483.984,468.297z"/>
<path fill="#3F3D56" d="M409.861,467.362c-3.49-3.68-9.299-3.852-13-0.383l0,0c-3.682,3.49-3.854,9.299-0.384,13l11.808,12.525
	l13.384-12.615L409.861,467.362z"/>
<path fill="#73D629" d="M432.507,491.385l-11.484-12.184l-13.385,12.617l11.484,12.184c3.491,3.682,9.299,3.852,13.001,0.383l0,0
	C435.804,500.895,435.976,495.086,432.507,491.385z"/>
<path opacity="0.2" enable-background="new    " d="M434.984,497.297c-0.216,2.195-1.218,4.24-2.822,5.756l0,0
	c-3.701,3.469-9.51,3.297-13-0.385l-10.838-11.496l-0.687,0.646l11.484,12.184c3.491,3.682,9.299,3.852,13.001,0.383l0,0
	C434.063,502.551,435.106,499.963,434.984,497.297z"/>
<path fill="#3F3D56" d="M458.861,494.362c-3.49-3.68-9.299-3.852-13-0.383l0,0c-3.682,3.49-3.854,9.299-0.384,13l11.808,12.525
	l13.384-12.615L458.861,494.362z"/>
<path fill="#73D629" d="M481.507,518.385l-11.484-12.184l-13.385,12.617l11.484,12.184c3.491,3.682,9.299,3.852,13.001,0.383l0,0
	C484.804,527.895,484.976,522.086,481.507,518.385z"/>
<path opacity="0.2" enable-background="new    " d="M483.984,524.297c-0.216,2.195-1.218,4.24-2.822,5.756l0,0
	c-3.701,3.469-9.51,3.297-13-0.385l-10.838-11.496l-0.687,0.646l11.484,12.184c3.491,3.682,9.299,3.852,13.001,0.383l0,0
	C483.063,529.551,484.106,526.963,483.984,524.297z"/>
<path fill="#3F3D56" d="M488.754,551.829c3.639-3.533,3.739-9.344,0.226-13.004l0,0c-3.534-3.639-9.345-3.738-13.004-0.225
	l-12.382,11.959l12.778,13.23L488.754,551.829z"/>
<path fill="#73D629" d="M465.008,574.764l12.043-11.631l-12.778-13.23l-12.043,11.633c-3.639,3.535-3.739,9.344-0.226,13.004l0,0
	C455.539,578.178,461.349,578.278,465.008,574.764z"/>
<path opacity="0.2" enable-background="new    " d="M459.127,577.315c-2.198-0.189-4.255-1.166-5.789-2.752l0,0
	c-3.514-3.66-3.413-9.471,0.226-13.004l11.364-10.977l-0.655-0.68l-12.043,11.633c-3.639,3.535-3.739,9.344-0.226,13.004l0,0
	C453.861,576.456,456.462,577.469,459.127,577.315z"/>
<path fill="#3F3D56" d="M422.754,522.829c3.639-3.533,3.739-9.344,0.226-13.004l0,0c-3.534-3.639-9.345-3.738-13.004-0.225
	l-12.382,11.959l12.778,13.23L422.754,522.829z"/>
<path fill="#73D629" d="M399.008,545.764l12.043-11.631l-12.778-13.23l-12.043,11.633c-3.639,3.535-3.739,9.344-0.226,13.004l0,0
	C389.539,549.178,395.349,549.278,399.008,545.764z"/>
<path opacity="0.2" enable-background="new    " d="M393.127,548.315c-2.198-0.189-4.255-1.166-5.789-2.752l0,0
	c-3.514-3.66-3.413-9.471,0.226-13.004l11.364-10.977l-0.655-0.68l-12.043,11.633c-3.639,3.535-3.739,9.344-0.226,13.004l0,0
	C387.861,547.456,390.462,548.469,393.127,548.315z"/>
<path fill="#3F3D56" d="M516.754,487.829c3.639-3.533,3.739-9.344,0.226-13.004l0,0c-3.534-3.639-9.345-3.738-13.004-0.225
	l-12.382,11.959l12.778,13.23L516.754,487.829z"/>
<path fill="#73D629" d="M493.008,510.764l12.043-11.631l-12.778-13.23l-12.043,11.633c-3.639,3.535-3.739,9.344-0.226,13.004l0,0
	C483.539,514.178,489.349,514.278,493.008,510.764z"/>
<path opacity="0.2" enable-background="new    " d="M487.127,513.315c-2.198-0.189-4.255-1.166-5.789-2.752l0,0
	c-3.514-3.66-3.413-9.471,0.226-13.004l11.364-10.977l-0.655-0.68l-12.043,11.633c-3.639,3.535-3.739,9.344-0.226,13.004l0,0
	C481.861,512.456,484.462,513.469,487.127,513.315z"/>
<path fill="#3F3D56" d="M495.861,560.362c-3.49-3.68-9.299-3.852-13-0.383l0,0c-3.682,3.49-3.854,9.299-0.384,13l11.808,12.525
	l13.384-12.615L495.861,560.362z"/>
<path fill="#73D629" d="M518.507,584.385l-11.484-12.184l-13.385,12.617l11.484,12.184c3.491,3.682,9.299,3.852,13.001,0.383l0,0
	C521.804,593.895,521.976,588.086,518.507,584.385z"/>
<path opacity="0.2" enable-background="new    " d="M520.984,590.297c-0.216,2.195-1.218,4.24-2.822,5.756l0,0
	c-3.701,3.469-9.51,3.297-13-0.385l-10.838-11.496l-0.687,0.646l11.484,12.184c3.491,3.682,9.299,3.852,13.001,0.383l0,0
	C520.063,595.551,521.106,592.963,520.984,590.297z"/>
<path fill="#3F3D56" d="M430.861,559.362c-3.49-3.68-9.299-3.852-13-0.383l0,0c-3.682,3.49-3.854,9.299-0.384,13l11.808,12.525
	l13.384-12.615L430.861,559.362z"/>
<path fill="#73D629" d="M453.507,583.385l-11.484-12.184l-13.385,12.617l11.484,12.184c3.491,3.682,9.299,3.852,13.001,0.383l0,0
	C456.804,592.895,456.976,587.086,453.507,583.385z"/>
<path opacity="0.2" enable-background="new    " d="M455.984,589.297c-0.216,2.195-1.218,4.24-2.822,5.756l0,0
	c-3.701,3.469-9.51,3.297-13-0.385l-10.838-11.496l-0.687,0.646l11.484,12.184c3.491,3.682,9.299,3.852,13.001,0.383l0,0
	C455.063,594.551,456.106,591.963,455.984,589.297z"/>
<path fill="#73D629" d="M449.158,526.37c0.001,6.303-4.435,11.736-10.611,12.998c-1.75,0.354-3.554,0.354-5.305,0
	c-7.179-1.467-11.809-8.477-10.342-15.654c1.063-5.209,5.134-9.277,10.342-10.342c1.751-0.354,3.555-0.354,5.305,0
	C444.724,514.631,449.159,520.065,449.158,526.37z"/>
<path opacity="0.2" enable-background="new    " d="M438.547,513.372v25.996c-1.75,0.354-3.554,0.354-5.305,0v-25.996
	C434.993,513.018,436.797,513.018,438.547,513.372z"/>
<path fill="#73D629" d="M455.158,473.37c0.001,6.303-4.435,11.736-10.611,12.998c-1.75,0.354-3.554,0.354-5.305,0
	c-7.179-1.467-11.809-8.477-10.342-15.654c1.063-5.209,5.134-9.277,10.342-10.342c1.751-0.354,3.555-0.354,5.305,0
	C450.724,461.631,455.159,467.065,455.158,473.37z"/>
<path opacity="0.2" enable-background="new    " d="M444.547,460.372v25.996c-1.75,0.354-3.554,0.354-5.305,0v-25.996
	C440.993,460.018,442.797,460.018,444.547,460.372z"/>
<path fill="#73D629" d="M455.158,549.37c0.001,6.303-4.435,11.736-10.611,12.998c-1.75,0.354-3.554,0.354-5.305,0
	c-7.179-1.467-11.809-8.477-10.342-15.654c1.063-5.209,5.134-9.277,10.342-10.342c1.751-0.354,3.555-0.354,5.305,0
	C450.724,537.631,455.159,543.065,455.158,549.37z"/>
<path opacity="0.2" enable-background="new    " d="M444.547,536.372v25.996c-1.75,0.354-3.554,0.354-5.305,0v-25.996
	C440.993,536.018,442.797,536.018,444.547,536.372z"/>
<path fill="#73D629" d="M488.158,586.37c0.001,6.303-4.435,11.736-10.611,12.998c-1.75,0.354-3.554,0.354-5.305,0
	c-7.179-1.467-11.809-8.477-10.342-15.654c1.063-5.209,5.134-9.277,10.342-10.342c1.751-0.354,3.555-0.354,5.305,0
	C483.724,574.631,488.159,580.065,488.158,586.37z"/>
<path opacity="0.2" enable-background="new    " d="M477.547,573.372v25.996c-1.75,0.354-3.554,0.354-5.305,0v-25.996
	C473.993,573.018,475.797,573.018,477.547,573.372z"/>
<path fill="#73D629" d="M517.31,518.293c4.539,4.373,5.373,11.338,1.995,16.66c-0.96,1.506-2.212,2.805-3.682,3.82
	c-6.038,4.15-14.298,2.619-18.448-3.418c-3.011-4.381-3.117-10.135-0.269-14.623c0.96-1.506,2.212-2.805,3.682-3.82
	C505.781,513.34,512.771,513.918,517.31,518.293z"/>
<path opacity="0.2" enable-background="new    " d="M500.588,516.913l18.717,18.041c-0.96,1.506-2.212,2.805-3.682,3.818
	l-18.717-18.039C497.866,519.227,499.118,517.928,500.588,516.913z"/>
<path fill="#73D629" d="M521.31,547.293c4.539,4.373,5.373,11.338,1.995,16.66c-0.96,1.506-2.212,2.805-3.682,3.82
	c-6.038,4.15-14.298,2.619-18.448-3.418c-3.011-4.381-3.117-10.135-0.269-14.623c0.96-1.506,2.212-2.805,3.682-3.82
	C509.781,542.34,516.771,542.918,521.31,547.293z"/>
<path opacity="0.2" enable-background="new    " d="M504.588,545.913l18.717,18.041c-0.96,1.506-2.212,2.805-3.682,3.818
	l-18.717-18.039C501.866,548.227,503.118,546.928,504.588,545.913z"/>
<path fill="#73D629" d="M402.31,554.293c4.539,4.373,5.373,11.338,1.995,16.66c-0.96,1.506-2.212,2.805-3.682,3.82
	c-6.038,4.15-14.298,2.619-18.448-3.418c-3.011-4.381-3.117-10.135-0.269-14.623c0.96-1.506,2.212-2.805,3.682-3.82
	C390.781,549.34,397.771,549.918,402.31,554.293z"/>
<path opacity="0.2" enable-background="new    " d="M385.588,552.913l18.717,18.041c-0.96,1.506-2.212,2.805-3.682,3.818
	l-18.717-18.039C382.866,555.227,384.118,553.928,385.588,552.913z"/>
<rect x="354.5" y="316.106" opacity="0.2" enable-background="new    " width="5" height="37"/>
<rect x="383.5" y="316.106" opacity="0.2" enable-background="new    " width="5" height="37"/>
<rect x="412.5" y="316.106" opacity="0.2" enable-background="new    " width="5" height="37"/>
<rect x="441.5" y="316.106" opacity="0.2" enable-background="new    " width="5" height="37"/>
<rect x="470.5" y="316.106" opacity="0.2" enable-background="new    " width="5" height="37"/>
<rect x="499.5" y="316.106" opacity="0.2" enable-background="new    " width="5" height="37"/>
<rect x="528.5" y="316.106" opacity="0.2" enable-background="new    " width="5" height="37"/>
</svg>
