<?xml version="1.0" encoding="utf-8"?>
<!-- Generator: Adobe Illustrator 16.0.3, SVG Export Plug-In . SVG Version: 6.00 Build 0)  -->
<!DOCTYPE svg PUBLIC "-//W3C//DTD SVG 1.1//EN" "http://www.w3.org/Graphics/SVG/1.1/DTD/svg11.dtd">
<svg version="1.1" id="Capa_1" xmlns="http://www.w3.org/2000/svg" xmlns:xlink="http://www.w3.org/1999/xlink" x="0px" y="0px"
	 width="776.32px" height="764.051px" viewBox="0 0 776.32 764.051" enable-background="new 0 0 776.32 764.051"
	 xml:space="preserve">
<circle fill="#F2F2F2" cx="113.44" cy="373.97" r="113.44"/>
<circle fill="#2F2E41" cx="114.454" cy="333.464" r="45.236"/>
<path fill="#F2F2F2" d="M227.495,113.641c-0.111,62.651-50.99,113.35-113.641,113.239C51.203,226.769,0.504,175.89,0.615,113.239
	C0.726,50.588,51.605-0.111,114.256,0c62.489-0.051,113.188,50.564,113.24,113.054C227.496,113.25,227.496,113.445,227.495,113.641z
	"/>
<circle fill="#F2F2F2" cx="382.63" cy="373.97" r="113.44"/>
<circle fill="#F2F2F2" cx="382.3" cy="113.44" r="113.44"/>
<circle fill="#F2F2F2" cx="658.78" cy="113.44" r="113.44"/>
<circle fill="#F2F2F2" cx="662.88" cy="373.97" r="113.44"/>
<path fill="#F2F2F2" d="M227.495,650.61c0,62.65-50.789,113.439-113.44,113.439c-62.651,0-113.44-50.789-113.44-113.439
	c0-62.651,50.789-113.44,113.44-113.44c62.374-0.277,113.163,50.062,113.44,112.435C227.496,649.939,227.496,650.275,227.495,650.61
	z"/>
<circle fill="#F2F2F2" cx="389.59" cy="650.611" r="113.44"/>
<path fill="#2F2E41" d="M61.477,76.538c4.69-14.949,15.357-28.66,30.109-33.713c14.753-5.054,36.354,2.645,47.445,13.698
	c20.287,20.219,25.238,89.677,11.3,111.627c-2.772-0.147-12.338-0.255-15.145-0.36l-3.969-13.229v13.099
	c-4.47-0.138-8.976-0.234-13.516-0.286c-31.637-0.393-57.296-25.74-58.074-57.37C59.264,95.443,59.628,82.429,61.477,76.538z"/>
<circle fill="#9E616A" cx="112.372" cy="93.753" r="32.33"/>
<path fill="#2F2E41" d="M84.471,65.36l37.225-18.639l0,0c15.498,6.984,25.989,21.824,27.403,38.764l0.928,11.114l-15.588-3.968
	l-1.708-14.211l-2.647,13.103l-7.194-1.83l0.068-22.063l-7.198,22.047l-25.692-5.903L84.471,65.36z"/>
<circle fill="#2F2E41" cx="351.479" cy="315.388" r="16.016"/>
<circle fill="#2F2E41" cx="377.104" cy="351.691" r="40.573"/>
<circle fill="#9E616A" cx="380.462" cy="359.284" r="32.97"/>
<path fill="#2F2E41" d="M402.852,325.675c-17.809-10.857-41.048-5.221-51.905,12.588c-3.736,6.129-5.648,13.196-5.513,20.373
	c16.8,4.218,34.449,7.446,52.365,1.009l4.231-10.355l2.494,10.363c5.456,2.23,10.927,4.117,16.396-0.021
	C421.376,345.901,414.493,332.967,402.852,325.675z"/>
<path fill="#2F2E41" d="M336.567,271.912c-11.075-5.078-24.971-2.695-34.192,5.267c-9.222,7.963-13.605,20.922-11.825,32.975
	c1.816,12.296,9.291,22.884,16.181,33.229c6.891,10.344,13.622,21.679,13.614,34.108c-0.012,18.639-15.105,33.753-33.744,33.79
	c10.507,4.523,21.473,9.135,32.899,8.599s23.403-7.882,25.267-19.168c1.343-8.132-2.646-16.062-5.974-23.602
	c-5.42-12.287-9.338-25.184-11.668-38.409c-1.111-6.313-1.836-12.949,0.223-19.019c3.364-9.235,12.371-15.185,22.186-14.656
	l3.775-3.396C354.988,289.562,347.643,276.989,336.567,271.912z"/>
<path fill="#2F2E41" d="M612.483,69.068c-1.558,8.365-4.11,16.514-7.604,24.271c-20.012,42.333,36.977,28.535,57.342,28.535
	c22.267,0,43.571,11.708,40.317-40.317c-1.391-22.223-18.051-40.317-40.317-40.317C643.201,41.24,616.46,49.694,612.483,69.068z"/>
<circle fill="#FFB6B6" cx="658.885" cy="89.102" r="32.762"/>
<path fill="#2F2E41" d="M636.636,55.706c17.696-10.789,40.789-5.188,51.577,12.508c3.713,6.09,5.613,13.112,5.479,20.244
	c-16.694,4.191-34.232,7.399-52.035,1.003l-4.204-10.29l-2.479,10.297c-5.421,2.216-10.856,4.091-16.293-0.021
	C618.229,75.804,625.068,62.952,636.636,55.706z"/>
<circle fill="#FFB8B8" cx="114.472" cy="344.231" r="40.412"/>
<circle id="bf829f4c-57e2-46a5-971d-584c2690be65" fill="#9E616A" cx="387.093" cy="627.962" r="34.415"/>
<circle fill="#FFB8B8" cx="386.924" cy="88.021" r="36.991"/>
<path id="bd502a69-4a38-4003-a7a1-fa248c8198be-1853" fill="#2F2E41" d="M419.492,63.584c0,0,9.632-18.412-11.557-20.085
	c0,0-18.064-16.386-36.476-2.996c0,0-10.043,0-15.535,11.365c0,0-7.898-2.996-9.634,5.021c0,0-5.78,16.738,0,31.802
	c5.779,15.064,7.699,16.738,7.699,16.738s-4.055-18.694,19.062-20.368c23.117-1.674,44.325-16.156,46.251,2.256
	c1.927,18.412,4.045,10.095,4.045,10.095S441.646,71.116,419.492,63.584z"/>
<circle fill="#FFB6B6" cx="659.749" cy="351.812" r="36.211"/>
<path fill="#2F2E41" d="M160.449,623.467L160.449,623.467l-0.561,1.012c4.996-12.313,0.453-27.484-8.459-36.769
	s-21.302-13.528-33.502-15.212c-9.057-1.25-18.458-1.215-27.069,2.104c-12.471,4.804-21.999,15.925-29.953,27.493
	c-3.639,5.292-7.216,11.324-6.854,17.938c0.336,6.137,3.979,11.346,6.963,16.553c2.983,5.207,5.475,11.668,3.334,17.351
	c-1.276,3.387-3.973,5.826-6.161,8.597s-3.988,6.516-2.931,9.992c0.955,2.705,3.261,4.709,6.073,5.277
	c2.645,0.616,5.39,0.214,8.068-0.191l69.54-10.506c16.185-2.445,27.322-17.548,24.876-33.732
	C163.289,629.898,162.149,626.544,160.449,623.467z"/>
<circle fill="#FFB9B9" cx="108.725" cy="632.621" r="33.999"/>
<path fill="#73D629" d="M199.235,725.51c-40.892,46.528-111.553,51.635-158.71,11.47l9.73-27.149
	c4.48-9.827,14.02-16.377,24.8-17.03l6.19-0.38l14.76-12.73c0,0,39.77-1.42,39.18-2.1l24.09,14.49l-0.02-0.101l9.47,0.58
	c10.781,0.65,20.322,7.202,24.8,17.03L199.235,725.51z"/>
<path fill="#73D629" d="M473.234,725.51c-40.891,46.528-111.553,51.635-158.71,11.47l9.73-27.149
	c4.48-9.827,14.02-16.377,24.8-17.03l6.19-0.38l14.76-12.73c0,0,39.77-1.42,39.18-2.1l24.09,14.49l-0.02-0.101l9.47,0.58
	c10.781,0.65,20.321,7.202,24.8,17.03L473.234,725.51z"/>
<path fill="#2F2E41" d="M140.974,601.066c-0.877-4.644-5.613-6.767-9.67-7.796c-11.768-3.003-24.01-3.675-36.036-1.979
	c-8.767,1.25-17.742,4.007-24.103,10.85c-5.129,5.762-8.036,13.164-8.197,20.877c-0.259,4.611,0.771,9.204,2.976,13.263
	c2.29,3.875,6.191,6.686,10.219,6.586l0.408,1.419c17.07-2.378,32.926-12.999,42.913-28.744
	c-1.874,6.693-5.604,12.719-10.758,17.381c11.524-4.611,21.542-12.332,28.937-22.302
	C139.681,607.94,141.641,604.599,140.974,601.066z"/>
<path fill="#73D629" d="M198.235,448.51c-40.892,46.528-111.553,51.635-158.71,11.47l9.73-27.149
	c4.48-9.827,14.02-16.377,24.8-17.03l6.19-0.38l14.76-12.73c0,0,39.77-1.42,39.18-2.1l24.09,14.49l-0.02-0.101l9.47,0.58
	c10.781,0.65,20.322,7.202,24.8,17.03L198.235,448.51z"/>
<path fill="#73D629" d="M467.985,449.871c-40.892,46.528-111.554,51.635-158.71,11.47l9.729-27.15
	c4.48-9.826,14.02-16.377,24.8-17.03l6.19-0.38l14.76-12.729c0,0,39.771-1.42,39.18-2.101l24.091,14.49l-0.021-0.1l9.47,0.58
	c10.781,0.649,20.322,7.201,24.801,17.029L467.985,449.871z"/>
<path fill="#73D629" d="M747.985,449.871c-40.892,46.528-111.554,51.635-158.71,11.47l9.729-27.15
	c4.48-9.826,14.02-16.377,24.8-17.03l6.19-0.38l14.76-12.729c0,0,39.771-1.42,39.18-2.101l24.091,14.49l-0.021-0.1l9.47,0.58
	c10.781,0.649,20.322,7.201,24.801,17.029L747.985,449.871z"/>
<path fill="#73D629" d="M198.235,188.51c-40.892,46.528-111.553,51.635-158.71,11.47l9.73-27.15c4.48-9.827,14.02-16.377,24.8-17.03
	l6.19-0.38l14.76-12.73c0,0,39.77-1.42,39.18-2.1l24.09,14.49l-0.02-0.1l9.47,0.58c10.781,0.65,20.322,7.202,24.8,17.03
	L198.235,188.51z"/>
<path fill="#73D629" d="M466.985,188.871c-40.892,46.528-111.554,51.635-158.71,11.47l9.729-27.15
	c4.48-9.826,14.02-16.377,24.8-17.03l6.19-0.38l14.76-12.73c0,0,39.771-1.42,39.18-2.1l24.091,14.49l-0.021-0.1l9.47,0.58
	c10.781,0.65,20.322,7.202,24.801,17.03L466.985,188.871z"/>
<path fill="#73D629" d="M746.985,188.871c-40.892,46.528-111.554,51.635-158.71,11.47l9.729-27.15
	c4.48-9.826,14.02-16.377,24.8-17.03l6.19-0.38l14.76-12.73c0,0,39.771-1.42,39.18-2.1l24.091,14.49l-0.021-0.1l9.47,0.58
	c10.781,0.65,20.322,7.202,24.801,17.03L746.985,188.871z"/>
<path fill="#2F2E41" d="M697.939,329.354c-3.06-10.952-10.012-20.411-19.551-26.601c-7.603-4.863-17.09-7.345-25.702-4.773
	c-8.612,2.571-15.743,11.024-15.18,20.156c-3.108-1.058-6.644,0.35-8.919,2.754s-3.499,5.64-4.376,8.86
	c-2.764,10.239-2.58,21.05,0.528,31.189l-0.171,1.456c4.202-0.695,7.39-4.3,9.371-8.142s3.122-8.103,5.271-11.85
	s5.715-7.09,9.971-7.207l-0.375,6.505c3.661-1.886,7.322-3.772,10.982-5.659c-0.87,2.083-1.741,4.167-2.612,6.25
	c3.197-1.336,6.395-2.673,9.592-4.009c-0.357,2.003-0.715,4.006-1.072,6.009c3.171-7.217,12.978-10.388,19.648-6.353
	c3.874,2.344,6.415,6.52,7.753,10.906c1.337,4.386,1.601,9.026,1.856,13.611C699.895,352.14,700.954,340.389,697.939,329.354z"/>
<path fill="#2F2E41" d="M355.823,643.873c-0.068-0.188-0.13-0.378-0.196-0.567c-0.133,0.117-0.26,0.237-0.403,0.347L355.823,643.873
	z"/>
<path fill="#2F2E41" d="M428.318,615.72c-0.357-7.063-3.72-13.637-9.239-18.06c-2.006-1.586-4.326-2.926-5.653-5.11
	c-0.758-1.547-1.399-3.148-1.921-4.79c-2.642-6.288-10.171-9.63-16.925-8.678s-12.6,5.495-16.536,11.064
	c-5.606-2.686-12.328-0.318-15.014,5.287c-1.158,2.417-1.416,5.169-0.727,7.759c-3.497-2.817-9.155-0.563-11.338,3.361
	c-2.184,3.925-1.837,8.728-1.188,13.172c1.176,8.032,3.135,15.93,5.849,23.58c3.405-2.999,3.196-8.46,2.779-13.076
	c-0.432-4.797-0.173-10.652,4.021-13.02c4.052-2.286,8.97,0.225,13.438,1.522c7.149,2.025,14.826,0.817,21.008-3.305
	c2.328-1.574,4.399-3.547,6.908-4.813c2.51-1.266,5.702-1.705,8.038-0.143c2.133,1.427,3.001,4.087,3.727,6.549
	c1.72,5.833,3.44,11.667,5.16,17.501C425.814,629.631,428.585,622.787,428.318,615.72z"/>
<path fill="#2F2E41" d="M157.107,330.059c0.283-3.017,0.413-6.047,0.389-9.077c0.165-5.993-0.933-11.954-3.223-17.495
	c-2.816-6.135-7.837-10.986-14.066-13.589c-6.174-2.49-13.073-2.484-19.243,0.017c-5.57-3.519-11.759-6.309-18.276-6.655
	c-6.518-0.345-13.409,2.073-17.425,7.396c-0.897,1.405-1.916,2.728-3.044,3.955c-3.229,2.99-8.135,2.559-12.427,1.947
	c1.925,1.65,3.85,3.299,5.776,4.949c-2.33,0.608-4.66,1.217-6.99,1.826c2.719,1.649,5.438,3.298,8.157,4.947
	c-7.894,4.738-11.481,15.079-10.534,24.47c0.897,8.892,5.189,17.022,10.321,24.25c2.047-4.32,1.606-9.489,1.572-14.354
	c-0.019-1.578,0.078-3.156,0.288-4.72c17.342,4.157,35.463,6.825,53.84,0.223l3.688-9.026c0.518,0.053,1.036,0.103,1.553,0.158
	l2.137,8.876c4.844,1.98,9.698,3.71,14.554,1.892c0.236,1.371,0.378,2.77,0.488,4.115c0.417-1.608,0.778-3.229,1.104-4.856
	c0.642-0.344,1.256-0.737,1.838-1.174C157.702,335.432,157.542,332.727,157.107,330.059z"/>
</svg>
