<?xml version="1.0" encoding="utf-8"?>
<!-- Generator: Adobe Illustrator 16.0.3, SVG Export Plug-In . SVG Version: 6.00 Build 0)  -->
<!DOCTYPE svg PUBLIC "-//W3C//DTD SVG 1.1//EN" "http://www.w3.org/Graphics/SVG/1.1/DTD/svg11.dtd">
<svg version="1.1" id="Capa_1" xmlns="http://www.w3.org/2000/svg" xmlns:xlink="http://www.w3.org/1999/xlink" x="0px" y="0px"
	 width="930.258px" height="652px" viewBox="0 0 930.258 652" enable-background="new 0 0 930.258 652" xml:space="preserve">
<title>flowers</title>
<polygon fill="#F2F2F2" points="560,652 0,652 0,4 560,178 "/>
<rect x="52.129" y="423" fill="#3F3D56" width="440" height="205"/>
<circle fill="#73D629" cx="396.839" cy="323.463" r="61.186"/>
<line fill="none" stroke="#3F3D56" stroke-width="2" stroke-miterlimit="10" x1="396.284" y1="434.113" x2="396.786" y2="323.126"/>
<circle fill="#3F3D56" cx="396.786" cy="323.126" r="15.695"/>
<path fill="#3F3D56" d="M396.477,391.53c0,0-2.024-48.235-48.014-42.837"/>
<circle fill="#73D629" cx="140.523" cy="200.62" r="61.186"/>
<line fill="none" stroke="#3F3D56" stroke-width="2" stroke-miterlimit="10" x1="137.059" y1="426.503" x2="140.581" y2="200.553"/>
<circle fill="#3F3D56" cx="140.581" cy="200.553" r="15.695"/>
<path fill="#3F3D56" d="M139.584,264.465c0,0-1.491-48.254-47.537-43.365"/>
<path fill="none" stroke="#3F3D56" stroke-width="2" stroke-miterlimit="10" d="M137.126,422.188c0,0,11.534-92.567-46.686-97.96"/>
<circle fill="#3F3D56" cx="90.44" cy="324.229" r="15.695"/>
<circle fill="#73D629" cx="272.103" cy="64.785" r="61.186"/>
<line fill="none" stroke="#3F3D56" stroke-width="2" stroke-miterlimit="10" x1="272.141" y1="435.216" x2="272.141" y2="65.01"/>
<circle fill="#3F3D56" cx="272.141" cy="64.834" r="15.695"/>
<circle fill="#3F3D56" cx="223.934" cy="332.681" r="15.695"/>
<path fill="#3F3D56" d="M272.141,145.007c0,0-2.242-48.225-48.207-42.62"/>
<path fill="#3F3D56" d="M272.141,281.719c0,0-2.242-48.225-48.207-42.62"/>
<path fill="none" stroke="#3F3D56" stroke-width="2" stroke-miterlimit="10" d="M272.141,430.901c0,0,10.09-93.736-48.207-98.221"/>
<circle fill="#3F3D56" cx="321.312" cy="185.452" r="15.695"/>
<path fill="none" stroke="#3F3D56" stroke-width="2" stroke-miterlimit="10" d="M273.104,278.673c0,0-10.09-88.737,48.208-93.221"/>
<path fill="#3F3D56" d="M403,150c-12.15,0-22-9.85-22-22s9.85-22,22-22s22,9.85,22,22C424.986,140.145,415.145,149.986,403,150z
	 M403,108c-11.046,0-20,8.954-20,20s8.954,20,20,20s20-8.954,20-20C422.987,116.959,414.04,108.013,403,108z"/>
<path fill="#3F3D56" d="M57,44c-12.15,0-22-9.85-22-22S44.85,0,57,0s22,9.85,22,22C78.986,34.145,69.145,43.986,57,44z M57,2
	c-11.046,0-20,8.954-20,20s8.954,20,20,20s20-8.954,20-20C76.987,10.959,68.041,2.013,57,2z"/>
<path fill="#3F3D56" d="M560,370c-12.15,0-22-9.85-22-22s9.85-22,22-22s22,9.85,22,22C581.987,360.145,572.145,369.986,560,370z
	 M560,328c-11.047,0-20,8.954-20,20s8.953,20,20,20c11.045,0,20-8.954,20-20C579.987,336.959,571.04,328.013,560,328z"/>
<circle fill="#3F3D56" cx="467" cy="185" r="13"/>
<circle fill="#3F3D56" cx="569" cy="422" r="13"/>
<path fill="#3F3D56" d="M560,652V423h-93c0,107.144-86.857,194-194,194c-107.143,0-194-86.856-194-194H0v229H560z"/>
<path fill="#73D629" d="M273,617c107.144,0,194-86.856,194-194H79C79,530.144,165.857,617,273,617z"/>
<path fill="#3F3D56" d="M823.784,504.557c95.607-48.361,133.908-165.072,85.547-260.68L563.104,419.01
	C611.465,514.617,728.176,552.918,823.784,504.557z"/>
<linearGradient id="SVGID_1_" gradientUnits="userSpaceOnUse" x1="601.5308" y1="478.7305" x2="601.5308" y2="490.8896" gradientTransform="matrix(1 0 0 -1 227.1294 633)">
	<stop  offset="0" style="stop-color:#808080;stop-opacity:0.25"/>
	<stop  offset="0.5351" style="stop-color:#808080;stop-opacity:0.12"/>
	<stop  offset="1" style="stop-color:#808080;stop-opacity:0.1"/>
</linearGradient>
<path fill="url(#SVGID_1_)" d="M830.795,143.503c0.645-0.438,1.268-0.905,1.873-1.393c-1.262,3.777-3.295,7.251-5.971,10.2l0,0
	c-0.627,0.69-1.295,1.335-1.982,1.959c-0.012-0.158-0.027-0.316-0.037-0.475c-0.078-1.53,0.033-3.14,0.053-4.715
	C827.116,147.659,829.18,145.761,830.795,143.503z"/>
<path fill="#2F2E41" d="M840.178,87.711c4.973-8.383,2.209-19.211-6.174-24.185s-19.209-2.209-24.184,6.173
	c-2.18,3.672-2.953,8.01-2.178,12.209c-10.318,4.914-16.674,15.545-16.119,26.96c-8.553,13.129-4.844,30.707,8.287,39.26
	c13.129,8.553,30.707,4.843,39.26-8.287c3.002-4.608,4.6-9.989,4.6-15.488c0-0.452-0.014-0.902-0.035-1.349
	C850.883,111.88,849.448,97.217,840.178,87.711z"/>
<g opacity="0.1">
	<path d="M807.409,77.429c0.08-0.039,0.156-0.083,0.234-0.121c-0.057-0.306-0.096-0.616-0.135-0.927
		c-0.01,0.065-0.021,0.128-0.029,0.193C807.446,76.86,807.43,77.144,807.409,77.429z"/>
	<path d="M848.032,106.314c-0.516,4.314-2.021,8.451-4.396,12.089c0.021,0.447,0.035,0.896,0.035,1.349
		c0.002,15.668-12.699,28.372-28.367,28.374c-14.785,0.002-27.092-11.351-28.283-26.087c-0.061,0.764-0.1,1.535-0.1,2.314
		c0,15.671,12.705,28.374,28.375,28.374s28.375-12.703,28.375-28.374c0-0.452-0.014-0.902-0.035-1.349
		c3.441-5.272,5.023-11.542,4.5-17.815C848.104,105.564,848.077,105.938,848.032,106.314z"/>
	<path d="M842.506,76.362c-0.307,2.385-1.1,4.681-2.328,6.748c0.496,0.51,0.965,1.044,1.422,1.588
		C842.567,82.032,842.877,79.173,842.506,76.362z"/>
</g>
<path fill="#FBBEBE" d="M725.836,392.135c0.137,1.614,0.574,3.189,1.289,4.643c0.742,1.467,2.141,2.49,3.762,2.754
	c1.471,0.009,2.914-0.409,4.15-1.203c2.527-1.319,5.148-2.854,6.467-5.38c1.277-2.446,1.094-5.365,0.877-8.116l-1.695-21.637
	c-4.086-0.111-8.193-0.109-12.275,0.112c-4.045,0.221-4.754,1.173-4.191,5.122C725.34,376.287,724.793,384.27,725.836,392.135z"/>
<path fill="#FBBEBE" d="M845.729,406.758l9.725,15.71c0.418,0.914,1.176,1.628,2.115,1.988c0.697,0.102,1.408-0.022,2.031-0.353
	c3.242-1.418,5.725-4.108,8.105-6.727c1.617-1.776,3.287-3.649,3.895-5.973c0.637-2.563-0.098-5.271-1.943-7.16
	c-1.135-0.988-2.363-1.865-3.666-2.62c-7.688-5.185-11.156-15.034-18.744-20.362c-0.438-0.363-0.971-0.593-1.537-0.66
	c-0.564,0.033-1.109,0.216-1.578,0.529c-3.459,1.896-6.916,3.791-10.375,5.686c-4.49,2.458-3.066,2.746,0.344,5.394
	C839.125,396.108,842.264,401.56,845.729,406.758z"/>
<path fill="#2F2E41" d="M746.944,379.621c-1.424-0.449-3.021-0.854-4.363-0.199c-1.273,0.777-2.113,2.102-2.273,3.585
	c-0.271,1.444-0.238,2.942-0.639,4.355c-0.676,2.383-2.492,4.245-4.242,5.997c-0.707,0.844-1.627,1.484-2.662,1.854
	c-1.402,0.359-2.895-0.297-4.32-0.048c-1.691,0.435-3.004,1.771-3.406,3.473c-0.371,1.674-0.428,3.401-0.166,5.095l1.104,12.06
	c0.193,1.47,0.209,2.958,0.045,4.431c-0.408,2.651-1.947,4.978-2.803,7.52s-0.807,5.788,1.332,7.405
	c1.518,1.012,3.447,1.182,5.119,0.451c1.637-0.739,3.088-1.84,4.238-3.22c6.551-7.142,9.475-16.815,14.568-25.059
	c1.299-1.906,2.463-3.903,3.48-5.975c0.699-1.602,1.143-3.3,1.709-4.953c0.781-2.209,1.719-4.359,2.805-6.436
	c0.605-1.188,2.926-4.047,2.438-5.373C758.077,382.322,749.149,380.316,746.944,379.621z"/>
<path fill="#2F2E41" d="M865.036,412.883c-1.475,2.764-3.934,4.872-6.891,5.905c-0.857,0.231-1.656,0.645-2.342,1.212
	c-0.92,1.122-1.08,2.685-0.41,3.972c0.678,1.246,1.559,2.37,2.605,3.326c5.879,6.221,9.768,14.057,11.166,22.501
	c0.35,2.131,0.576,4.396,1.852,6.139c2.49,3.403,7.793,3.181,11.539,1.24c1.143-0.523,2.137-1.329,2.885-2.34
	c0.625-1.096,1.021-2.306,1.168-3.559c0.676-3.104,1.049-6.268,1.113-9.443c-0.072-5.996-2.324-11.728-3.4-17.626
	c-1.525-8.371-0.762-17.388-4.66-24.952c-0.389-0.888-1.002-1.659-1.779-2.237c-0.975-0.513-2.068-0.758-3.17-0.712
	c-3.523-0.144-7.047-0.175-10.574-0.093c-0.986,0.022-2.143,0.147-2.654,0.993c-0.523,0.864-0.066,1.968,0.395,2.867
	C864.059,404.347,867.596,407.761,865.036,412.883z"/>
<path fill="#2F2E41" d="M781.372,262.835c-2.033,1.678-2.57,4.572-1.277,6.868c0.781,1.294,2.184,2.499,1.875,3.979
	c-0.318,1.536-2.207,2.058-3.756,2.304c-13.656,2.172-26.943,6.169-40.184,10.156l-13.889,4.182
	c-4.004,1.206-8.078,2.444-11.539,4.792c-3.174,2.164-5.686,5.165-7.258,8.671c-1.588,3.56-2.133,7.481-2.699,11.337
	c-2.086,14.192-4.75,28.524-11.082,41.395l33.684,11.044c3.266,1.199,6.648,2.051,10.092,2.541c3.283,0.271,6.588,0.112,9.83-0.477
	c-0.209-7.521-0.336-15.269-0.545-22.79c-0.023-2.376-0.178-4.748-0.463-7.106c-0.506-3.604-1.623-7.11-1.973-10.733
	c1.555-1.282,3.813-0.963,5.826-0.904c4.596,0.134,9.082-1.464,13.168-3.569s7.887-4.729,11.949-6.878
	c6.771-3.58,14.471-5.988,19.639-11.641c-2.633,10.034-8.852,18.777-10.055,29.081c-1.215,10.409,3.021,20.597,7.168,30.222
	l13.252,30.753c1.463,3.396,3.412,7.212,7.02,8.022c2.246,0.504,4.566-0.339,6.652-1.316c12.195-5.712,21.953-16.45,34.975-19.885
	c-0.971-6.447-6.064-11.779-8.951-17.627c-2.434-4.932-3.229-10.486-4.85-15.741c-1.623-5.256-4.408-10.581-9.309-13.079
	c-2.326-1.187-5.461-2.219-5.678-4.821c-0.016-0.835,0.162-1.663,0.518-2.42c1.744-4.391,4.453-8.334,7.926-11.538
	c0.447-0.345,0.805-0.792,1.043-1.304c0.129-0.507,0.154-1.035,0.076-1.552c-0.246-4.187,1.996-8.104,4.498-11.471
	c2.502-3.367,5.391-6.572,6.801-10.522c2.426-6.792,0.02-14.256-2.379-21.059c-0.969-2.749-1.986-5.583-3.979-7.713
	c-3.119-3.339-7.98-4.302-12.523-4.8C810.284,257.623,793.045,253.772,781.372,262.835z"/>
<g opacity="0.1">
	<path d="M779.842,264.866c1.006-0.205,1.822-0.941,2.127-1.921c0.039-0.188,0.051-0.381,0.035-0.573
		c-0.211,0.153-0.426,0.302-0.633,0.463C780.696,263.371,780.17,264.07,779.842,264.866z"/>
</g>
<path fill="#FBBEBE" d="M804.584,156.385c0.176,3.355-0.836,6.946-3.416,9.099c-0.828,0.69-1.789,1.214-2.584,1.94
	c-2.691,2.763-2.631,7.184,0.133,9.875c0.275,0.269,0.572,0.514,0.889,0.733c2.678,1.634,6.084,1.193,9.174,0.657
	c4.123-0.577,8.164-1.631,12.043-3.143c3.9-1.532,7.223-4.252,9.492-7.774c-3.365-1.876-5.199-5.818-5.402-9.667
	c-0.205-3.854,0.852-8.227-1.59-11.216c-2.35-2.879-6.771-2.857-10.355-1.87c-1.797,0.496-3.539,1.182-5.34,1.667
	c-0.912,0.246-3.926,0.252-4.521,0.924C802.022,148.833,804.485,154.444,804.584,156.385z"/>
<path opacity="0.1" enable-background="new    " d="M804.584,156.385c0.176,3.355-0.836,6.946-3.416,9.099
	c-0.828,0.69-1.789,1.214-2.584,1.94c-2.691,2.763-2.631,7.184,0.133,9.875c0.275,0.269,0.572,0.514,0.889,0.733
	c2.678,1.634,6.084,1.193,9.174,0.657c4.123-0.577,8.164-1.631,12.043-3.143c3.9-1.532,7.223-4.252,9.492-7.774
	c-3.365-1.876-5.199-5.818-5.402-9.667c-0.205-3.854,0.852-8.227-1.59-11.216c-2.35-2.879-6.771-2.857-10.355-1.87
	c-1.797,0.496-3.539,1.182-5.34,1.667c-0.912,0.246-3.926,0.252-4.521,0.924C802.022,148.833,804.485,154.444,804.584,156.385z"/>
<circle fill="#FBBEBE" cx="814.913" cy="136.24" r="19.939"/>
<path fill="#FBBEBE" d="M751.952,289.213c-0.359,1.575-0.994,3.074-1.877,4.427c-2.326,4.131-3.166,8.933-2.381,13.607
	c0.855,4.707,3.998,8.679,8.381,10.594c1.867,0.735,4.18,0.929,5.719-0.358c-2.664-3.465-2.805-8.196-2.646-12.564
	c-0.045-0.815,0.148-1.626,0.559-2.332c0.441-0.678,1.35-0.87,2.027-0.429c0.027,0.017,0.053,0.036,0.078,0.055
	c-0.066,2.75,0.465,5.482,1.559,8.006c0.422,0.971,1.143,2.043,2.201,2.016c1.518-0.04,1.928-2.096,1.869-3.613
	c-0.234-6.184-0.537-12.625-3.518-18.048c-1.092-1.985-2.547-3.849-2.961-6.076c-0.02-0.772-0.287-1.518-0.762-2.126
	c-0.33-0.258-0.713-0.437-1.123-0.522c-1.715-0.485-5.777-1.996-7.195-0.387C750.364,283.186,752.225,287.152,751.952,289.213z"/>
<path fill="#D0CDE1" d="M781.563,183.275c-2.287-0.257-4.092,1.835-5.346,3.766c-4.666,7.197-8.025,15.162-9.924,23.528
	c-0.965,4.27-1.572,8.705-3.6,12.585c-0.486,0.805-0.881,1.665-1.17,2.561c-0.174,1.368-0.234,2.748-0.184,4.126
	c-0.211,2.492-1.684,4.705-2.178,7.156c-0.295,1.46-0.234,2.973-0.496,4.44c-0.459,2.569-1.871,4.854-2.775,7.303
	c-1.59,4.312-1.574,9.045-2.746,13.489c-0.143,0.732-0.459,1.42-0.924,2.004c-0.793,0.871-2.061,1.084-3.098,1.643
	c-1.652,1.011-2.787,2.687-3.113,4.596c-0.311,1.887-0.346,3.81-0.107,5.707l0.918,11.794c0.943-0.396,1.561-1.465,2.348-2.12
	c1.443-1.198,3.559-0.93,5.404-0.595l2.688,0.487c2.748,0.499,5.738,1.133,7.502,3.3c1.4-2.191,0.6-5.42,2.752-6.878
	c0.701-0.475,1.568-0.635,2.307-1.047c1.412-0.914,2.287-2.458,2.348-4.139c0.041-1.654-0.186-3.304-0.676-4.885
	c3.453-1.458,5.594-4.953,6.943-8.448c1.486-4.23,2.561-8.594,3.211-13.03c3.117-17.527,5.969-35.18,6.252-52.979
	c0.195-2.978-0.133-5.966-0.971-8.83C785.944,185.997,784.522,183.607,781.563,183.275z"/>
<path fill="#D0CDE1" d="M831.831,164.187c-3.291,3.452-7.498,5.895-12.127,7.043c-4.605,1.132-9.307,1.825-14.043,2.069
	c-1.457,0.244-2.951,0.115-4.344-0.375c-1.338-0.606-2.355-2.192-1.811-3.557c0.264-0.422,0.441-0.892,0.523-1.383
	c-0.023-1.214-1.811-1.315-2.971-0.956c-7.676,2.374-15.037,7.075-18.578,14.286c-2.002,4.074-2.662,8.654-3.297,13.148
	c-1.668,11.82-3.332,23.896-1.096,35.622c1.193,6.252,3.486,12.347,3.631,18.71c0.08,3.566-0.521,7.118-0.494,10.685
	c-0.105,1.249,0.229,2.496,0.945,3.525c0.553,0.642,1.385,1.046,1.77,1.8c0.645,1.26-0.217,2.99,0.631,4.124
	c1.045,1.396,3.225,0.394,4.664-0.591c7.234-4.914,15.973-7.113,24.672-6.211c10.449,1.122,20.834,6.691,30.969,3.908
	c-0.521-0.761-0.973-1.568-1.346-2.413c-5.053-16.606-4.711-35.168,2.852-50.792c2.584-5.337,6.014-10.424,7.004-16.271
	c0.398-2.735,0.43-5.511,0.094-8.254c-0.533-5.308-1.797-10.66-4.682-15.147S837.139,164.712,831.831,164.187z"/>
<path fill="#FBBEBE" d="M783.592,294.345c-0.813,2.168-1.201,4.472-1.148,6.786c-0.074,2.214,0.035,4.431,0.33,6.626
	c0.17,1.877,0.838,3.674,1.938,5.205c1.15,1.54,3.113,2.238,4.977,1.77c1.453-0.604,2.557-1.831,3.004-3.339
	c0.43-1.489,0.744-3.009,0.941-4.546c0.875-4.526,3.252-8.774,3.293-13.383c0.033-0.547-0.055-1.094-0.254-1.604
	c-0.865-1.895-5.1-4.021-7.168-3.702C786.915,288.557,784.532,292.156,783.592,294.345z"/>
<path opacity="0.1" enable-background="new    " d="M841.131,181.02c-0.395,3.964,3.441,6.953,4.957,10.637
	c0.619,1.72,0.973,3.524,1.045,5.351c1.066,12.676,0.238,25.426-0.59,38.12c-0.15,4.226-0.674,8.43-1.566,12.563
	c-2.139,8.674-7.404,16.194-12.564,23.488c-1.771,2.924-4.484,5.161-7.693,6.345l-17.703,8.576
	c-2.217,0.979-4.326,2.191-6.287,3.616c-2.279,1.785-4.068,4.116-5.207,6.777c-3.434-1.755-7-3.331-10.436-5.086
	c-0.803-0.411-1.703-0.947-1.842-1.839c-0.186-1.197,1.066-2.042,1.926-2.894c1.611-1.594,2.107-3.956,2.98-6.048
	c2.85-6.833,10.016-11.206,12.6-18.143c0.994-2.666,1.297-5.679,3.059-7.913c1.008-1.12,2.141-2.121,3.377-2.981
	c2.73-2.316,5.236-4.883,7.488-7.666c1.012-1.05,1.84-2.262,2.449-3.586c0.773-1.969,0.543-4.164,0.582-6.279
	c0.133-6.924,3.264-13.381,5.18-20.036c1.805-6.267,2.559-12.841,4.926-18.917C830.178,189.031,834.817,182.654,841.131,181.02z"/>
<path fill="#D0CDE1" d="M843.432,181.02c-0.395,3.964,3.439,6.953,4.957,10.637c0.619,1.72,0.973,3.524,1.045,5.351
	c1.066,12.676,0.238,25.426-0.59,38.12c-0.15,4.226-0.674,8.43-1.566,12.563c-2.139,8.674-7.404,16.194-12.564,23.488
	c-1.771,2.924-4.484,5.161-7.693,6.345l-17.703,8.576c-2.219,0.979-4.326,2.191-6.289,3.616c-2.277,1.785-4.066,4.116-5.205,6.777
	c-3.434-1.755-7-3.331-10.436-5.086c-0.803-0.411-1.703-0.947-1.842-1.839c-0.186-1.197,1.064-2.042,1.926-2.894
	c1.611-1.594,2.107-3.956,2.98-6.048c2.85-6.833,10.016-11.206,12.6-18.143c0.994-2.666,1.297-5.679,3.059-7.913
	c1.008-1.12,2.141-2.121,3.377-2.981c2.73-2.316,5.236-4.883,7.488-7.666c1.012-1.05,1.84-2.262,2.449-3.586
	c0.773-1.969,0.543-4.164,0.582-6.279c0.133-6.924,3.264-13.381,5.18-20.036c1.805-6.267,2.559-12.841,4.926-18.917
	C832.479,189.031,837.118,182.654,843.432,181.02z"/>
<path fill="#2F2E41" d="M824.799,105.417c-6.143-0.751-12.363,0.537-17.703,3.665c0.787,0.029,1.578,0.083,2.373,0.179
	c15.557,1.878,26.645,16.012,24.766,31.569c-1.064,8.818-6.197,16.629-13.869,21.105c15.658,0.571,28.814-11.659,29.387-27.317
	C850.29,119.877,839.444,107.184,824.799,105.417z"/>
<path fill="#2F2E41" d="M833.528,121.19c1.393,3.151,1.473,6.727,0.225,9.938c-0.135-0.411-0.289-0.814-0.465-1.21
	c-3.508-7.804-14.313-11.034-24.131-7.215c-5.785,2.25-9.938,6.445-11.656,11.107c-2.5-7.544,2.578-16.211,11.896-19.835
	C819.217,110.156,830.02,113.386,833.528,121.19z"/>
<g opacity="0.1">
	<path d="M833.583,130.509c-0.926-11.189-8.357-20.783-18.961-24.478c-2.643,0.65-5.176,1.678-7.525,3.051
		c0.787,0.03,1.578,0.083,2.373,0.179C821.129,110.671,830.717,119.119,833.583,130.509z"/>
	<path d="M838.184,109.804c-0.926-11.19-8.357-20.784-18.961-24.479c-2.643,0.65-5.176,1.678-7.525,3.051
		c0.787,0.029,1.576,0.083,2.373,0.179C825.731,89.965,835.319,98.413,838.184,109.804z"/>
	<path d="M838.301,78.877c-0.559-6.753-5.045-12.543-11.443-14.773c-1.594,0.393-3.123,1.013-4.541,1.841
		c0.475,0.018,0.951,0.05,1.432,0.108C830.786,66.905,836.571,72.003,838.301,78.877z"/>
	<path d="M848.915,126.665c1.139,14.066-8.223,26.835-21.98,29.977c-1.916,2.08-4.129,3.863-6.568,5.293
		c15.658,0.572,28.814-11.656,29.387-27.313C849.85,131.942,849.567,129.264,848.915,126.665L848.915,126.665z"/>
</g>
<line fill="none" stroke="#6C63FF" stroke-width="2" stroke-miterlimit="10" x1="760.657" y1="308.469" x2="756.987" y2="197.541"/>
<circle fill="#73D629" cx="756.987" cy="197.541" r="15.695"/>
<path fill="#73D629" d="M759.249,265.908c0,0-3.836-48.125-49.59-41.002"/>
</svg>
