<?xml version="1.0" encoding="utf-8"?>
<!-- Generator: Adobe Illustrator 16.0.3, SVG Export Plug-In . SVG Version: 6.00 Build 0)  -->
<!DOCTYPE svg PUBLIC "-//W3C//DTD SVG 1.1//EN" "http://www.w3.org/Graphics/SVG/1.1/DTD/svg11.dtd">
<svg version="1.1" id="Capa_1" xmlns="http://www.w3.org/2000/svg" xmlns:xlink="http://www.w3.org/1999/xlink" x="0px" y="0px"
	 width="1000px" height="1000px" viewBox="0 0 1000 1000" enable-background="new 0 0 1000 1000" xml:space="preserve">
<path fill="#F2F2F2" d="M823.25,362c0,6.65-0.181,13.253-0.54,19.81c-1.308,24.513-5.113,48.83-11.36,72.57
	c-0.01,0.01-0.01,0.01,0,0.021c-0.82,3.14-1.69,6.27-2.61,9.369c-0.04,0.15-0.08,0.29-0.13,0.431
	c-1.359,4.649-2.813,9.257-4.359,13.819v0.011c-49.833,147.004-187.779,245.927-343,245.97c-171.23,0-314.68-118.87-352.34-278.6
	c-6.438-27.333-9.68-55.32-9.66-83.4c0-5.58,0.127-11.13,0.38-16.65c3.001-67.482,24.918-132.76,63.25-188.38
	c0.46-0.68,0.93-1.36,1.41-2.03C229.709,61.27,338.33,0,461.25,0C634.97,0,780.1,122.36,815.16,285.6
	c0.005,0.005,0.009,0.012,0.01,0.02c2.26,10.52,4.053,21.2,5.38,32.04C822.355,332.371,823.257,347.179,823.25,362z"/>
<path fill="#F0F0F0" d="M917.516,665.621c-2.704,9.775-6.925,19.064-12.51,27.53c-12.48,18.87-30.341,33.3-49.971,44.851
	c-1.359,0.81-2.739,1.6-4.119,2.38h-13.771l-0.479-1.101v-0.01l-0.561-1.27l-0.07-0.15l-0.029,0.15l-0.551,2.38h-6.76
	c-0.56-0.79-1.109-1.58-1.649-2.38c-0.79-1.171-1.551-2.351-2.271-3.551c-1.271-2.099-2.406-4.276-3.399-6.52
	c-0.12-0.25-0.221-0.5-0.32-0.75l0.45-0.49l-1.87-8.18l3.76-0.62l-4.12-12.71c0.15-0.47,0.32-0.94,0.5-1.41
	c2.311-5.85,6.65-10.22,11.8-13.89c5.301-3.79,11.471-6.83,17.141-9.99c2.66-1.49,5.279-3.061,7.83-4.72v-0.011
	c3.26-2.109,6.423-4.366,9.489-6.77c0.053-0.033,0.103-0.07,0.15-0.11c0.042-0.03,0.082-0.063,0.12-0.1
	c13.748-10.741,25.382-23.941,34.31-38.93c0.006,0,0.01-0.005,0.011-0.01v-0.001c0.3-0.479,0.579-0.96,0.859-1.449v-0.011
	c3.656-6.288,6.803-12.859,9.41-19.649v-0.011c0.2-0.5,0.38-1,0.57-1.5c0.26,0.44,0.51,0.881,0.75,1.32
	c0.005,0,0.01,0.004,0.01,0.01l0,0C921.926,625.302,922.846,646.201,917.516,665.621z"/>
<path fill="#FFFFFF" d="M912.226,607.951c0.097,9.26-0.866,18.5-2.87,27.54c-0.9,4.138-2.022,8.224-3.36,12.24
	c-2.597,7.859-5.991,15.432-10.13,22.6c-0.229,0.391-0.449,0.771-0.689,1.15v0.01c-1.77,2.982-3.688,5.873-5.75,8.66
	c-3.121,4.44-6.977,8.316-11.4,11.46c-3.613,2.388-7.7,3.967-11.979,4.63c-0.801,0.15-1.62,0.261-2.45,0.36
	c-3.311,0.39-6.73,0.54-10.01,1.24c-1.662,0.328-3.279,0.848-4.82,1.55c-5.28,2.45-8.25,7.58-9.551,13.06
	c-0.229,0.96-0.409,1.931-0.55,2.9c-1.09,7.45,0.11,15.189-0.51,22.65c-0.069,0.789-0.16,1.59-0.27,2.38h-0.74l-0.48-1.101v-0.01
	c0.05-0.42,0.091-0.84,0.13-1.27c0.24-3.666,0.271-7.342,0.091-11.011c-0.04-1.649-0.07-3.31-0.05-4.97
	c0.02-1.33,0.069-2.66,0.17-3.979v-0.011c0.069-0.819,0.149-1.63,0.26-2.439c0.317-2.48,0.929-4.914,1.82-7.25
	c1.759-4.869,5.514-8.755,10.319-10.681c1.451-0.544,2.947-0.962,4.471-1.25c3.35-0.64,6.81-0.8,10.18-1.22
	c0.36-0.04,0.72-0.09,1.07-0.149c0.449-0.07,0.89-0.15,1.329-0.23c4.41-0.782,8.574-2.588,12.16-5.27
	c4.262-3.374,7.967-7.396,10.98-11.921c1.64-2.35,3.2-4.75,4.649-7.22c0-0.005,0.005-0.01,0.01-0.01h0.001
	c0.069-0.12,0.14-0.23,0.21-0.35l0.01-0.021c6.22-10.629,10.76-22.154,13.46-34.17c0.09-0.44,0.19-0.88,0.29-1.32
	c1.856-8.675,2.751-17.528,2.67-26.399v-0.011c0-0.42-0.01-0.829-0.02-1.25c-0.021-0.859,1.31-1.05,1.329-0.189
	c0.011,0.42,0.021,0.84,0.011,1.26C912.221,607.941,912.226,607.945,912.226,607.951L912.226,607.951z"/>
<path fill="#FFFFFF" d="M894.604,671.21c7.87,3.998,17.478,1.705,22.694-5.415c0.509-0.699-0.554-1.523-1.063-0.822
	c-4.848,6.642-13.812,8.762-21.12,4.994C894.346,669.571,893.84,670.817,894.604,671.21L894.604,671.21z"/>
<path fill="#FFFFFF" d="M866.584,695.21c-2.785-8.281-2.346-17.308,1.229-25.279c0.354-0.79-0.89-1.299-1.243-0.51
	c-3.705,8.302-4.143,17.696-1.227,26.308C865.622,696.549,866.861,696.026,866.584,695.21z"/>
<path fill="#FFFFFF" d="M908.612,634.654c-3.313-0.897-5.951-3.399-7.022-6.659c-0.269-0.824-1.507-0.3-1.24,0.519
	c1.2,3.595,4.104,6.36,7.752,7.384c0.344,0.128,0.728-0.032,0.877-0.366C909.117,635.188,908.954,634.797,908.612,634.654
	L908.612,634.654z"/>
<path fill="#F0F0F0" d="M856.546,675.161v0.011c-0.311,7.141-1.203,14.244-2.67,21.239v0.011c-0.08,0.479-0.19,0.949-0.29,1.42
	c-2.414,10.818-5.798,21.398-10.11,31.609c-1.19,2.881-2.437,5.73-3.74,8.551c-0.359,0.8-0.729,1.59-1.109,2.38h-1.48l-0.479-1.101
	v-0.01l-0.561-1.27l-0.07-0.15l-0.029,0.15l-0.551,2.38h-14.3l-2.779-2.38l-4.051-3.471l5.66-6.18l0.93-1.02l0.141-0.15l0.45-0.49
	l-1.87-8.18l3.76-0.62l-4.12-12.71l-1.95-6.01l-0.489-1.511l-2.851-8.79l-8.6,1.61l-1.4-4.899c2.578-5.976,4.724-12.128,6.42-18.41
	c0.01-0.051,0.03-0.09,0.04-0.141c4.544-16.922,5.906-34.54,4.02-51.96v-0.01c-0.06-0.56-0.13-1.13-0.21-1.68v-0.021
	c-0.856-7.219-2.302-14.355-4.319-21.34c-0.141-0.53-0.3-1.05-0.45-1.57c0.46,0.2,0.91,0.391,1.37,0.591l0.01,0.01h0.021
	c0.729,0.319,1.46,0.66,2.17,1.02c17.06,8.29,29.609,23.851,36.739,41.79c0.021,0.05,0.04,0.09,0.061,0.141
	c3.72,9.404,5.938,19.336,6.57,29.43C856.665,667.337,856.705,671.252,856.546,675.161z"/>
<path fill="#FFFFFF" d="M830.596,740.382h-1.58c-0.5-0.811-1.04-1.601-1.58-2.38c-0.86-1.211-1.747-2.394-2.66-3.551
	c-0.79-1-1.58-1.989-2.37-2.979c-0.819-1.03-1.63-2.061-2.42-3.12l0.931-1.021c0.149,0.2,0.3,0.4,0.46,0.601
	c2.56,3.37,5.329,6.609,7.699,10.07C829.605,738.781,830.115,739.571,830.596,740.382z"/>
<path fill="#FFFFFF" d="M809.153,591.01c0.261,0.33,0.53,0.671,0.78,1.011c1.95,2.529,3.793,5.14,5.53,7.83
	c3.093,4.746,5.84,9.709,8.22,14.85c0.19,0.4,0.38,0.81,0.561,1.22c5.092,11.233,8.412,23.189,9.84,35.44
	c0.02,0.12,0.029,0.229,0.04,0.35c0.329,2.86,0.543,5.73,0.64,8.61c0.318,5.424-0.218,10.863-1.59,16.12
	c-0.2,0.689-0.42,1.37-0.66,2.03c-0.602,1.617-1.355,3.174-2.25,4.649c-0.644,1.077-1.358,2.109-2.14,3.09
	c-0.471,0.601-0.96,1.19-1.48,1.761c-0.3,0.33-0.61,0.659-0.92,0.989c-0.26,0.25-0.51,0.511-0.771,0.761
	c-2.699,2.619-5.68,5.05-8.119,7.939l0.489,1.51c2.351-2.979,5.38-5.449,8.11-8.05c1.714-1.611,3.273-3.379,4.66-5.28
	c0.18-0.26,0.37-0.52,0.54-0.789c0.927-1.354,1.727-2.79,2.39-4.29c0.34-0.75,0.65-1.521,0.93-2.32c1.634-5.171,2.378-10.581,2.2-16
	c-0.032-3.472-0.239-6.939-0.62-10.39c-0.04-0.45-0.09-0.891-0.149-1.341c-1.015-8.213-2.864-16.302-5.521-24.14
	c-3.361-9.943-7.986-19.414-13.76-28.18c-1.65-2.511-3.4-4.96-5.25-7.351c-0.24-0.33-0.49-0.649-0.75-0.979
	C809.573,589.38,808.624,590.33,809.153,591.01z"/>
<path fill="#FFFFFF" d="M834.907,652.177c8.69-1.547,14.981-9.161,14.859-17.988c-0.008-0.371-0.316-0.665-0.688-0.656
	c-0.353,0.008-0.64,0.288-0.656,0.641c0.128,8.222-5.753,15.312-13.856,16.704C833.714,651.024,834.061,652.323,834.907,652.177
	L834.907,652.177z"/>
<path fill="#FFFFFF" d="M826.984,688.209c-7.209-4.936-12.293-12.406-14.238-20.924c-0.192-0.844-1.492-0.502-1.301,0.342
	c2.041,8.859,7.348,16.623,14.861,21.743C827.022,689.857,827.696,688.694,826.984,688.209z"/>
<path fill="#FFFFFF" d="M824.082,614.555c-3.185,1.278-6.798,0.869-9.616-1.089c-0.71-0.496-1.383,0.668-0.678,1.161
	c3.122,2.147,7.106,2.607,10.636,1.229c0.351-0.104,0.561-0.464,0.479-0.821C824.807,614.677,824.44,614.463,824.082,614.555z"/>
<path fill="#CACACA" d="M633.316,156.974H0.993c-0.561-0.012-1.005-0.477-0.993-1.038c0.012-0.543,0.449-0.981,0.993-0.993h632.323
	c0.561,0.013,1.006,0.477,0.993,1.038C634.298,156.524,633.859,156.962,633.316,156.974z"/>
<ellipse fill="#3F3D56" cx="23.348" cy="131.591" rx="10.925" ry="11.169"/>
<ellipse fill="#3F3D56" cx="61.09" cy="131.591" rx="10.925" ry="11.169"/>
<ellipse fill="#3F3D56" cx="98.833" cy="131.591" rx="10.925" ry="11.169"/>
<path fill="#3F3D56" d="M610.699,123.19h-26.81c-1.121,0.022-2.012,0.949-1.989,2.07c0.021,1.09,0.899,1.968,1.989,1.99h26.81
	c1.121-0.022,2.012-0.949,1.99-2.07C612.668,124.09,611.789,123.212,610.699,123.19z"/>
<path fill="#3F3D56" d="M610.699,130.81h-26.81c-1.121,0.022-2.012,0.949-1.989,2.07c0.021,1.09,0.899,1.968,1.989,1.99h26.81
	c1.121-0.022,2.012-0.949,1.99-2.07C612.668,131.71,611.789,130.832,610.699,130.81z"/>
<path fill="#3F3D56" d="M610.699,138.42h-26.81c-1.121,0.022-2.012,0.949-1.989,2.07c0.021,1.09,0.899,1.968,1.989,1.99h26.81
	c1.121-0.022,2.012-0.949,1.99-2.07C612.668,139.32,611.789,138.441,610.699,138.42z"/>
<path fill="#CCCCCC" d="M166.66,198.35h-28.39c-16.012,31.522-27.283,65.236-33.45,100.05h61.84c8.27,0.014,14.985-6.678,15-14.948
	c0-0.018,0-0.035,0-0.052v-70.06C181.648,205.062,174.938,198.355,166.66,198.35z"/>
<path fill="#CCCCCC" d="M376.97,198.35h-128.63c-8.278,0.005-14.989,6.712-15,14.99v70.06c0.01,8.28,6.72,14.99,15,15h128.63
	c8.28-0.01,14.989-6.72,15-15v-70.06C391.959,205.062,385.248,198.355,376.97,198.35z"/>
<path fill="#CCCCCC" d="M587.279,198.35h-128.63c-8.278,0.005-14.989,6.712-15,14.99v70.06c0.011,8.28,6.72,14.99,15,15h128.63
	c8.28-0.01,14.99-6.72,15-15v-70.06C602.269,205.062,595.558,198.355,587.279,198.35z"/>
<path fill="#CCCCCC" d="M166.66,345.35h-67.03c-0.25,5.52-0.376,11.07-0.38,16.65c-0.02,28.08,3.222,56.067,9.66,83.4h57.75
	c8.28-0.011,14.99-6.721,15-15V360.34C181.648,352.062,174.938,345.355,166.66,345.35z"/>
<path fill="#CCCCCC" d="M376.97,345.35h-128.63c-8.278,0.005-14.989,6.712-15,14.99V430.4c0.01,8.279,6.72,14.989,15,15h128.63
	c8.28-0.011,14.989-6.721,15-15V360.34C391.959,352.062,385.248,345.355,376.97,345.35z"/>
<path fill="#CCCCCC" d="M587.279,345.35h-128.63c-8.278,0.005-14.989,6.712-15,14.99V430.4c0.011,8.279,6.72,14.989,15,15h128.63
	c0.41,0,0.82-0.021,1.23-0.061c1.606-0.118,3.183-0.507,4.66-1.15c5.474-2.342,9.047-7.696,9.109-13.649v-70.2
	C602.269,352.062,595.558,345.355,587.279,345.35z"/>
<circle fill="#73D629" cx="169.344" cy="285.373" r="29.759"/>
<path fill="#FFFFFF" d="M165.285,300.861c-1.042,0-2.023-0.491-2.648-1.324l-8.119-10.825c-1.1-1.46-0.807-3.536,0.654-4.636
	s3.536-0.807,4.635,0.654c0.002,0.003,0.005,0.006,0.007,0.01l5.312,7.082l13.642-20.463c1.011-1.523,3.066-1.938,4.589-0.926
	s1.938,3.066,0.926,4.589c-0.002,0.003-0.004,0.007-0.007,0.01l-16.237,24.356c-0.596,0.894-1.588,1.443-2.663,1.473
	C165.346,300.861,165.315,300.861,165.285,300.861z"/>
<circle fill="#73D629" cx="386.344" cy="288.373" r="29.759"/>
<path fill="#FFFFFF" d="M382.284,303.861c-1.042,0-2.022-0.491-2.647-1.324l-8.119-10.825c-1.097-1.463-0.8-3.538,0.662-4.634
	c1.463-1.097,3.538-0.8,4.635,0.662l5.312,7.082l13.642-20.463c1.015-1.521,3.07-1.932,4.591-0.918
	c1.521,1.014,1.933,3.069,0.918,4.59l-16.237,24.356c-0.596,0.894-1.589,1.443-2.662,1.473
	C382.346,303.861,382.315,303.861,382.284,303.861z"/>
<path fill="#A0616A" d="M811.311,448.735l-9.315-90.164l-2.458-37.108l26.072-4.714c0,0,3.904,25.51,7.319,40.481
	c3.371,14.772-4.49,89.526-4.698,91.498c5.223,4.669,5.67,12.688,1,17.911c-4.67,5.222-12.688,5.67-17.911,1
	c-5.222-4.67-5.67-12.689-1-17.911C810.631,449.379,810.962,449.047,811.311,448.735z"/>
<polygon fill="#A0616A" points="744.583,717.124 731.653,720.08 714.099,671.614 733.182,667.251 "/>
<path fill="#2F2E41" d="M746.92,712.15l-3.301,0.75l-0.34,0.08l-15.09-2.461l-0.439-0.069l-6.301,7.52
	c-8.962,2.051-14.566,10.978-12.52,19.94l0.02,0.09l0.11,0.44l1.92-0.44l39.771-9.1L746.92,712.15z"/>
<polygon fill="#A0616A" points="821.665,725.578 808.401,725.578 802.092,674.418 821.667,674.419 "/>
<path fill="#2F2E41" d="M821.319,721.25l-1.16-0.47l-13-5.29l-0.42-0.17l-7.81,5.93c-9.192-0.003-16.646,7.446-16.65,16.639v0.001
	v0.54l36.61,0.011h6.16v-17.19H821.319z"/>
<path fill="#2F2E41" d="M801.492,451.767l11.155,105.981c0,0,14.851,106.116,12.062,120.759
	c-2.788,14.642,0.697,16.733,0.697,16.733l-25.447-1.813c0,0,0.697-9.063-3.486-13.247s-2.092-16.734-2.092-16.734l-49.365-172.634
	l-29.981,90.642c0,0,18.94,73.505,18.243,74.899s12,32,12,32l-28.408,9.42c0,0,3.486-11.155-1.395-14.642s-9.064-0.697-4.881-6.973
	s-32.961-52.36-32.145-82.061c0.246-8.935,0.543-18.521,0.9-28.343c1.889-51.973,5.455-110.536,11.979-113.989
	C703.181,445.491,801.492,451.767,801.492,451.767z"/>
<circle fill="#A0616A" cx="748.66" cy="209.744" r="27.439"/>
<path fill="#3F3D56" d="M840.277,377.354l-37.259,9.458l0.259-10.458l-2.828-3l-5.65-29.598l-5.999-76.627l20.589,10.92l0.025,0.019
	c3.595,3.956,6.602,8.408,8.928,13.22c7.762,15.778,15.218,50.533,19.12,70.719c0.135,0.423,0.394,0.796,0.743,1.07
	C842.196,366.741,843.062,372.706,840.277,377.354L840.277,377.354z"/>
<path fill="#A0616A" d="M620.1,411.262c0,0,51.428-54.219,51.908-55.241c3.592-27.28,13.924-39.314,15.473-38.008l26.668,9.239
	c0,0-7.932,25.119-13.303,40.04c-5.132,14.257-64.277,49.08-65.265,50.799c2.891,6.381,0.06,13.897-6.321,16.788
	c-6.382,2.891-13.898,0.06-16.789-6.321c-2.891-6.382-0.06-13.898,6.322-16.789C619.219,411.576,619.655,411.406,620.1,411.262z"/>
<path fill="#3F3D56" d="M726.96,272.064c0,0-23.09-11.316-32.045,10.909c-4.909,12.547-17.466,42.998-23.723,61.743
	c-0.042,0.12-0.099,0.232-0.171,0.336c-1.674,2.487-2.576,5.412-2.596,8.409c0.002,0.218-0.021,0.436-0.068,0.649
	c0,0,25.373,4.943,32.92,18.243l2.993-3.249l0.532-2.276L726.96,272.064z"/>
<path fill="#3F3D56" d="M810.975,463.318c-53.139,10.974-123.559-7.894-123.559-7.894l18.785-81.43l-6.678-85.217
	c-0.816-10.421,5.119-20.19,14.354-23.651l12.75-4.776l10.539-15.088l30.104,0.988l12.034,15.84l9.496,5.038l20.589,10.92
	l0.091,0.045v0.045l-6.461,62.672l-3.896,37.788c0,0,11.834,42.5,9.405,48.137c-2.428,5.627-0.316,2.909,0.272,5.917
	c0.589,3.009,2.393,3.199,2.664,9.125C811.745,447.695,810.975,463.318,810.975,463.318z"/>
<path fill="#2F2E41" d="M778.426,199.974c-2.169-2.139,1.096-7.802,0.479-10.785c-0.706-3.42-4.475-3.521-5.374-6.895
	c-0.968-3.63-4.835-5.606-8.412-6.757c-9.167-2.934-18.949-3.381-28.347-1.298c-4.158,1.016-8.254,2.277-12.263,3.777
	c-2.769,0.975-0.099-1.676-2.867-0.702c-1.048,0.233-1.973,0.847-2.595,1.722c-0.498,0.941,0.174,2.445,1.221,2.255
	c-3.379,1.49-6.759,2.98-10.138,4.471c1.896,1.985,3.79,3.97,5.686,5.956c-2.694-0.767-5.566,2.445-4.504,5.037
	c0.867,1.661,2.496,2.789,4.356,3.016c3.043,0.592,0.734,3.489,3.835,3.433s24.72-6.412,26.227-3.702
	c1.073,1.93,0.955,4.485,2.488,6.075c1.96,2.034,5.384,1.29,7.879-0.034c2.495-1.324,5.026-3.144,7.834-2.826
	c2.931,0.331,5.147,5.747,5.869,8.607s0.266,5.869-0.194,8.783c-0.603,3.826-6.644,7.652-7.246,11.479
	c6.703,1.854,13.895-4.045,16.545-14.303C778.641,210.795,783.046,204.532,778.426,199.974z"/>
<circle fill="#73D629" cx="594.344" cy="430.374" r="29.759"/>
<path fill="#FFFFFF" d="M590.284,445.861c-1.042,0-2.022-0.49-2.647-1.324l-8.119-10.825c-1.097-1.463-0.8-3.537,0.662-4.635
	c1.463-1.097,3.538-0.8,4.635,0.663l5.312,7.081l13.642-20.463c1.015-1.521,3.07-1.933,4.591-0.918
	c1.521,1.014,1.933,3.069,0.918,4.591l-16.237,24.356c-0.596,0.894-1.589,1.442-2.662,1.473
	C590.346,445.861,590.315,445.861,590.284,445.861z"/>
<path fill="#CCCCCC" d="M914.945,739.191c0.002,0.655-0.527,1.188-1.183,1.19c-0.003,0-0.005,0-0.007,0h-280.29
	c-0.657,0-1.19-0.533-1.19-1.19s0.533-1.189,1.19-1.189h280.29c0.655-0.002,1.188,0.527,1.189,1.183
	C914.945,739.187,914.945,739.189,914.945,739.191z"/>
</svg>
