<?xml version="1.0" encoding="utf-8"?>
<!-- Generator: Adobe Illustrator 16.0.3, SVG Export Plug-In . SVG Version: 6.00 Build 0)  -->
<!DOCTYPE svg PUBLIC "-//W3C//DTD SVG 1.1//EN" "http://www.w3.org/Graphics/SVG/1.1/DTD/svg11.dtd">
<svg version="1.1" id="Capa_1" xmlns="http://www.w3.org/2000/svg" xmlns:xlink="http://www.w3.org/1999/xlink" x="0px" y="0px"
	 width="884.77px" height="805.082px" viewBox="0 0 884.77 805.082" enable-background="new 0 0 884.77 805.082"
	 xml:space="preserve">
<path fill="#2F2E41" d="M873.473,639.453c-12.31,20.33-29.78,56.46-50.12,86.15c-17.109,24.97-36.25,45.39-56.08,48
	c-86.949,11.46-212.05,14.54-299,26c-103.659,13.66-206-1.23-310-12c-26.22-2.721-29.95-45.37-50.46-62
	c-1.654-1.354-3.447-2.527-5.35-3.5c-25.4-12.931-47.37-34.94-54.49-62.54c-9.13-35.38,7.07-72.11,25.69-103.55
	c18.61-31.44,40.64-62.78,44.58-99.101c4.85-44.649-18.69-87.28-44.85-123.78c-26.15-36.51-56.45-71.84-68.48-115.1
	c-21-75.49,27.58-163.3,102.69-185.61c0,0,331.46,2.1,504.66-25.23c41.65-6.57,86.31-13.91,124.41,4.19
	c43.47,20.65,66.79,70.29,70.979,118.24c4.19,47.95-7.18,95.68-15.26,143.13c-8.08,47.44-12.67,97.54,4.29,142.589
	c14.65,38.891,43.94,70.23,65.01,106.061C882.763,557.233,895.013,603.903,873.473,639.453z"/>
<path fill="#3F3D56" d="M823.353,725.604c-17.109,24.97-36.25,45.39-56.079,48c-86.95,11.46-212.051,14.54-299,26
	c-103.66,13.66-206-1.23-310-12c-26.22-2.721-29.95-45.37-50.46-62H823.353z"/>
<path fill="#3F3D56" d="M217.187,84.925L197.7,612.439v0.01c0.658,0.908,1.323,1.815,1.998,2.724
	c0.365,0.501,0.739,0.993,1.12,1.494c0.561,0.766,1.137,1.522,1.722,2.278c0.008,0.01,0.008,0.02,0.016,0.028l0.024,0.028v0.01
	c17.091,22.56,36.867,42.953,58.891,60.729v0.209l0.228-0.029c0.268,0.228,0.536,0.436,0.804,0.653
	c1.94,1.551,3.897,3.082,5.871,4.576c0.966,0.738,1.935,1.466,2.907,2.185v0.01c0.008,0,0.008,0,0.016,0.01h0.016l0.016,0.019
	l0.049,0.028c0.024,0.019,0.041,0.028,0.065,0.048c0.747,0.558,1.486,1.105,2.241,1.654c0.227,0.18,0.455,0.341,0.682,0.501
	c0.397,0.293,0.804,0.587,1.209,0.88c0.398,0.283,0.804,0.576,1.21,0.86c1.616,1.153,3.248,2.288,4.88,3.404
	c0.406,0.283,0.82,0.558,1.234,0.842c0.406,0.274,0.82,0.549,1.234,0.822v0.028l0.049,0.01l0.016,0.01l0.016,0.019h0.008
	c1.137,0.757,2.265,1.513,3.41,2.251l0.008,0.009c0.917,0.596,1.835,1.183,2.76,1.769c2.192,1.39,4.401,2.762,6.618,4.095
	c1.542,0.937,3.094,1.844,4.652,2.742c0.942,0.549,1.892,1.088,2.842,1.627c0.788,0.444,1.583,0.889,2.371,1.323
	c0.219,0.123,0.431,0.246,0.649,0.359c0.357,0.199,0.723,0.397,1.08,0.587h275.251c0.39-0.208,0.779-0.417,1.17-0.634
	c0.075-0.026,0.146-0.064,0.211-0.113c0.008,0,0.008-0.01,0.016-0.01c0.561-0.303,1.121-0.614,1.681-0.927l0.017-0.01
	c2.866-1.598,5.708-3.246,8.525-4.945c6.391-3.839,12.666-7.928,18.829-12.265c3.305-2.326,6.574-4.722,9.809-7.188
	c1.007-0.766,2.014-1.541,3.021-2.326c0.909-0.709,1.811-1.418,2.712-2.137c3.183-2.534,6.325-5.135,9.427-7.802
	c3.207-2.752,6.368-5.573,9.483-8.464c4.06-3.763,8.038-7.634,11.936-11.612c7.267-7.395,14.236-15.161,20.908-23.3
	c0.211-0.256,0.422-0.511,0.633-0.775c1.632-1.996,3.242-4.017,4.831-6.062L670.832,84.924c0.015-3.266-0.583-6.505-1.763-9.551
	c-2.468-6.241-7.283-10.487-12.813-10.487H231.761c-5.603,0-10.466,4.35-12.902,10.724c-0.082,0.208-0.154,0.416-0.228,0.624
	C217.664,79.029,217.175,81.967,217.187,84.925z"/>
<ellipse fill="#FFFFFF" cx="617.072" cy="100.31" rx="21.923" ry="25.532"/>
<path fill="#FFFFFF" d="M384.857,168.739c36.96,9.722,77.911,15.635,119.551,17.255c6.103,0.333,12.22,0.291,18.316-0.125
	c13.399-1.127,24.877-5.338,37.66-7.64c6.145-1.104,12.989-1.91,19.176-3.103c-1.429-1.773-2.885-3.525-4.365-5.255
	c-13.34,1.127-26.888,4.816-40.388,6.531c-22.949,2.918-48.663-0.338-66.06-8.37c-8.441-3.897-14.906-8.761-23.317-12.676
	c-1.144-0.587-2.383-0.967-3.66-1.121c-2.425-0.073-4.82,0.548-6.904,1.791c-14.11,7.124-34.599,12.913-53.615,9.728
	C379.834,166.864,382.526,168.128,384.857,168.739z"/>
<path fill="#FFFFFF" d="M392.013,257.727c-0.238-0.043-0.477-0.077-0.714-0.119c1-0.62,1.941-1.329,2.813-2.119L392.013,257.727z"/>
<path fill="#FFFFFF" d="M236.183,276.966c10.872,0.869,21.801,1.516,32.787,1.94c8.353,0.451,16.727,0.394,25.073-0.17
	c18.342-1.551,34.053-7.308,51.551-10.458c16.035-2.882,35.522-4.271,45.704-10.669c-26.315-4.555-53.58,4.718-80.716,8.168
	c-21.949,2.699-44.199,1.6-65.776-3.248C241.802,267.255,238.927,272.067,236.183,276.966z"/>
<path fill="#2F2E41" d="M462.646,472.369v-7.778c0.003-6.169,4.815-11.266,10.975-11.623v-30.374h2.582v30.34h11.619V472.3h54.871
	v222.709H421.332V516.03C421.334,492.818,439.47,473.651,462.646,472.369z"/>
<rect x="506.543" y="503.931" fill="#FFFFFF" width="16.139" height="12.911"/>
<rect x="480.076" y="503.931" fill="#FFFFFF" width="16.139" height="12.911"/>
<rect x="453.609" y="503.931" fill="#FFFFFF" width="16.139" height="12.911"/>
<rect x="506.543" y="536.853" fill="#FFFFFF" width="16.139" height="12.911"/>
<rect x="480.076" y="536.853" fill="#FFFFFF" width="16.139" height="12.911"/>
<rect x="453.609" y="536.853" fill="#FFFFFF" width="16.139" height="12.911"/>
<rect x="506.543" y="569.775" fill="#FFFFFF" width="16.139" height="12.91"/>
<rect x="480.076" y="569.775" fill="#FFFFFF" width="16.139" height="12.91"/>
<rect x="453.609" y="569.775" fill="#FFFFFF" width="16.139" height="12.91"/>
<rect x="506.543" y="602.697" fill="#FFFFFF" width="16.139" height="12.911"/>
<rect x="480.076" y="602.697" fill="#FFFFFF" width="16.139" height="12.911"/>
<rect x="453.609" y="602.697" fill="#FFFFFF" width="16.139" height="12.911"/>
<rect x="506.543" y="635.62" fill="#FFFFFF" width="16.139" height="12.91"/>
<rect x="480.076" y="635.62" fill="#FFFFFF" width="16.139" height="12.91"/>
<rect x="453.609" y="635.62" fill="#FFFFFF" width="16.139" height="12.91"/>
<rect x="506.543" y="668.542" fill="#FFFFFF" width="16.139" height="12.911"/>
<rect x="480.076" y="668.542" fill="#FFFFFF" width="16.139" height="12.911"/>
<rect x="453.609" y="668.542" fill="#FFFFFF" width="16.139" height="12.911"/>
<path fill="#2F2E41" d="M539.344,407.575v287.431h74.967c3.305-1.997,6.574-4.054,9.809-6.171c1.007-0.657,2.014-1.323,3.021-1.997
	c0.909-0.609,1.811-1.218,2.712-1.835c3.184-2.176,6.325-4.409,9.427-6.698c3.207-2.363,6.368-4.785,9.483-7.268
	c4.061-3.231,8.039-6.555,11.936-9.971V363.844h-21.622v-34.532h-21.946v-32.925h-2.582v32.925h-16.102
	c-6.439,0-11.659,5.221-11.659,11.66v22.873h-3.711c-19.363,0.001-36.424,12.73-41.938,31.292c-0.467,1.591-0.847,3.207-1.137,4.839
	C539.563,402.485,539.344,405.028,539.344,407.575z"/>
<rect x="604.862" y="336.415" fill="#FFFFFF" width="16.139" height="12.911"/>
<path fill="#2F2E41" d="M217.186,84.922l-19.487,527.516v0.009c0.658,0.909,1.323,1.818,1.997,2.728
	c0.163,0.228,0.333,0.447,0.503,0.674c0.203,0.269,0.406,0.544,0.617,0.82c0.56,0.764,1.137,1.519,1.721,2.273l19.487-534.02
	c0-0.251,0.008-0.495,0.017-0.747c0.227-5.675,3.028-10.401,6.828-12.025c0.911-0.4,1.896-0.607,2.891-0.609h424.497
	c4.157,0,7.713,3.597,9.109,8.647c0.01,0.023,0.015,0.048,0.017,0.073c0.413,1.519,0.621,3.087,0.617,4.661l16.238,555.472
	c0.666-0.698,1.324-1.396,1.981-2.104c0.958-1.022,1.908-2.062,2.851-3.102L670.831,84.922c0.015-3.265-0.583-6.503-1.763-9.548
	c-2.468-6.244-7.282-10.49-12.813-10.49H231.76c-5.603,0-10.466,4.352-12.902,10.726c-0.081,0.211-0.154,0.414-0.227,0.625
	C217.663,79.028,217.175,81.966,217.186,84.922z M297.017,705.537c1.543,0.804,3.094,1.584,4.653,2.354
	c0.942,0.471,1.892,0.934,2.842,1.396c0.788,0.382,1.583,0.764,2.371,1.137c0.22,0.106,0.431,0.212,0.649,0.309
	c0.357,0.171,0.723,0.341,1.08,0.504h275.252c0.39-0.179,0.779-0.357,1.169-0.544c0.074-0.022,0.146-0.056,0.211-0.098
	c0.008,0,0.008-0.008,0.017-0.008c0.56-0.26,1.12-0.528,1.681-0.796l0.016-0.009c2.866-1.372,5.708-2.787,8.526-4.246H297.017z"/>
<rect x="219.608" y="132.85" fill="#2F2E41" width="448.808" height="5.635"/>
<rect x="213.427" y="202.678" fill="#2F2E41" width="459.563" height="5.635"/>
<polygon fill="#2F2E41" points="598.56,312.025 603.399,312.025 587.16,67.414 582.321,67.414 "/>
<polygon fill="#2F2E41" points="281.377,313.649 286.216,313.649 305.703,67.414 300.864,67.414 "/>
<rect x="210.991" y="305.429" fill="#2F2E41" width="461.188" height="16.128"/>
<path fill="#2F2E41" d="M449.623,305.401h-22.579l0,0l0,0c0-4.899,3.972-8.871,8.871-8.871h4.838
	C445.652,296.531,449.623,300.502,449.623,305.401L449.623,305.401L449.623,305.401z"/>
<path fill="#CCCCCC" d="M200.143,629.263c0.219,0.26,0.446,0.511,0.674,0.771c0.56,0.657,1.137,1.307,1.721,1.956
	c0.008,0.009,0.008,0.017,0.017,0.024l0.024,0.024v0.009c17.455,19.692,37.229,37.2,58.891,52.143
	c0.072,0.057,0.148,0.108,0.227,0.154c0.268,0.195,0.536,0.374,0.804,0.561c1.94,1.331,3.897,2.647,5.87,3.93
	c0.966,0.634,1.933,1.259,2.907,1.876v0.008c0.008,0,0.008,0,0.017,0.008h0.016l0.016,0.017l0.049,0.024
	c0.024,0.017,0.041,0.024,0.065,0.041c0.747,0.479,1.486,0.949,2.241,1.421c0.228,0.154,0.455,0.292,0.682,0.43
	c0.398,0.252,0.804,0.504,1.21,0.755c0.398,0.244,0.804,0.496,1.21,0.739c0.511,0.309,1.023,0.625,1.535,0.926l-0.033-2.68
	l-0.049-3.564l-0.235-16.385l-0.812-13.089l-4.815-77.468l-0.763-12.261l-0.17-2.761l-2.168-34.857l-0.739-11.968l-1.681-26.957
	l-0.755-12.261l10.261-12.846l-0.033-0.463l-0.065-1.104l-0.041-0.674v-0.008l-0.861-13.755l-0.032-0.585l-0.609-9.727v-0.017
	l-0.869-14.096l-0.552-8.85l-0.617-9.938l-0.495-7.965l-0.114-1.827l-0.301-4.839l-0.016-0.195l-12.867-29.124l-0.487-7.852v-0.008
	l-0.512-8.233l-0.349-5.635l-0.723-11.513l-0.763-12.244l-0.3-4.839l-1.064-17.181v-0.008l-0.593-9.565l-0.592-9.581l-0.877-14.014
	l-0.577-9.337l-0.349-5.635l-2.533-40.857l-0.114-1.771l-0.244-3.864l-0.82-13.219l17.611-30.221l-1.291-20.754l-0.349-5.635
	l-3.703-59.532l-0.114-1.778l-0.203-3.329c-15.898-1.746-28.865-0.463-37.902,7.754l-0.251,56.885l-0.024,5.635l-5.14,62.285
	l-0.008,1.908l-0.024,5.635l-2.086,106.179l-0.024,4.839l-3.573,75.804l-0.024,4.839l-1.851,52.419l-0.073,16.126L200.2,615.849
	L200.143,629.263z"/>
<path fill="#2F2E41" d="M268.371,688.835c0.966,0.634,1.933,1.259,2.907,1.876v0.008c0.008,0,0.008,0,0.017,0.009h0.016l0.016,0.016
	l0.049,0.024c0.024,0.017,0.041,0.024,0.065,0.041c0.747,0.479,1.486,0.949,2.241,1.421c0.228,0.154,0.455,0.292,0.682,0.43
	c0.398,0.252,0.804,0.504,1.21,0.756c0.398,0.243,0.804,0.495,1.21,0.738c0.511,0.309,1.023,0.625,1.535,0.926
	c1.112,0.674,2.227,1.34,3.345,1.997c0.406,0.244,0.82,0.479,1.234,0.724c0.406,0.235,0.82,0.471,1.234,0.706v0.024l0.049,0.008
	l0.016,0.008l0.016,0.017h0.008c1.137,0.649,2.265,1.299,3.41,1.933l0.008,0.008c0.917,0.512,1.835,1.015,2.761,1.519
	c2.192,1.193,4.398,2.365,6.617,3.516c1.543,0.804,3.094,1.583,4.653,2.354c0.942,0.471,1.892,0.934,2.842,1.396
	c0.788,0.382,1.583,0.764,2.371,1.137c0.22,0.105,0.431,0.211,0.649,0.309c0.357,0.171,0.723,0.341,1.08,0.504
	c0.301,0.138,0.593,0.275,0.894,0.414c0.714,0.341,1.437,0.666,2.151,0.99c0.804,0.365,1.6,0.723,2.403,1.08
	c3.021,1.348,6.073,2.647,9.135,3.897c10.936,4.478,22.111,8.343,33.477,11.578c0.528,0.154,1.063,0.309,1.6,0.455
	c4.863,1.364,9.763,2.611,14.696,3.743c8.615,1.98,17.308,3.607,26.08,4.88c0.016,0,0.04,0.008,0.057,0.008
	c1.047,0.154,2.103,0.301,3.15,0.446c0.089,0.017,0.187,0.032,0.284,0.041c0.008,0.008,0.016,0.008,0.032,0h0.008
	c1.161,0.154,2.322,0.309,3.492,0.454c0.081,0.017,0.162,0.024,0.243,0.033c1.088,0.129,2.185,0.26,3.28,0.381
	c1.178,0.13,2.354,0.252,3.54,0.374h0.008c1.803,0.179,3.605,0.349,5.408,0.495c0.032,0,0.064,0.008,0.097,0.008
	c0.715,0.065,1.43,0.114,2.145,0.171h0.008c8.403,0.666,16.886,0.996,25.446,0.99c9.297,0,18.499-0.387,27.606-1.161
	c0.032,0,0.064-0.008,0.098-0.008c1.94-0.162,3.878-0.341,5.813-0.536c0.511-0.049,1.015-0.105,1.526-0.154
	c0.098-0.008,0.195-0.016,0.292-0.032c0.154-0.017,0.309-0.032,0.471-0.049c0.081-0.008,0.171-0.017,0.252-0.032
	c0.674-0.073,1.349-0.146,2.03-0.228c0.755-0.09,1.519-0.179,2.273-0.276c0.755-0.089,1.519-0.187,2.273-0.292
	c0.162-0.017,0.333-0.032,0.495-0.065c0.552-0.064,1.104-0.138,1.648-0.219c0.268-0.032,0.527-0.073,0.787-0.113
	c0.528-0.073,1.048-0.146,1.575-0.228c0.017,0,0.041-0.008,0.058-0.008c16.58-2.395,32.947-6.084,48.952-11.035h0.008
	c0.869-0.268,1.738-0.544,2.606-0.819c0.26-0.073,0.52-0.154,0.779-0.244c2.258-0.723,4.501-1.47,6.731-2.241
	c3.077-1.056,6.133-2.159,9.167-3.313c0.828-0.316,1.648-0.633,2.477-0.95c1.648-0.649,3.288-1.299,4.92-1.965
	c2.785-1.137,5.552-2.309,8.299-3.516h0.008v-0.008c2.168-0.958,4.327-1.933,6.472-2.947c0.389-0.179,0.779-0.357,1.169-0.544
	c0.074-0.022,0.146-0.056,0.211-0.098c0.008,0,0.008-0.008,0.017-0.008c0.56-0.26,1.12-0.528,1.681-0.796l0.016-0.009
	c2.866-1.372,5.708-2.787,8.525-4.246c3.491-1.803,6.953-3.67,10.385-5.603c2.843-1.6,5.657-3.242,8.444-4.929
	c3.305-1.997,6.574-4.054,9.809-6.171H268.371z"/>
<ellipse fill="#FFFFFF" cx="562.672" cy="106.929" rx="1.624" ry="1.891"/>
<ellipse fill="#FFFFFF" cx="464.005" cy="109.275" rx="1.624" ry="1.891"/>
<ellipse fill="#FFFFFF" cx="403.108" cy="111.166" rx="1.624" ry="1.891"/>
<circle fill="#FFFFFF" cx="317.463" cy="350.693" r="1.624"/>
<circle fill="#FFFFFF" cx="416.1" cy="259.333" r="1.624"/>
<circle fill="#FFFFFF" cx="497.716" cy="342.574" r="1.624"/>
<circle fill="#FFFFFF" cx="511.519" cy="257.319" r="1.624"/>
<circle fill="#FFFFFF" cx="620.32" cy="240.268" r="1.624"/>
<rect x="204.104" y="617.287" transform="matrix(-0.0273 0.9996 -0.9996 -0.0273 873.4021 386.3095)" fill="#B3B3B3" width="89.285" height="1.624"/>
<rect x="141.591" y="304.686" transform="matrix(-0.0149 0.9999 -0.9999 -0.0149 532.3621 86.4857)" fill="#B3B3B3" width="163.97" height="1.624"/>
<path fill="#2F2E41" d="M287.631,700.498l3.824-6.967l-1.884-0.885l-1.502-0.715l-6.552-3.094l-3.938-1.859l-1.624-0.771
	l-1.291-0.609l-2.144,3.239l-1.08,1.633l-0.162,0.243v0.008c0.034,0.014,0.066,0.029,0.097,0.049
	c0.024,0.017,0.041,0.024,0.065,0.041c0.747,0.479,1.486,0.95,2.241,1.421c0.227,0.154,0.455,0.292,0.682,0.43
	c0.397,0.252,0.804,0.504,1.209,0.756c0.398,0.243,0.804,0.495,1.21,0.738c1.616,0.991,3.248,1.965,4.88,2.923
	c0.406,0.244,0.82,0.479,1.234,0.724c0.406,0.235,0.82,0.471,1.234,0.706v0.024l0.049,0.008l0.016,0.008l0.016,0.017h0.008
	C285.358,699.215,286.486,699.864,287.631,700.498z"/>
<path fill="#2F2E41" d="M217.08,136.238c0.004-3.137,2.546-5.68,5.684-5.684h51.153c3.139,0,5.684,2.544,5.684,5.684
	s-2.545,5.684-5.684,5.684l0,0h-51.153C219.626,141.918,217.084,139.375,217.08,136.238z"/>
<path fill="#2F2E41" d="M196.782,190.639c0.003-3.138,2.546-5.68,5.684-5.684h51.153c3.139,0,5.684,2.544,5.684,5.684
	c0,3.139-2.544,5.684-5.684,5.684l0,0h-51.153C199.328,196.318,196.785,193.776,196.782,190.639z"/>
<path fill="#2F2E41" d="M339.005,600.555v-3.1c0.001-2.458,1.918-4.488,4.372-4.631v-12.102h1.029v12.088h4.629v7.716h21.862v88.733
	h-48.354v-71.31C322.545,608.702,329.771,601.065,339.005,600.555z"/>
<rect x="356.494" y="613.129" fill="#FFFFFF" width="6.43" height="5.145"/>
<rect x="345.949" y="613.129" fill="#FFFFFF" width="6.43" height="5.145"/>
<rect x="335.404" y="613.129" fill="#FFFFFF" width="6.43" height="5.145"/>
<rect x="356.494" y="626.246" fill="#FFFFFF" width="6.43" height="5.145"/>
<rect x="345.949" y="626.246" fill="#FFFFFF" width="6.43" height="5.145"/>
<rect x="335.404" y="626.246" fill="#FFFFFF" width="6.43" height="5.145"/>
<rect x="356.494" y="639.363" fill="#FFFFFF" width="6.43" height="5.145"/>
<rect x="345.949" y="639.363" fill="#FFFFFF" width="6.43" height="5.145"/>
<rect x="335.404" y="639.363" fill="#FFFFFF" width="6.43" height="5.145"/>
<rect x="356.494" y="652.48" fill="#FFFFFF" width="6.43" height="5.145"/>
<rect x="345.949" y="652.48" fill="#FFFFFF" width="6.43" height="5.145"/>
<rect x="335.404" y="652.48" fill="#FFFFFF" width="6.43" height="5.145"/>
<rect x="356.494" y="665.598" fill="#FFFFFF" width="6.43" height="5.145"/>
<rect x="345.949" y="665.598" fill="#FFFFFF" width="6.43" height="5.145"/>
<rect x="335.404" y="665.598" fill="#FFFFFF" width="6.43" height="5.145"/>
<rect x="356.494" y="678.715" fill="#FFFFFF" width="6.43" height="5.144"/>
<rect x="345.949" y="678.715" fill="#FFFFFF" width="6.43" height="5.144"/>
<rect x="335.404" y="678.715" fill="#FFFFFF" width="6.43" height="5.144"/>
<path fill="#2F2E41" d="M386.985,557.317h1.48v-9.115c0-2.565,2.079-4.646,4.645-4.646l0,0h6.415v-13.117h1.028v13.117h8.745v13.761
	h8.616V689.26h-48.354V574.741C369.562,565.118,377.362,557.317,386.985,557.317z"/>
<rect x="383.322" y="567.733" fill="#FFFFFF" width="20.833" height="1.544"/>
<rect x="383.322" y="577.25" fill="#FFFFFF" width="20.833" height="1.543"/>
<rect x="383.322" y="586.767" fill="#FFFFFF" width="20.833" height="1.543"/>
<rect x="383.322" y="596.283" fill="#FFFFFF" width="20.833" height="1.543"/>
<rect x="383.322" y="605.799" fill="#FFFFFF" width="20.833" height="1.544"/>
<rect x="383.322" y="615.315" fill="#FFFFFF" width="20.833" height="1.543"/>
<rect x="383.322" y="624.832" fill="#FFFFFF" width="20.833" height="1.543"/>
<rect x="383.322" y="634.348" fill="#FFFFFF" width="20.833" height="1.544"/>
<rect x="383.322" y="643.864" fill="#FFFFFF" width="20.833" height="1.543"/>
<rect x="383.322" y="653.381" fill="#FFFFFF" width="20.833" height="1.543"/>
<rect x="383.322" y="662.897" fill="#FFFFFF" width="20.833" height="1.543"/>
<rect x="383.322" y="672.413" fill="#FFFFFF" width="20.833" height="1.544"/>
<rect x="395.667" y="546.386" fill="#FFFFFF" width="6.431" height="5.145"/>
<polygon fill="#FFB6B6" points="374.181,452.355 374.917,491.052 328.139,491.052 328.136,454.737 "/>
<circle fill="#FFB6B6" cx="346.038" cy="345.852" r="25.51"/>
<path fill="#FFB6B6" d="M435.005,312.37c-5.272,0.052-9.505,4.368-9.452,9.641c0.006,0.562,0.061,1.123,0.165,1.675l-36.901,59.674
	l13.88,6.737l34.864-58.834c5.133-1.325,8.22-6.56,6.895-11.693C443.347,315.273,439.439,312.298,435.005,312.37L435.005,312.37z"/>
<path fill="#73D629" d="M372.836,385.492l-6.178,11.77l-3.3,6.293l-2.156,4.102c-1.103,1.504-1.888,3.216-2.307,5.032
	c-1.731,7.454,2.907,14.899,10.361,16.631c5.38,1.249,10.989-0.816,14.273-5.258l17.637-17.902c1.929-1.975,1.892-5.14-0.084-7.068
	c-0.17-0.166-0.352-0.319-0.543-0.459l15.384-28.711l-17.102-10.76l-18.627,24.605c-2.243-1.618-5.373-1.111-6.991,1.132
	C373.067,385.086,372.944,385.285,372.836,385.492z"/>
<path fill="#FFB6B6" d="M317.03,527.078c-4.419-2.875-5.671-8.789-2.796-13.209c0.307-0.471,0.654-0.914,1.038-1.324l0.92-70.155
	l15.325,1.771l-2.187,68.354c3.619,3.874,3.411,9.948-0.463,13.566C325.627,529.108,320.732,529.521,317.03,527.078z"/>
<polygon fill="#FFB6B6" points="302.488,753.347 312.933,753.347 317.904,713.058 302.488,713.058 "/>
<path fill="#2F2E41" d="M299.08,746.193l16.687-0.996v7.149l15.865,10.957c2.03,1.401,2.539,4.183,1.138,6.212
	c-0.834,1.208-2.208,1.929-3.675,1.929h-19.867l-3.425-7.071l-1.337,7.071h-7.491L299.08,746.193z"/>
<polygon fill="#FFB6B6" points="401.696,748.258 411.445,744.507 394.995,680.394 378.253,687.323 "/>
<path fill="#2F2E41" d="M395.946,742.805l15.217-6.922l2.567,6.673l18.741,4.53c2.397,0.579,3.872,2.992,3.293,5.39
	c-0.345,1.427-1.368,2.593-2.738,3.119l-18.542,7.134l-5.735-5.371l1.291,7.081l-6.991,2.689L395.946,742.805z"/>
<path fill="#73D629" d="M297.981,718.604h0.114l2.009-65.508c-2.641-5.093-2.556-11.17,0.225-16.188l0.288-0.521l-0.746-3.457
	c-0.958-4.44-0.518-9.069,1.258-13.251l1.874-61.106c-6.695-43.39,25.212-71.688,25.212-71.688h47.797l10.262,35.256
	c6.783,66.092,21.553,94.496,10.788,156.894l0.293,0.148c1.057,0.365,1.511,1.829,1.013,3.27c-0.497,1.441-1.757,2.313-2.813,1.949
	l-14.28,17.2c-1.058-0.365-9.473-6.907-8.975-8.348c0.497-1.441,1.757-2.313,2.813-1.949l1.717,0.868l-26.961-123.776
	l-14.646,72.453l-14.959,78.481c1.126,1.021,1.213,2.761,0.192,3.887c-0.523,0.579-1.269,0.907-2.048,0.905h-20.427
	c-1.524-0.003-2.758-1.24-2.756-2.765C295.228,719.839,296.46,718.606,297.981,718.604z"/>
<path fill="#2F2E41" d="M311.184,328.068c0.224,0.331,0.466,0.649,0.723,0.954c1.302,1.498,2.904,2.704,4.703,3.542l0.507-0.136
	c0.185,1.938,1.217,3.695,2.818,4.801c0.474,0.287,0.993,0.487,1.536,0.592c-2.011,8.098-2.113,14.915-0.31,20.377
	c0.299,0.928,0.666,1.833,1.099,2.706c0.647,1.323,1.443,2.568,2.373,3.711c0.159,0.197,0.324,0.39,0.493,0.583
	c0.673,0.764,1.404,1.474,2.188,2.123c1.679,1.389,3.545,2.534,5.543,3.401c3.52,1.489,7.258,2.396,11.067,2.682h0.005
	c2.876,0.264,5.771,0.242,8.644-0.066l0.498-0.065l0.005-0.113l0.019-0.385c0.005-0.094,0.01-0.192,0.019-0.287
	c0.033-0.629,0.094-1.259,0.179-1.879c0.075-0.611,0.174-1.217,0.291-1.813c0.381,0.912,0.893,2.048,1.494,3.331
	c0.653,1.391,1.414,2.955,2.222,4.576c0.428,0.855,0.869,1.729,1.315,2.607c1.104,2.17,2.231,4.345,3.26,6.295
	c0.737,1.39,1.419,2.663,2.006,3.729c0.888,1.635,1.551,2.791,1.813,3.167l0.771,1.104l0.521-2.283l0.563-2.461l0.813-3.575
	l0.343-1.499c0.043-0.197,0.085-0.39,0.127-0.587c0.294-1.448,0.456-2.92,0.484-4.397c0.019-0.573,0.009-1.146-0.023-1.719
	c-0.107-2.161-0.493-4.298-1.146-6.36c-0.365-1.166-0.817-2.303-1.353-3.401c-0.184-0.395-0.381-0.789-0.592-1.174
	c-0.282-0.517-0.583-1.029-0.897-1.532c-0.028-0.042-0.052-0.084-0.08-0.127c-0.715-1.125-1.299-2.327-1.743-3.584
	c-0.312-0.881-0.551-1.786-0.714-2.706c-0.712-3.975-0.035-8.073,1.917-11.608c0.761-1.399,1.73-2.674,2.875-3.782
	c0.493-0.478,1.022-0.917,1.583-1.315c0.856-0.62,1.785-1.133,2.767-1.527c1.514-0.616,3.134-0.932,4.768-0.93h0.597v-0.596
	c0.021-3.403-1.091-6.715-3.156-9.419c-0.249-0.329-0.517-0.648-0.794-0.954c-2.269-2.627-5.469-4.269-8.926-4.58
	c-0.225-1.78-1.488-3.382-3.688-4.65c-1.298-0.721-2.685-1.271-4.124-1.635c-4.493-1.118-9.191-1.118-13.684,0
	c-1.831,0.451-3.603,1.118-5.275,1.987c-0.078-0.683-0.252-1.352-0.517-1.987c-0.496-1.202-1.296-2.254-2.321-3.053
	c-0.5-0.389-1.058-0.696-1.653-0.912c-1.261-0.438-2.619-0.517-3.922-0.225c-6.77-5.243-13.365-3.293-16.991,1.137
	c-0.765,0.923-1.394,1.951-1.865,3.053C308.729,320.723,309.042,324.834,311.184,328.068z"/>
<path fill="#73D629" d="M340.912,434.013l-0.722-13.273l-0.388-7.095l-0.248-4.628c0.177-1.855-0.025-3.729-0.597-5.503
	c-2.329-7.289-10.127-11.309-17.415-8.979c-5.262,1.682-9.021,6.329-9.568,11.825l-5.981,24.409
	c-0.646,2.684,1.007,5.383,3.692,6.028c0.23,0.056,0.465,0.095,0.702,0.116l1.489,32.539l20.198,0.485l3.399-30.674
	c2.755,0.241,5.185-1.797,5.425-4.552C340.92,434.479,340.924,434.245,340.912,434.013z"/>
<path fill="#73D629" d="M381.599,415.067c-0.034-0.363-0.087-0.745-0.156-1.108c-1.226-8.533-5.747-16.246-12.595-21.483
	c-2.322-1.794-4.868-3.277-7.574-4.411v-7.461h-25v7.163c-5.307,2.095-10.008,5.476-13.685,9.837v0.018
	c-0.276,0.329-0.537,0.676-0.797,1.022c-0.468,0.589-0.9,1.213-1.316,1.836c-3.756,5.675-5.689,12.359-5.544,19.162v0.018
	c0.055,2.621,0.421,5.227,1.092,7.762c1.153,4.434,2.062,8.928,2.72,13.461c0.45,2.876,0.797,5.7,1.057,8.455
	c0.156,1.386,0.277,2.755,0.381,4.089v0.017c0.521,6.602,0.693,12.526,0.85,17.118c0.069,2.494,0.139,4.573,0.26,6.167
	c0.003,0.105,0.015,0.209,0.034,0.313c0.134,1.071,0.593,2.075,1.317,2.876c0.089,0.112,0.188,0.216,0.294,0.312
	c0.769,0.691,1.697,1.18,2.703,1.421c0.348,0.069,0.701,0.104,1.057,0.104h0.104l0,0c11.734-5.467,24.917-7.008,37.595-4.393
	l8.364,1.725c1.312,0.274,2.596-0.567,2.87-1.879c0.034-0.163,0.051-0.33,0.051-0.496c-0.016-5.436-1.095-16.677-0.387-17.254
	c0.747-0.634,1.314-1.452,1.646-2.374v-0.017c0.034-0.139,0.086-0.277,0.121-0.434c1.455-5.734,4.036-11.885,4.955-21.777
	c0.121-1.421,0.225-2.894,0.277-4.471v-0.018C382.443,425.256,382.212,420.143,381.599,415.067z"/>
<path fill="#CCCCCC" d="M604.787,686.335c7.308,7.308,6.739,10.352,9.523,8.671c3.305-1.997,6.574-4.054,9.809-6.171
	c1.007-0.657,2.014-1.323,3.021-1.997c0.909-0.609,1.811-1.218,2.712-1.835c3.184-2.176,6.325-4.409,9.427-6.698
	c3.207-2.363,6.368-4.785,9.483-7.268c4.061-3.231,8.039-6.555,11.936-9.971c7.268-6.35,14.236-13.018,20.908-20.006
	c0.211-0.22,0.422-0.438,0.634-0.666c0.665-0.698,1.323-1.396,1.98-2.104l-3.305-11.936l-4.06-173.96l-0.243-52.42l-0.017-4.839
	l-3.604-75.803l-0.024-4.839l-2.096-102.201l-0.016-3.979l-0.032-5.635l11.318-11.002l-16.482-53.191l-0.024-5.635l-0.252-52.59
	l-0.017-4.295c-8.599-7.827-20.77-9.362-35.652-7.981c-0.739,0.073-1.494,0.146-2.249,0.227l-0.203,3.329l-0.374,5.936v0.008
	l-2.923,47.061v0.016l-0.52,8.29l-0.349,5.635l-0.918,14.745l13.17,49.448L635,208.315l-2.542,40.857l-0.349,5.635l-0.723,11.627
	l-2.988,48.06l-0.301,4.839l-0.617,9.979l-0.771,12.342l-0.09,1.437l-0.349,5.635l-9.007,16.19l-0.276,4.514l-1.274,20.567
	l-0.171,2.744l-0.073,1.129l-0.081,1.266l-0.13,2.111l-0.171,2.729l-0.608,9.792l-0.252,4.108l-0.243,3.873l-0.171,2.802
	l-0.284,4.514l-0.219,3.492l7.432,9.207l-0.244,3.873l-0.414,6.731l-0.252,4.027l-0.032,0.487l-0.544,8.769l-0.243,3.873
	l-0.179,2.996l-0.479,7.673l-0.284,4.507l-0.301,4.831l-0.235,3.873l-0.909,14.599l-0.275,4.515l-0.058,0.9l-0.243,3.873
	l-1.153,18.529l-0.089,1.485l-0.187,3.029l-0.049,0.844l-1.251,20.007l-0.154,2.452l-0.089,1.421l-0.187,3.094l-1.056,16.921
	l-0.244,3.873l-0.154,2.509l-0.275,4.515l-0.804,12.991l-0.244,3.873l-0.397,6.446l-0.284,4.507l-0.561,9.053l-0.243,3.873
	l-0.642,10.377l-0.284,4.506l-0.179,5.132l-0.139,3.873L604.787,686.335z"/>
<path fill="#2F2E41" d="M606.816,136.238c0.004-3.137,2.547-5.68,5.684-5.684h51.153c3.139,0,5.684,2.544,5.684,5.684
	s-2.545,5.684-5.684,5.684l0,0H612.5C609.363,141.918,606.82,139.375,606.816,136.238z"/>
<path fill="#2F2E41" d="M168.352,70.876c0.003-3.138,2.546-5.68,5.684-5.684h536.699c3.139,0.004,5.681,2.552,5.676,5.691
	c-0.004,3.133-2.543,5.672-5.676,5.676H174.035C170.897,76.556,168.355,74.013,168.352,70.876z"/>
<path fill="#2F2E41" d="M624.68,193.074c0.004-3.137,2.546-5.68,5.684-5.684h51.153c3.139-0.004,5.687,2.537,5.691,5.676
	c0.004,3.139-2.537,5.688-5.677,5.691c-0.005,0-0.01,0-0.015,0h-51.153C627.226,198.754,624.684,196.212,624.68,193.074z"/>
<rect x="578.421" y="297.379" transform="matrix(-0.0149 0.9999 -0.9999 -0.0149 968.373 -357.713)" fill="#B3B3B3" width="163.969" height="1.624"/>
<rect x="562.181" y="485.751" transform="matrix(-0.0149 0.9999 -0.9999 -0.0149 1140.2445 -150.3047)" fill="#B3B3B3" width="163.97" height="1.624"/>
<rect x="617.387" y="587.245" transform="matrix(-0.0273 0.9996 -0.9996 -0.0273 1267.9266 -57.6846)" fill="#B3B3B3" width="89.285" height="1.624"/>
<path fill="#73D629" d="M323.501,340.394c7.438-2.938,14.888-8.258,16.114-16.762c0.371-1.896,0.139-3.86-0.662-5.618
	c-0.749-1.224-1.624-2.367-2.612-3.408c-0.773-0.902-1.104-2.102-0.904-3.272c0.188-1.324,0.925-2.507,2.03-3.259
	c0.1-0.061-0.224-0.241-0.216-0.073c0.015,0.306,0.142,0.636,0.171,0.951c0.092,0.956,0.038,1.92-0.159,2.86
	c-0.404,1.971-1.363,3.786-2.763,5.231c-2.238,2.313,1.293,5.853,3.536,3.536c3.253-3.319,4.829-7.932,4.285-12.548
	c-0.305-2.347-1.596-4.604-4.145-4.927c-2.578-0.328-4.771,1.466-6.128,3.485c-1.233,1.857-1.807,4.076-1.627,6.298
	c0.229,1.957,1.062,3.794,2.384,5.254c0.367,0.447,1.07,1.211,1.25,1.454c0.325,0.39,0.563,0.844,0.7,1.332
	c0.34,2.041-0.553,4.34-1.535,6.076c-2.375,4.195-6.67,6.839-11.049,8.569c-1.305,0.4-2.07,1.75-1.746,3.075
	C320.801,339.973,322.171,340.751,323.501,340.394z"/>
<rect x="576.599" y="393.668" fill="#FFFFFF" width="16.138" height="12.911"/>
<rect x="576.599" y="425.668" fill="#FFFFFF" width="16.138" height="12.911"/>
<rect x="576.599" y="457.668" fill="#FFFFFF" width="16.138" height="12.911"/>
<rect x="576.599" y="489.668" fill="#FFFFFF" width="16.138" height="12.911"/>
<rect x="576.599" y="521.668" fill="#FFFFFF" width="16.138" height="12.911"/>
<rect x="576.599" y="553.668" fill="#FFFFFF" width="16.138" height="12.911"/>
<rect x="576.599" y="585.668" fill="#FFFFFF" width="16.138" height="12.911"/>
<rect x="576.599" y="617.668" fill="#FFFFFF" width="16.138" height="12.911"/>
<rect x="576.599" y="649.668" fill="#FFFFFF" width="16.138" height="12.911"/>
</svg>
