<?xml version="1.0" encoding="utf-8"?>
<!-- Generator: Adobe Illustrator 16.0.3, SVG Export Plug-In . SVG Version: 6.00 Build 0)  -->
<!DOCTYPE svg PUBLIC "-//W3C//DTD SVG 1.1//EN" "http://www.w3.org/Graphics/SVG/1.1/DTD/svg11.dtd">
<svg version="1.1" id="Capa_1" xmlns="http://www.w3.org/2000/svg" xmlns:xlink="http://www.w3.org/1999/xlink" x="0px" y="0px"
	 width="1105.04px" height="782.74px" viewBox="0 0 1105.04 782.74" enable-background="new 0 0 1105.04 782.74"
	 xml:space="preserve">
<title>medicine</title>
<ellipse opacity="0.1" fill="#73D629" enable-background="new    " cx="367.38" cy="766.65" rx="97.44" ry="15.65"/>
<ellipse opacity="0.1" fill="#73D629" enable-background="new    " cx="897.049" cy="767.09" rx="121.59" ry="15.65"/>
<path opacity="0.1" fill="#73D629" enable-background="new    " d="M13.84,338.2h101.49v138.33H21.27
	c-0.25,1.42-0.49,2.85-0.75,4.279h94.81V592.37c-0.17-0.05-0.32-0.11-0.48-0.17c-2.68-1.061-5.34-2.181-8-3.38l-1.7-0.771
	c-2.667-1.26-5.333-2.593-8-4c-0.93-0.49-1.86-1-2.78-1.52c-14.804-8.293-28.253-18.801-39.88-31.16c-0.34-0.33-0.66-0.68-1-1
	c-1.62-1.76-3.21-3.54-4.75-5.36l-1.7-2c-1.82-2.229-3.58-4.52-5.29-6.84c-0.25-0.34-0.49-0.68-0.75-1
	c-6.955-9.643-12.729-20.084-17.2-31.1c-0.14-0.33-0.26-0.69-0.39-1c-1.374-3.533-2.59-7.101-3.65-10.7c-0.46-1.51-0.9-3-1.28-4.57
	c-0.14-0.46-0.26-0.91-0.37-1.359c-5.68-22.171-6.35-45.2-6.35-68.07c0-2.67,0-5.351,0-8c0-9.25,0.11-18.56,0.27-27.86
	c0-2.41,0.1-4.81,0.15-7.229c0.14-6.14,0.34-12.28,0.6-18.42c0.06-1.71,0.14-3.41,0.23-5.11c0-0.98,0.05-1.96,0.15-2.94
	C13.4,345.25,13.6,341.72,13.84,338.2z"/>
<path opacity="0.1" fill="#73D629" enable-background="new    " d="M115.33,184.18H59.66c9.049-14.165,18.937-27.775,29.61-40.76
	c8.27-10.16,17-20.06,26.06-29.6V184.18z"/>
<path opacity="0.1" fill="#73D629" enable-background="new    " d="M115.33,188.46v145.46H14.16c0-0.42,0.07-0.85,0.1-1.27
	c0.09-1.15,0.18-2.3,0.28-3.44c0.11-1.34,0.23-2.69,0.36-4s0.27-2.91,0.42-4.36c0.15-1.45,0.29-2.92,0.46-4.37
	c0.17-1.45,0.32-2.9,0.5-4.34c0.18-1.44,0.34-2.9,0.53-4.34c0.15-1.2,0.31-2.39,0.47-3.59c0.23-1.69,0.47-3.39,0.73-5.07
	c0-0.25,0.07-0.51,0.11-0.75c1.825-12.298,4.312-24.49,7.45-36.52c3.285-12.62,7.479-24.986,12.55-37
	c5.39-12.568,11.7-24.722,18.88-36.36L115.33,188.46z"/>
<path opacity="0.1" fill="#73D629" enable-background="new    " d="M139.56,338.19v138.34h216.77V338.19H139.56z M139.56,480.8
	v118.8c1.24,0.261,2.47,0.511,3.69,0.721c1.66,0.319,3.31,0.609,5,0.859c0.32,0.05,0.65,0.101,1,0.13c0.66,0.11,1.34,0.2,2,0.29
	c1.67,0.23,3.33,0.42,5,0.57c0.79,0.08,1.59,0.15,2.39,0.21l1.93,0.15l0,0c1.05,0.08,2.09,0.14,3.12,0.17
	c0.64,0,1.28,0.06,1.94,0.08c0.5,0,1,0,1.52,0s1.26,0,1.89,0c0.86,0,1.72,0,2.57,0h1.15c0.86,0,1.72,0,2.57-0.08h0.06
	c0.59,0,1.19,0,1.79-0.08c0.167,0.01,0.333,0.01,0.5,0c0.5,0,1,0,1.48-0.07h0.35l3.35-0.26c1.1-0.101,2.21-0.23,3.33-0.351
	l2.28-0.27c9.275-1.3,18.448-3.251,27.45-5.84c20.22-5.641,40-13.53,60.21-19.311c26.13-7.449,55-11.109,80.25-2V480.8H139.56z
	 M356.33,184.18V0.01c-23.732-0.257-47.401,2.519-70.43,8.26c-54.89,13.79-104.14,43.7-146.34,81.9v94h10.88v4.27h-10.88v145.48
	h216.77V188.45H195.11v-4.27H356.33z M634.76,121.97c-13.58-0.479-27.08-4.78-39.291-11.42c-23.35-12.7-42-32.31-62.839-48.86
	c-43.3-34.47-97-55.27-152.09-60.43v182.92h309.451l0.77-0.81L634.76,121.97z M662.95,116.97l29.891,32.8v-41.4
	c-10.01,1.24-18.781,4.19-29.85,8.56L662.95,116.97z M692.84,629.1V480.8h-63.689c-0.17-0.63-0.342-1.27-0.541-1.91
	c0.189,0.641,0.35,1.28,0.529,1.91H380.58v107.25c2.36,1.75,4.689,3.59,7,5.46l0,0c2.49,2,4.95,4.11,7.42,6.181l2.49,2.06
	c1.189,1,2.39,2,3.6,2.94c2.4,1.946,4.823,3.866,7.271,5.76c1.21,1,2.449,1.899,3.68,2.84c19.527,14.93,40.126,28.402,61.63,40.31
	c4.82,2.667,9.684,5.271,14.59,7.811c3.271,1.67,6.561,3.33,9.86,4.939c4.96,2.42,9.96,4.754,15,7l0,0
	c46.466,20.858,95.601,35.172,146,42.53c11.193,1.653,22.43,2.953,33.711,3.9v-90.69h1L692.84,629.1z M380.58,188.45v145.47h312.299
	V188.45H380.58z M380.58,338.19v138.34h312.299V338.19H380.58z M717.12,108.19v46.18l38.15-41.86
	c-12.641-2.04-25.357-3.497-38.15-4.37V108.19z M717.12,338.24v138.29h303.75V338.19L717.12,338.24z M1019.76,640.08l1.07-159.28
	H717.12v240.57c19.564,0.821,39.16,0.588,58.701-0.7l0,0h0.34c9.332-0.587,18.623-1.439,27.869-2.56h0.211
	c49.33-5.741,97.566-18.612,143.199-38.21 M1079.44,360.97c-1.141-2.69-2.33-5.36-3.539-8c-2.262-5-4.65-9.86-7.111-14.72h-23.699
	v138.28h59.92c-0.029-39.16-9.939-79.16-25.541-115.61L1079.44,360.97z M1045.09,480.85v137c16.879-16.18,31.141-34.689,41.41-55.85
	c12.35-25.48,18-53.07,18.459-81.17L1045.09,480.85z M1045.09,297.93v36h21.48c-6.498-12.393-13.658-24.427-21.451-36.05
	L1045.09,297.93z M839.09,135.33c-1.58-0.6-3.16-1.21-4.75-1.8c-16.77-6.192-33.906-11.342-51.311-15.42l-58.379,64.07l0,0
	l-1.121,1.19l0.75,0.82h207.779c-28.938-19.919-60.135-36.337-92.939-48.91L839.09,135.33z M938.151,188.5H721.379l-4.26,3.9v141.52
	h37.34h0.061l0,0h266.391v-68.55c-24.098-29.145-51.912-55.004-82.73-76.92L938.151,188.5z"/>
<path opacity="0.1" fill="#73D629" enable-background="new    " d="M115.33,261.83v72.09H14.16c0-0.42,0.07-0.85,0.1-1.27
	c0.09-1.15,0.18-2.3,0.28-3.44c0.11-1.34,0.23-2.69,0.36-4s0.27-2.91,0.42-4.36c0.15-1.45,0.29-2.92,0.46-4.37
	c0.17-1.45,0.32-2.9,0.5-4.34c0.18-1.44,0.34-2.9,0.53-4.34c0.15-1.2,0.31-2.39,0.47-3.59c0.23-1.69,0.47-3.39,0.73-5.07
	c0-0.25,0.07-0.51,0.11-0.75c1.825-12.298,4.312-24.49,7.45-36.52L115.33,261.83z"/>
<path opacity="0.1" fill="#73D629" enable-background="new    " d="M13.84,338.2h101.49v138.33H21.27
	c-0.25,1.42-0.49,2.85-0.75,4.279h94.81V592.37c-0.17-0.05-0.32-0.11-0.48-0.17c-2.68-1.061-5.34-2.181-8-3.38l-1.7-0.771
	c-2.667-1.26-5.333-2.593-8-4c-0.93-0.49-1.86-1-2.78-1.52c-14.804-8.293-28.253-18.801-39.88-31.16c-0.34-0.33-0.66-0.68-1-1
	c-1.62-1.76-3.21-3.54-4.75-5.36l-1.7-2c-1.82-2.229-3.58-4.52-5.29-6.84c-0.25-0.34-0.49-0.68-0.75-1
	c-6.955-9.643-12.729-20.084-17.2-31.1c-0.14-0.33-0.26-0.69-0.39-1c-1.374-3.533-2.59-7.101-3.65-10.7c-0.46-1.51-0.9-3-1.28-4.57
	c-0.14-0.46-0.26-0.91-0.37-1.359c-5.68-22.171-6.35-45.2-6.35-68.07c0-2.67,0-5.351,0-8c0-9.25,0.11-18.56,0.27-27.86
	c0-2.41,0.1-4.81,0.15-7.229c0.14-6.14,0.34-12.28,0.6-18.42c0.06-1.71,0.14-3.41,0.23-5.11c0-0.98,0.05-1.96,0.15-2.94
	C13.4,345.25,13.6,341.72,13.84,338.2z"/>
<polygon opacity="0.1" fill="#73D629" enable-background="new    " points="215.87,209.28 215.87,333.92 139.56,333.92 
	139.56,209.28 150.44,209.28 150.44,167.08 195.1,167.08 195.1,209.28 "/>
<rect x="139.57" y="338.19" opacity="0.1" fill="#73D629" enable-background="new    " width="76.3" height="138.33"/>
<path opacity="0.1" fill="#73D629" enable-background="new    " d="M139.56,480.81h76.31v115c-9.001,2.587-18.174,4.535-27.45,5.83
	l-2.28,0.28c-1.12,0.13-2.23,0.24-3.33,0.35c-1.1,0.11-2.24,0.19-3.35,0.261h-0.35c-0.48,0-1,0.06-1.47,0.069h-0.51
	c-0.6,0-1.2,0.061-1.8,0.08l0,0c-0.85,0.051-1.7,0.061-2.57,0.07c-0.37,0-0.72,0-1.09,0c-0.86,0-1.71,0-2.57,0h-1.89
	c-0.51,0-1,0-1.53,0l-1.93-0.07c-1,0-2.08-0.109-3.12-0.18l0,0l-1.92-0.14l-2.39-0.221c-1.68-0.149-3.35-0.34-5-0.569l-2-0.28
	l-1-0.14c-1.67-0.261-3.32-0.54-5-0.86c-1.23-0.21-2.45-0.47-3.69-0.72L139.56,480.81z"/>
<rect x="629.959" y="194.56" opacity="0.1" fill="#73D629" enable-background="new    " width="62.92" height="139.35"/>
<polygon opacity="0.1" fill="#73D629" enable-background="new    " points="692.889,338.19 692.889,476.53 380.58,476.53 
	380.58,416.86 546.93,416.86 546.93,452.06 629.959,452.06 629.959,338.19 "/>
<path opacity="0.1" fill="#73D629" enable-background="new    " d="M693.879,629.13h-1v90.75c-11.266-0.953-22.5-2.25-33.699-3.89
	c-50.424-7.383-99.58-21.726-146.06-42.62c-13.42-6.04-26.566-12.634-39.44-19.78c-21.503-11.913-42.105-25.386-61.64-40.31
	c-4.907-3.761-9.75-7.607-14.53-11.54c-3.31-2.73-6.6-5.53-9.93-8.25c-2.311-1.87-4.641-3.71-7-5.471V480.81h248.549
	c-0.17-0.64-0.34-1.279-0.52-1.909c0.189,0.63,0.371,1.27,0.541,1.909h63.729V629.07C693.219,629.08,693.549,629.11,693.879,629.13z
	"/>
<path opacity="0.1" fill="#73D629" enable-background="new    " d="M856.981,184.18h-41v-12.74h18.379v-37.95
	c1.594,0.58,3.18,1.176,4.76,1.79v36.16h17.861V184.18z"/>
<path opacity="0.1" fill="#73D629" enable-background="new    " d="M955.76,333.92H754.481c0,0,0,0,0.068,0.05l-0.09-0.05h-37.34
	V194.57h10.58v103h48.35v-61h39.941v-48.11h41v48.15h39.939v61h58.83V333.92z"/>
<path opacity="0.1" fill="#73D629" enable-background="new    " d="M717.12,338.19v138.34H955.76V338.19H717.12z M1020.54,639.37
	l0.33-109.5H955.76v-49H717.12v240.5c19.564,0.821,39.16,0.588,58.701-0.7l0,0h0.34c9.332-0.587,18.623-1.439,27.869-2.56h0.211
	c49.33-5.741,97.566-18.612,143.199-38.21"/>
<path opacity="0.1" fill="#73D629" enable-background="new    " d="M1049.331,480.81H1105c-0.49,28.091-6.131,55.681-18.471,81.16
	c-10.27,21.17-24.539,39.681-41.4,55.851v-88h4.201V480.81z"/>
<path opacity="0.1" fill="#73D629" enable-background="new    " d="M1105.03,476.53h-55.699V360.92h30.139
	C1095.071,397.37,1104.981,437.37,1105.03,476.53z"/>
<rect x="659.18" y="233.3" opacity="0.1" fill="#73D629" enable-background="new    " width="33.709" height="43.69"/>
<rect x="659.18" y="323.86" opacity="0.1" fill="#73D629" enable-background="new    " width="33.709" height="10.06"/>
<rect x="659.18" y="338.19" opacity="0.1" fill="#73D629" enable-background="new    " width="33.709" height="29.35"/>
<rect x="659.18" y="414.42" opacity="0.1" fill="#73D629" enable-background="new    " width="33.709" height="43.69"/>
<rect x="659.18" y="504.98" opacity="0.1" fill="#73D629" enable-background="new    " width="33.709" height="43.689"/>
<path opacity="0.1" fill="#73D629" enable-background="new    " d="M692.879,629.07c0.34,0,0.67,0,1,0.06h-1v10.15H659.18v-43.74
	h33.699V629.07z"/>
<path opacity="0.1" fill="#73D629" enable-background="new    " d="M692.879,686.08v33.75c-11.266-0.953-22.5-2.25-33.699-3.89
	v-29.86H692.879z"/>
<rect x="380.58" y="473.32" opacity="0.1" fill="#73D629" enable-background="new    " width="144.47" height="3.21"/>
<rect x="380.58" y="480.8" opacity="0.1" fill="#73D629" enable-background="new    " width="144.47" height="12.3"/>
<rect x="380.58" y="533.42" opacity="0.1" fill="#73D629" enable-background="new    " width="144.47" height="19.78"/>
<path opacity="0.1" fill="#73D629" enable-background="new    " d="M525.04,593.52v19.78h-113c-4.906-3.746-9.753-7.593-14.54-11.54
	c-3.31-2.729-6.59-5.529-9.93-8.239L525.04,593.52z"/>
<path opacity="0.1" fill="#73D629" enable-background="new    " d="M525.04,653.61v19.76h-11.93
	c-13.407-6.047-26.551-12.644-39.431-19.79L525.04,653.61z"/>
<rect x="775.831" y="351.6" opacity="0.1" fill="#73D629" enable-background="new    " width="28.439" height="28.44"/>
<rect x="160.05" y="219.09" opacity="0.1" fill="#73D629" enable-background="new    " width="28.44" height="28.44"/>
<rect x="160.05" y="285.15" opacity="0.1" fill="#73D629" enable-background="new    " width="28.44" height="28.44"/>
<rect x="160.05" y="351.21" opacity="0.1" fill="#73D629" enable-background="new    " width="28.44" height="28.44"/>
<rect x="160.05" y="417.26" opacity="0.1" fill="#73D629" enable-background="new    " width="28.44" height="28.44"/>
<rect x="160.05" y="483.32" opacity="0.1" fill="#73D629" enable-background="new    " width="28.44" height="28.439"/>
<rect x="160.05" y="549.38" opacity="0.1" fill="#73D629" enable-background="new    " width="28.44" height="28.44"/>
<rect x="884.401" y="351.6" opacity="0.1" fill="#73D629" enable-background="new    " width="28.439" height="28.44"/>
<rect x="775.831" y="421.75" opacity="0.1" fill="#73D629" enable-background="new    " width="28.439" height="28.44"/>
<rect x="884.401" y="421.75" opacity="0.1" fill="#73D629" enable-background="new    " width="28.439" height="28.44"/>
<rect x="775.831" y="491.89" opacity="0.1" fill="#73D629" enable-background="new    " width="28.439" height="28.44"/>
<rect x="884.401" y="491.89" opacity="0.1" fill="#73D629" enable-background="new    " width="28.439" height="28.44"/>
<rect x="775.831" y="562.04" opacity="0.1" fill="#73D629" enable-background="new    " width="28.439" height="28.44"/>
<rect x="884.401" y="562.04" opacity="0.1" fill="#73D629" enable-background="new    " width="28.439" height="28.44"/>
<rect x="775.831" y="632.19" opacity="0.1" fill="#73D629" enable-background="new    " width="28.439" height="28.439"/>
<rect x="884.401" y="632.19" opacity="0.1" fill="#73D629" enable-background="new    " width="28.439" height="28.439"/>
<polygon opacity="0.1" fill="#73D629" enable-background="new    " points="775.831,720.67 775.831,702.33 804.26,702.33 
	804.26,718.06 "/>
<path opacity="0.1" fill="#73D629" enable-background="new    " d="M18,298.37v16.27h97.33v-16.27H18z M27.7,313.62h-7.94v-14.25h8
	L27.7,313.62z M37.39,313.62h-8v-14.25h8V313.62z M47.06,313.62h-8v-14.25h8V313.62z M56.75,313.62h-7.99v-14.25h8L56.75,313.62z
	 M66.43,313.62h-8v-14.25h8V313.62z M76.12,313.62h-8v-14.25h8V313.62z M85.81,313.62h-8v-14.25h8V313.62z M95.49,313.62h-8v-14.25
	h8V313.62z M105.17,313.62h-8v-14.25h8V313.62z M114.85,313.62h-8v-14.25h8V313.62z"/>
<path opacity="0.1" fill="#73D629" enable-background="new    " d="M18,345.71v16.27h97.33v-16.27H18z M27.7,360.95h-7.94v-14.21h8
	L27.7,360.95z M37.39,360.95h-8v-14.21h8V360.95z M47.06,360.95h-8v-14.21h8V360.95z M56.75,360.95h-7.99v-14.21h8L56.75,360.95z
	 M66.43,360.95h-8v-14.21h8V360.95z M76.12,360.95h-8v-14.21h8V360.95z M85.81,360.95h-8v-14.21h8V360.95z M95.49,360.95h-8v-14.21
	h8V360.95z M105.17,360.95h-8v-14.21h8V360.95z M114.85,360.95h-8v-14.21h8V360.95z"/>
<path opacity="0.1" fill="#73D629" enable-background="new    " d="M18,393.069v16.301h97.33v-16.301H18z M27.7,408.31h-7.94v-14.22
	h8L27.7,408.31z M37.39,408.31h-8v-14.22h8V408.31z M47.06,408.31h-8v-14.22h8V408.31z M56.75,408.31h-7.99v-14.22h8L56.75,408.31z
	 M66.43,408.31h-8v-14.22h8V408.31z M76.12,408.31h-8v-14.22h8V408.31z M85.81,408.31h-8v-14.22h8V408.31z M95.49,408.31h-8v-14.22
	h8V408.31z M105.17,408.31h-8v-14.22h8V408.31z M114.85,408.31h-8v-14.22h8V408.31z"/>
<path opacity="0.1" fill="#73D629" enable-background="new    " d="M18,440.43v16.25h97.33v-16.25H18z M27.7,455.67h-7.94V441.44h8
	L27.7,455.67z M37.39,455.67h-8V441.44h8V455.67z M47.06,455.67h-8V441.44h8V455.67z M56.75,455.67h-7.99V441.44h8L56.75,455.67z
	 M66.43,455.67h-8V441.44h8V455.67z M76.12,455.67h-8V441.44h8V455.67z M85.81,455.67h-8V441.44h8V455.67z M95.49,455.67h-8V441.44
	h8V455.67z M105.17,455.67h-8V441.44h8V455.67z M114.85,455.67h-8V441.44h8V455.67z"/>
<path opacity="0.1" fill="#73D629" enable-background="new    " d="M18.42,487.78c0.39,1.529,0.83,3.06,1.29,4.569v-3.55h8v14.22
	h-4.28c0.13,0.33,0.26,0.69,0.39,1h91.51V487.78H18.42z M37.42,503.02h-8V488.8h8V503.02z M47.09,503.02h-8V488.8h8V503.02z
	 M56.78,503.02h-8.02V488.8h8L56.78,503.02z M66.46,503.02h-8V488.8h8V503.02z M76.15,503.02h-8V488.8h8V503.02z M85.84,503.02h-8
	V488.8h8V503.02z M95.52,503.02h-8V488.8h8V503.02z M105.2,503.02h-8V488.8h8V503.02z M114.88,503.02h-8V488.8h8V503.02z"/>
<path opacity="0.1" fill="#73D629" enable-background="new    " d="M41.02,535.14c0.25,0.32,0.49,0.681,0.75,1h5.29v6.83
	c0.57,0.681,1.13,1.36,1.71,2v-8.87h8v14.271h-3.24c0.32,0.33,0.63,0.68,1,1h60.83v-16.23H41.02z M66.43,550.37h-8v-14.21h8V550.37z
	 M76.12,550.37h-8v-14.21h8V550.37z M85.81,550.37h-8v-14.21h8V550.37z M95.49,550.37h-8v-14.21h8V550.37z M105.17,550.37h-8v-14.21
	h8V550.37z M114.85,550.37h-8v-14.21h8V550.37z"/>
<path opacity="0.1" fill="#73D629" enable-background="new    " d="M94.41,582.49c0.91,0.52,1.84,1,2.78,1.52v-0.5h8v4.5l1.7,0.79
	v-5.29h8v8.65c0.153,0.076,0.314,0.137,0.48,0.18v-9.85H94.41z"/>
<path opacity="0.1" fill="#73D629" enable-background="new    " d="M754.481,333.92L754.481,333.92h0.059H754.481z M692.879,629.06
	L692.879,629.06h1H692.879z M628.61,478.89c0.189,0.641,0.35,1.28,0.529,1.91l0,0C628.981,480.17,628.809,479.53,628.61,478.89z
	 M754.481,333.89L754.481,333.89h0.059H754.481z M150.48,184.15v4.27h44.67v-4.27H150.48z M692.879,629.06L692.879,629.06h1H692.879
	z M628.61,478.89c0.189,0.641,0.35,1.28,0.529,1.91l0,0C628.981,480.17,628.809,479.53,628.61,478.89z M754.481,333.89
	L754.481,333.89h0.059H754.481z M692.879,629.03L692.879,629.03h1H692.879z M628.61,478.89c0.189,0.641,0.35,1.28,0.529,1.91l0,0
	C628.981,480.17,628.809,479.53,628.61,478.89z"/>
<linearGradient id="SVGID_1_" gradientUnits="userSpaceOnUse" x1="209.5811" y1="54.2622" x2="209.581" y2="669.5825" gradientTransform="matrix(1 0 0 -1 146.7598 829.1113)">
	<stop  offset="0" style="stop-color:#808080;stop-opacity:0.25"/>
	<stop  offset="0.54" style="stop-color:#808080;stop-opacity:0.12"/>
	<stop  offset="1" style="stop-color:#808080;stop-opacity:0.1"/>
</linearGradient>
<path fill="url(#SVGID_1_)" d="M461.6,379.67c0,0-3.939-0.55-3.939-6.29c0-5.74-2.82-16.46-2.82-16.46l0,0
	c0-0.05-2.439-18.67-5.81-21.63s-7.7-20.34-7.7-20.34s-0.74-9.43-2.25-11.46c-1.51-2.03-3.55-7-6.561-14.09
	c-3.01-7.09-15.56-12-15.56-12s-22.69-13.16-29.12-17.45l0,0c-0.584-0.353-1.131-0.765-1.63-1.23c-1.12-1.47-6-1.5-6-1.5
	c-0.51-3.22-1-6.92-1.16-10.27c0-0.36,0-0.72-0.05-1.08c7.17-4.238,12.57-10.92,15.21-18.82c0.12-0.38,0.22-0.78,0.33-1.16
	c0.868-0.286,1.576-0.925,1.95-1.76c0.58-1.29,0.59-2.8,1.31-4c0.84-1.42,2.44-2.18,3.7-3.25c3.18-2.7,4-7.25,3.85-11.39
	c-0.1-3.35-0.64-6.73-0.43-10.061l0.061-0.84c0.06-0.5,0.13-1,0.22-1.48c0.49-2.48,1.56-4.82,2.16-7.28
	c0.6-2.46,0.659-5.23-0.74-7.35c-2.05-3.11-6.32-3.73-10.07-4.05c-4.25-0.36-8.05,0.11-10.77-3.42
	c-1.273-1.845-2.705-3.575-4.28-5.17c-0.56-0.52-6-3.84-6-4.06c-5.31-2.459-11.328-2.92-16.95-1.3c-2.819,0.82-5.479,2.16-8.34,2.83
	c-6.17,1.46-13.27-0.12-18.51,3.41c-2.92,2-4.67,5.18-6.311,8.28c-1.333,2.553-2.687,5.104-4.06,7.65
	c-2.21,4.19-4.46,8.45-5.39,13.09c-0.196,1.009-0.316,2.032-0.36,3.06l0,0v0.05c0,0.37,0,0.74,0,1.11v0.47c0,0.35,0,0.69,0.06,1
	c0.061,0.31,0.051,0.41,0.08,0.62c0.03,0.21,0.08,0.68,0.141,1c0.06,0.32,0.18,0.88,0.3,1.32c0.05,0.19,0.12,0.37,0.18,0.55
	c0.101,0.34,0.22,0.67,0.351,1c0.069,0.17,0.14,0.35,0.22,0.52c0.149,0.35,0.33,0.69,0.51,1c0.08,0.14,0.14,0.27,0.22,0.4
	c0.279,0.465,0.587,0.913,0.92,1.34c2.141,2.67,5.29,4.37,7.62,6.87c0,0.1,0,0.2,0,0.29c0,0.28,0,0.55,0,0.83
	c0.251,11.32,6.084,21.784,15.58,27.95c0,0.38,0.05,0.77,0.07,1.15c0.195,2.968,0.158,5.947-0.11,8.91
	c-0.824-0.972-2.046-1.516-3.319-1.48c-0.43-0.021-0.86,0.016-1.28,0.11l-0.09-0.07l0,0v0.09c-2.2,0.54-4.91,2.83-7.5,9.34
	c0,0-7.88,8.88-13.88,8.51c-6-0.37-21.19,9.24-21.19,9.24s-14.82,9.62-18,19.42c-1.777,5.557-3.908,10.995-6.38,16.28l-18.32,37.75
	l0,0l-3.38,29.95c0,0,1.87,13.32,1.5,15.35s7.69,20.34,7.69,20.34s26.63,46.79,37.51,49.19l0.78-0.55
	c0.466,0.243,0.959,0.428,1.47,0.55l2.24-1.58c0.135,1.761,0.078,3.531-0.17,5.28c-1.5,4.619,0.56,34.77,3.18,40.68
	s1.69,83.4,1.69,83.4l-0.37,6.84c0,0,0,0.22,0.09,0.6l-0.09,1.62l0.27,0.14c0.28,2.17,0.189,4.371-0.27,6.511
	c-0.94,3-1.32,11.479-1.32,11.479s-7.49,47.88-3.94,57.5c3.55,9.62,6.57,20.16,6.57,20.16s3.75,12,0.18,14.05
	c-3.57,2.05-13.72,5.49-11.63,10.49c1.9,4.62,9.11,17,10.18,18.81l-0.09,0.95l-1.47,15.93c0.238,2.104,0.809,4.156,1.69,6.08
	c1.61,3.471,4.74,7.07,10.69,6.681c1-0.07,2.16-0.19,3.28-0.34c10.89-1.461,24.3-6.32,24.3-6.32c-0.696-0.442-1.334-0.97-1.899-1.57
	l0,0c-1.082-1.048-1.686-2.494-1.671-4c0.16-2.9-5.27-16.72-6.619-20.12c-0.21-0.489-0.32-0.77-0.32-0.77s12.38-12.94,10.32-24.41
	c0,0-13.7-8-9.19-12.39c4.51-4.391,12.57-17,12.57-17s0.37-47.15,0-54.19c-0.386-4.887-0.154-9.802,0.689-14.63
	c0.15-0.73,0.33-1.44,0.521-2.141c6.237,0.932,12.533,1.409,18.84,1.431c2.3,0,4.64,0,7-0.14c0,0.666,0.03,1.386,0.09,2.159
	c0.521,11.681,1.49,32.16,2.28,39.771c1.12,10.91,7.31,40.31,7.31,40.31s-11.81,7.58,2.061,26.261c0,0,0,6.77-0.92,7.75l0,0
	c-0.982,3.203-1.774,6.462-2.37,9.76c-0.58,3.52-0.82,7.08,0.12,8.93c2.25,4.42,15.75,4.061,15.75,4.061l0,0l0.33-0.061
	c5.147-0.532,10.294,1.021,14.289,4.311c5.131,4.119,24.601,2.31,35.141,1c4.13-0.521,6.89-1,6.89-1
	c0.134-0.468,0.182-0.956,0.141-1.44l0,0c-0.11-2.59-2.141-8.271-15.9-13.34c0,0-12.94-8.7-12.76-16.28h-0.271h-1.5
	c1.09-0.06,1.79,0,1.79,0s-5.069-18.5-3-20c2.07-1.5-4.13-22-4.13-22s-3.55-34.4-3.74-36.81c0.008-2.068,0.321-4.124,0.931-6.101
	l-0.931-18.859c0,0-0.18-6.271,0-8.311c-0.03-1.771-0.174-3.537-0.43-5.29c-0.09-0.7-0.18-1.43-0.28-2.149c4.851-1.23,8-2.37,8-2.37
	l-0.56-65.65c4.12-8,4.88-25.55,4.859-38c0-8-0.359-13.92-0.359-13.92l5.63-9.19c0,0,1.3-11-0.76-13.409
	c-0.91-1.091-0.5-2.221,0.25-3.15c0.39-0.309,0.8-0.59,1.229-0.84c0,0-0.06-0.09-0.13-0.22c0.394-0.329,0.812-0.626,1.25-0.891
	c0,0-2-3.1-0.21-4.41c1.68,1.141,3.18,2,4.32,2.7c-0.08,0.73-0.16,1.15-0.16,1.15l0.479-1c1.101,0.62,1.771,1,1.771,1
	s8.82-17.57,8.63-20.16s6-13.5,6-13.5s0.75-5.729,4.13-8.13s2.62-19.79,2.62-19.79s0.94-9.061,3.19-12.76S461.6,379.67,461.6,379.67
	z M292.84,371.96l0.17,4.19c-1-1.61-1.72-2.77-1.72-2.77L292.84,371.96z"/>
<path fill="#FFFFFF" d="M439.56,455.11l-2.159,9.199c0,0-17.301-8.829-20.42-20.05c-3.12-11.22,5.22-15.479,5.22-15.479l16.12,6.83
	L439.56,455.11z"/>
<path opacity="0.1" enable-background="new    " d="M439.56,455.11l-2.159,9.199c0,0-17.301-8.829-20.42-20.05
	c-3.12-11.22,5.22-15.479,5.22-15.479l16.12,6.83L439.56,455.11z"/>
<path fill="#FFFFFF" d="M342.47,768.22c0,0-16,5.88-27,6.62c-5.84,0.391-8.91-3.189-10.49-6.64c-0.863-1.918-1.42-3.96-1.65-6.05
	l1.43-15.851l0.76-8.439l23.37-6.07l3.311,10.12l0.31,0.77c1.33,3.38,6.66,17.13,6.5,20c-0.013,1.485,0.579,2.911,1.641,3.95
	C341.187,767.235,341.798,767.77,342.47,768.22z"/>
<path fill="#FFFFFF" d="M451.76,760.16c0.04,0.481-0.007,0.966-0.14,1.43c0,0-34.22,5.71-41.22,0
	c-3.991-3.373-9.221-4.905-14.4-4.22c0,0-13.24,0.36-15.45-4c-0.92-1.83-0.68-5.38-0.109-8.88c0.581-3.279,1.355-6.522,2.319-9.71
	l0.53-0.42l3.15-2.53l36.88-1.09h0.279c-0.18,7.54,12.521,16.189,12.521,16.189C449.61,751.93,451.6,757.58,451.76,760.16z"/>
<path opacity="0.1" enable-background="new    " d="M451.76,760.16c0.035,0.481-0.016,0.966-0.149,1.43c0,0-34.21,5.71-41.21,0
	c-3.988-3.37-9.214-4.902-14.391-4.22c0,0-13.25,0.36-15.45-4c-0.92-1.84-0.689-5.38-0.119-8.88c5.1,0.51,13.149,1.779,16.31,4.81
	c4.78,4.61,12.88,9.21,17.85,9.57C418.49,759.12,441.76,759.86,451.76,760.16z"/>
<path opacity="0.1" enable-background="new    " d="M342.47,768.22c0,0-16,5.88-27,6.62c-5.84,0.391-8.91-3.189-10.479-6.65
	c4.069,1.37,9.72,2.811,12.689,1.49c3.521-1.56,16-2.569,23-3C341.213,767.264,341.813,767.78,342.47,768.22z"/>
<path fill="#CF6F80" d="M366.21,294.37c-13.2-5.13-30.18-22.08-25.94-30c0.942-1.999,1.502-4.156,1.65-6.36
	c0.272-2.992,0.313-6.001,0.12-9c-0.297-4.911-0.889-9.799-1.771-14.64c0,0,41.211,0.93,38.811,7c-0.7,1.78-0.811,4.87-0.62,8.33
	s0.69,7.37,1.21,10.68c0.72,4.54,1.44,8,1.44,8s-2.521,3.53-4,3.72C375.63,272.29,385.15,301.68,366.21,294.37z"/>
<path opacity="0.1" enable-background="new    " d="M332.48,742.68l-0.311,0.34c-12.32-14.899-27.22,3.671-27.22,3.671l-0.22-0.391
	l0.76-8.439l23.37-6.07l3.31,10.12L332.48,742.68z"/>
<path opacity="0.1" enable-background="new    " d="M423.61,731.79c0,0-9-0.19-13.801,4.05c-4.8,4.24-28,0.92-27,0
	c0.297-0.456,0.476-0.979,0.521-1.52l3.15-2.53l36.88-1.09C423.5,731.37,423.61,731.79,423.61,731.79z"/>
<path fill="#73D629" d="M347.81,614.78c-0.67,1.657-1.179,3.375-1.52,5.13c-0.834,4.806-1.065,9.696-0.69,14.56
	c0.37,7,0,53.91,0,53.91s-7.909,12.51-12.319,16.92s9,12.33,9,12.33c2,11.4-10.12,24.28-10.12,24.28
	c-12.32-14.9-27.22,3.68-27.22,3.68s-8.1-14-10.12-19s7.91-8.46,11.4-10.49c3.49-2.029-0.17-14-0.17-14s-2.95-10.489-6.45-20.06
	s3.86-57.21,3.86-57.21s0.38-8.46,1.29-11.41c0.459-2.129,0.55-4.32,0.27-6.479c-0.06-0.73-0.13-1.341-0.18-1.75
	c-0.05-0.41-0.09-0.601-0.09-0.601l0.14-0.24l5-9.319C309.89,595.03,350.21,608.91,347.81,614.78z"/>
<path fill="#73D629" d="M423.61,730.69c0,0-9-0.19-13.801,4c-4.8,4.189-28,0.92-27,0c1-0.921,0.921-7.73,0.921-7.73
	c-13.61-18.58-2-26.12-2-26.12s-6.08-29.25-7.181-40.1c-0.77-7.58-1.72-27.95-2.229-39.58c-0.221-5-0.351-8.44-0.351-8.44
	l11.12-2.239l1.43-0.29l26.82-5.38c0,0,0.74,5,1.24,9.09c0.249,1.746,0.39,3.506,0.42,5.27c-0.18,2,0,8.26,0,8.26l0.91,18.771
	c-0.595,1.969-0.901,4.014-0.91,6.07c0.18,2.39,3.67,36.609,3.67,36.609s6.07,20.42,4,21.891
	C418.6,712.24,423.61,730.69,423.61,730.69z"/>
<path opacity="0.1" enable-background="new    " d="M379.08,241.37c-0.7,1.78-0.811,4.87-0.62,8.33
	c-11.264,6.783-25.417,6.519-36.42-0.68c-0.297-4.915-0.888-9.806-1.771-14.65C340.27,234.37,381.48,235.28,379.08,241.37z"/>
<path fill="#CF6F80" d="M395.01,219.27c0.008,3.604-0.559,7.185-1.68,10.61c-5.866,17.966-25.186,27.775-43.151,21.909
	c-13.785-4.501-23.236-17.202-23.589-31.699c0-0.28,0-0.54,0-0.82c-0.323-18.896,14.733-34.477,33.63-34.8s34.478,14.733,34.8,33.63
	c0.007,0.39,0.007,0.78,0,1.17H395.01z"/>
<path opacity="0.1" enable-background="new    " d="M366.21,294.37c-13.2-5.13-30.18-22.08-25.94-30
	c0.942-1.999,1.502-4.156,1.65-6.36l18.07,14.85l11.18,9.17l8.5-21.64c0.72,4.54,1.44,8,1.44,8s-2.521,3.53-4,3.72
	C375.63,272.3,385.15,301.68,366.21,294.37z"/>
<polygon fill="#73D629" points="412.94,360 397.85,613.5 378.17,614.79 327.21,467.8 335.57,293.29 337.33,256.42 359.99,275.03 
	371.18,284.2 379.93,261.93 396.2,276.11 "/>
<path opacity="0.1" enable-background="new    " d="M347.81,614.78c-0.67,1.657-1.179,3.375-1.52,5.13
	c-14.32-2.211-28.228-6.556-41.26-12.891l-0.27-0.14l0.09-1.61l0.05-0.84l5-9.319C309.9,595.11,350.21,608.91,347.81,614.78z"/>
<path opacity="0.1" enable-background="new    " d="M383.32,619.95c-3.661,0.622-7.354,1.043-11.061,1.26
	c-0.22-5-0.35-8.44-0.35-8.44l11.12-2.239L383.32,619.95z"/>
<path opacity="0.1" enable-background="new    " d="M412.52,613.95c-7.109,1.85-18.09,3.93-27.92,2.63l-0.14-6.34l26.82-5.38
	C411.28,604.86,412.02,609.81,412.52,613.95z"/>
<path opacity="0.1" enable-background="new    " d="M384.42,617.74c-41,7-78.55-13.07-78.55-13.07l0.36-6.8c0,0,0.93-77.09-1.65-83
	s-4.59-35.88-3.13-40.48c1.46-4.6-5.33-73.58-5.33-73.58l-1.1-28l-40.26-16.31l18-37.52c2.432-5.26,4.522-10.671,6.26-16.2
	c3.13-9.74,17.66-19.311,17.66-19.311s14.9-9.56,20.79-9.2c5.891,0.36,13.61-8.46,13.61-8.46c5.7-14.53,10.86-7.95,10.86-7.95
	c0,0.69,0,0-0.28,2.15c-2,15.95,32.34,66.35,32.83,67.24l0,0l3.27,79.66l3.311,100.81L384.42,617.74z"/>
<path fill="#FFFFFF" d="M383.32,617.74c-41,7-78.561-13.07-78.561-13.07l0.37-6.8c0,0,0.93-77.09-1.66-83s-4.59-35.88-3.12-40.48
	c1.47-4.6-5.33-73.58-5.33-73.58l-1.11-28l-40.28-16.37l18-37.52c2.426-5.263,4.517-10.673,6.26-16.2
	c3.12-9.74,17.66-19.31,17.66-19.31s14.9-9.56,20.78-9.2s13.61-8.46,13.61-8.46c5.71-14.53,12-7.95,12-7.95
	c0,0.69-0.601,1-0.28,2.15c4.399,15.47,31.24,66.35,31.729,67.24l0,0l3.311,79.66l3.31,100.811L383.32,617.74z"/>
<path opacity="0.1" enable-background="new    " d="M372.27,329.46c-4.409-1.84-27.77-28.51-27.77-28.51v-6.07
	c-0.85-2-5.9-0.78-10,0.62l1.76-36.87l2,1.66C342.64,275.75,371.76,328.57,372.27,329.46z"/>
<path fill="#FFFFFF" d="M373.38,327.25c-4.42-1.84-27.78-28.51-27.78-28.51v-6.07c-0.85-2-5.899-0.78-10,0.62l1.771-36.87l2,1.66
	C343.76,273.54,372.89,326.37,373.38,327.25z"/>
<path opacity="0.1" enable-background="new    " d="M305.87,460.26c0.55,0,28.51-2.939,28.51-2.939s16.93,33.29,15.82,41.39
	c-1.11,8.101-3.12,15.271-9.931,14c-6.81-1.27-36.649,1-36.649,1L305.87,460.26z"/>
<path fill="#FFFFFF" d="M304.76,458.05c0.55,0,28.51-2.939,28.51-2.939s16.921,33.3,15.82,41.39c-1.1,8.09-3.13,15.27-9.93,14
	s-36.65,1-36.65,1L304.76,458.05z"/>
<path fill="#CF6F80" d="M325.83,442.42c0,0,25.66,13.79,26.21,18s-13.06-1.84-16-2.57c-1.936-0.466-3.905-0.773-5.89-0.92
	l-19.61,0.53L325.83,442.42z"/>
<circle opacity="0.1" enable-background="new    " cx="365.11" cy="328.48" r="2.7"/>
<circle fill="#3F3D56" cx="365.11" cy="327.38" r="2.7"/>
<circle opacity="0.1" enable-background="new    " cx="370.08" cy="445.36" r="2.7"/>
<circle fill="#3F3D56" cx="370.08" cy="444.25" r="2.7"/>
<circle opacity="0.1" enable-background="new    " cx="367.8" cy="386.92" r="2.7"/>
<circle fill="#3F3D56" cx="367.8" cy="385.82" r="2.7"/>
<path fill="#FFFFFF" d="M430.04,456.37c0,0,1.84,2.76,0,4.05s0.18,4.41,0.18,4.41s-4.59,2.689-2.569,5.109
	c2.02,2.421,0.739,13.351,0.739,13.351l-5.52,9.14c0,0,0.33,5.891,0.35,13.851c0,12.42-0.729,29.88-4.77,37.84l0.56,65.31
	c0,0-19.33,7.061-35.51,4.91l-2.4-104.8c0,0,3.5-59.43,4.79-70.83c0.755-5.919,1.063-11.886,0.92-17.85
	c0,0-0.55-17.841-2.399-26.121c0,0-2-35.869-2.2-45.799c-0.09-4.75,0.16-18.61,0.44-31.79c0.31-14.41,0.659-28,0.659-28
	l-3.649-28.88c0,0,3.649-0.37,4.75,1.1c0.492,0.46,1.028,0.872,1.6,1.23l0,0c6.3,4.26,28.561,17.36,28.561,17.36
	s12.319,4.9,15.27,11.92s5,12,6.43,14c1.431,2,2.211,11.4,2.211,11.4s4.239,17.3,7.55,20.23c3.31,2.93,5.729,21.57,5.729,21.57
	l-29.25,23c0,0-2.569,38.26-3.12,39.74C418.84,423.3,430.04,456.37,430.04,456.37z"/>
<path fill="#FFFFFF" d="M431.15,456.37c0,0,1.83,2.76,0,4.05s0.17,4.41,0.17,4.41s-4.561,2.72-2.561,5.14s0.74,13.351,0.74,13.351
	l-5.52,9.14c0,0,0.329,5.89,0.359,13.85c0,12.42-0.729,29.88-4.77,37.841l0.55,65.31c0,0-19.36,7.06-35.521,4.91l-2.39-104.8
	c0,0,3.5-59.431,4.79-70.83c0.756-5.919,1.06-11.886,0.91-17.851c0,0-0.55-17.84-2.391-26.119c0,0-2-35.871-2.21-45.801
	c-0.09-4.75,0.171-18.61,0.44-31.79c0.31-14.41,0.66-28,0.66-28l-4.82-29.27c0,0,4.82,0,5.93,1.49
	c0.488,0.466,1.025,0.878,1.601,1.23l0,0c6.3,4.26,28.57,17.36,28.57,17.36s12.31,4.9,15.26,11.92s5,12,6.439,14
	c1.44,2,2.2,11.4,2.2,11.4s4.24,17.3,7.55,20.23c3.311,2.93,5.7,21.53,5.7,21.53l-29.25,23c0,0-2.57,38.26-3.13,39.74
	C419.9,423.29,431.15,456.37,431.15,456.37z"/>
<path opacity="0.1" enable-background="new    " d="M396.12,297.67l2.64,7.7l-13.899,14c0.31-14.4,0.659-28,0.659-28L380.7,262.1
	c0,0,4.819,0,5.93,1.49c0.487,0.465,1.023,0.874,1.601,1.22l0,0l11.819,34.1L396.12,297.67z"/>
<path fill="#FFFFFF" d="M395.01,295.46l2.65,7.7l-13.9,14c0.311-14.41,0.66-28,0.66-28l-4.83-29.27c0,0,4.83,0,5.93,1.49
	c0.491,0.463,1.027,0.875,1.601,1.23l0,0l11.83,34.09L395.01,295.46z"/>
<path opacity="0.1" enable-background="new    " d="M395.01,219.27c0.008,3.604-0.559,7.185-1.68,10.61
	c-0.382,0.06-0.771-0.038-1.08-0.27c-0.26-9-4.69-17.45-10.14-24.64c-1.53-2.171-3.386-4.093-5.5-5.7
	c-2.139-1.606-4.798-2.358-7.46-2.11c-3,0.41-5.65,2.45-8.681,2.71c-4,0.33-7.58-2.44-11.55-2.58
	c-3.265,0.031-6.358,1.467-8.49,3.94c-2.085,2.467-3.635,5.341-4.55,8.44c-1.572,4.698-2.429,9.607-2.54,14.56
	c-0.05,2.8-0.32,6.31-2.92,7.33c0.396-4.164-0.972-8.302-3.77-11.41l-0.061-0.06c0-0.28,0-0.54,0-0.82
	c-0.323-18.896,14.733-34.477,33.63-34.8s34.478,14.733,34.8,33.63c0.007,0.39,0.007,0.78,0,1.17H395.01z"/>
<path fill="#512E4E" d="M374.97,164.94c-5.196-2.444-11.106-2.907-16.62-1.3c-2.77,0.82-5.38,2.15-8.189,2.82
	c-6,1.45-13-0.12-18.15,3.39c-2.859,2-4.58,5.16-6.18,8.23l-4,7.62c-2.18,4.17-4.38,8.41-5.29,13c-0.91,4.59-0.36,9.73,2.55,13.42
	c2.12,2.69,5.25,4.38,7.55,6.91c2.786,3.111,4.148,7.242,3.761,11.4c2.609-1,2.859-4.52,2.92-7.32
	c0.111-4.953,0.968-9.861,2.54-14.56c0.912-3.099,2.462-5.974,4.55-8.44c2.133-2.471,5.226-3.906,8.49-3.94
	c4,0.14,7.59,2.9,11.55,2.57c3-0.25,5.66-2.3,8.68-2.7c2.663-0.252,5.323,0.5,7.46,2.11c2.114,1.604,3.967,3.527,5.49,5.7
	c5.46,7.19,9.89,15.62,10.149,24.64c1.131,0.83,2.761-0.25,3.32-1.53c0.561-1.28,0.58-2.78,1.29-4c0.82-1.41,2.391-2.16,3.62-3.22
	c3.12-2.69,3.9-7.22,3.78-11.33c-0.12-4.11-0.92-8.28-0.141-12.32c0.471-2.48,1.53-4.8,2.11-7.25c0.58-2.45,0.65-5.2-0.72-7.31
	c-2-3.1-6.21-3.71-9.88-4c-4.171-0.36-7.9,0.1-10.561-3.41c-1.249-1.832-2.653-3.552-4.2-5.14
	C380.32,168.46,374.97,165.16,374.97,164.94z"/>
<path opacity="0.1" enable-background="new    " d="M266.28,375.82l-10.45-19.32l-3.31,29.81c0,0,1.84,13.24,1.47,15.27
	c-0.37,2.03,7.54,20.229,7.54,20.229s26.13,46.54,36.8,48.94l36.05-25.76l-9.56-12.141c0,0-3.311-1.29-4.141,0
	c0,0-17.75-30.54-19.59-32.75s-1.48-6.62-1.48-6.62s-2.76-2.939-1.84-5.7c0.92-2.76-5.33-12.33-5.33-12.33l5.7-5.33L266.28,375.82z"
	/>
<path fill="#FFFFFF" d="M256.38,354.3l-2.76,2.2l-3.31,29.81c0,0,1.84,13.24,1.47,15.27c-0.37,2.03,7.55,20.229,7.55,20.229
	s26.12,46.54,36.79,48.94l36.06-25.76l-9.569-12.141c0,0-3.311-1.29-4.141,0c0,0-17.75-30.54-19.59-32.75s-1.47-6.62-1.47-6.62
	s-2.76-2.939-1.84-5.7c0.92-2.76-5.34-12.33-5.34-12.33l5.7-5.33L256.38,354.3z"/>
<path opacity="0.1" enable-background="new    " d="M427.65,471.08c2,2.43,0.739,13.34,0.739,13.34l-5.52,9.141
	c0,0,0.33,5.899,0.35,13.85l-9.279,2.9c-2.905,0.906-5.995-0.713-6.902-3.617c-0.184-0.587-0.267-1.199-0.248-1.813l1.6-51.609
	l21.65,8.279c-1.84,1.28,0.18,4.42,0.18,4.42S425.63,468.65,427.65,471.08z"/>
<path fill="#FFFFFF" d="M428.76,469.97c2,2.431,0.74,13.351,0.74,13.351l-5.52,9.14c0,0,0.329,5.89,0.359,13.85l-9.45,2.95
	c-2.848,0.885-5.874-0.706-6.759-3.554c-0.178-0.571-0.259-1.168-0.241-1.767l1.61-51.77l21.66,8.28
	c-1.851,1.28,0.17,4.41,0.17,4.41S426.76,467.55,428.76,469.97z"/>
<path fill="#CF6F80" d="M435.93,445.37c0,0-1.47,9.39-5.149,9.939c-3.681,0.551-5.33,15.19-9,14.671
	c-3.67-0.521-1.24-13.61-1.11-16.15s-4-13.061-0.91-15.45s12.87,0,12.87,0L435.93,445.37z"/>
<path opacity="0.1" enable-background="new    " d="M443.76,373.06l6.94-14c0,0,2.76,10.67,2.76,16.37c0,5.7,3.86,6.26,3.86,6.26
	s4.229,5,2,8.64c-2.23,3.64-3.13,12.7-3.13,12.7s0.729,17.29-2.58,19.68c-3.311,2.39-4,8.1-4,8.1s-6.08,10.851-5.891,13.431
	c0.19,2.58-8.46,20.05-8.46,20.05s4.23-21.71-20.42-31.09c0,0-0.189-7.37,1.65-9.391c1.84-2.02,4.71-2.939,2.91-13.149
	c-1.801-10.21-0.521-22.41-0.521-24.86c0-2.45,5.521-17.729,5.521-17.729L443.76,373.06z"/>
<path fill="#FFFFFF" d="M446.76,357.06l6.061,2c0,0,2.77,10.67,2.77,16.37c0,5.7,3.86,6.26,3.86,6.26s4.229,5,2,8.64
	c-2.23,3.64-3.12,12.7-3.12,12.7s0.729,17.29-2.58,19.68s-4.05,8.1-4.05,8.1s-6.07,10.851-5.88,13.431
	c0.189,2.58-8.471,20.05-8.471,20.05s4.24-21.71-20.42-31.09c0,0-0.18-7.37,1.66-9.391c1.84-2.02,4.71-2.939,2.91-13.149
	s-0.52-22.41-0.52-24.86c0-2.45,5.52-17.729,5.52-17.729L446.76,357.06z"/>
<path opacity="0.1" enable-background="new    " d="M312.91,719.93c0,0,9.66-6.069,16-1.66
	C335.25,722.68,312.91,719.93,312.91,719.93z"/>
<path opacity="0.1" enable-background="new    " d="M387.97,701.16c0,0,8.55-1.101,15.73,6.63
	C410.88,715.52,387.97,701.16,387.97,701.16z"/>
<g opacity="0.1">
	<path d="M400.48,217.55c-1.23,1.06-2.811,1.82-3.631,3.23c-0.699,1.21-0.72,2.7-1.279,4c-0.561,1.3-2.19,2.36-3.32,1.54
		c-0.26-9-4.7-17.45-10.15-24.65c-1.523-2.173-3.375-4.096-5.489-5.7c-2.141-1.609-4.805-2.362-7.471-2.11
		c-3,0.41-5.64,2.45-8.67,2.7c-4,0.34-7.59-2.43-11.56-2.57c-3.264,0.032-6.355,1.472-8.48,3.95c-2.087,2.462-3.637,5.333-4.55,8.43
		c-1.571,4.698-2.428,9.606-2.54,14.56c-0.06,2.79-0.32,6.27-2.899,7.31c0.06,0.738,0.06,1.481,0,2.22c2.6-1,2.859-4.52,2.92-7.32
		c0.111-4.954,0.968-9.862,2.54-14.56c0.912-3.1,2.462-5.974,4.55-8.44c2.129-2.471,5.219-3.906,8.479-3.94
		c4,0.14,7.601,2.9,11.561,2.57c3-0.25,5.66-2.3,8.67-2.7c2.666-0.251,5.329,0.501,7.47,2.11c2.114,1.604,3.967,3.527,5.49,5.7
		c5.45,7.19,9.89,15.62,10.149,24.64c1.131,0.83,2.761-0.25,3.32-1.53c0.561-1.28,0.58-2.78,1.28-4c0.82-1.41,2.399-2.16,3.63-3.22
		c3.12-2.69,3.9-7.22,3.78-11.33c0-0.13,0-0.26,0-0.38C404.09,211.62,403.14,215.25,400.48,217.55z"/>
	<path d="M326.66,216.84c-2.3-2.53-5.44-4.22-7.55-6.9c-1.777-2.373-2.792-5.228-2.91-8.19c-0.315,3.701,0.719,7.391,2.91,10.39
		c2.109,2.69,5.25,4.38,7.55,6.91c2.208,2.475,3.534,5.612,3.77,8.92C330.739,223.902,329.378,219.883,326.66,216.84z"/>
	<path d="M406.23,186.65c-0.591,2.45-1.641,4.78-2.12,7.25c-0.284,1.65-0.389,3.327-0.311,5c0.034-0.953,0.138-1.902,0.311-2.84
		c0.479-2.48,1.529-4.8,2.12-7.25c0.344-1.352,0.455-2.751,0.329-4.14C406.498,185.337,406.388,185.999,406.23,186.65z"/>
</g>
<ellipse opacity="0.1" fill="#73D629" enable-background="new    " cx="132.73" cy="744.94" rx="97.44" ry="15.65"/>
<rect x="129.6" y="445.14" fill="#535461" width="6.27" height="141.17"/>
<path fill="#3F3D56" d="M175.27,585.88l-0.39,6.36l-0.56,9l-0.23,3.74l-0.55,9l-0.24,3.739l-0.56,9l-6.32,102.07
	c-0.57,9.115-8.127,16.217-17.26,16.22H116.3c-9.131-0.004-16.685-7.106-17.25-16.22l-6.29-102.14l-0.56-9l-0.23-3.74l-0.56-9
	l-0.23-3.74l-0.56-9l-0.4-6.359c-0.282-4.963,3.513-9.215,8.475-9.496c0.175-0.01,0.35-0.015,0.525-0.015h67.21
	c4.937,0.043,8.905,4.08,8.862,9.017C175.291,585.505,175.283,585.692,175.27,585.88z"/>
<polygon fill="#9D9CB5" points="174.88,592.24 174.32,601.21 91.14,601.21 90.58,592.24 "/>
<polygon fill="#9D9CB5" points="174.09,604.95 173.54,613.93 91.93,613.93 91.37,604.95 "/>
<polygon fill="#9D9CB5" points="173.3,617.68 172.75,626.65 92.72,626.65 92.16,617.68 "/>
<path fill="#73D629" d="M81.01,498.05c36.51,26.42,51.75,67.74,51.75,67.74s-44-1.51-80.52-27.93
	c-36.52-26.42-51.73-67.73-51.73-67.73S44.49,471.63,81.01,498.05z"/>
<path fill="none" stroke="#535461" stroke-width="2" stroke-miterlimit="10" d="M0.48,470.13c0,0,45.68,25.351,60.33,46.34
	c14.65,20.99,71.95,49.32,71.95,49.32"/>
<path fill="#73D629" d="M104.58,444.83c19.87,14.37,28.18,36.86,28.18,36.86s-23.95-0.82-43.83-15.19
	c-19.88-14.37-28.17-36.87-28.17-36.87S84.7,430.45,104.58,444.83z"/>
<path fill="none" stroke="#535461" stroke-width="2" stroke-miterlimit="10" d="M60.76,429.63c0,0,24.86,13.8,32.83,25.22
	c7.97,11.42,39.17,26.841,39.17,26.841"/>
<path fill="#73D629" d="M161.61,480.55c-22.83,25.09-27.66,57.88-27.66,57.88s32.19-7.899,55-33c22.81-25.1,27.66-57.88,27.66-57.88
	S184.44,455.46,161.61,480.55z"/>
<path fill="none" stroke="#535461" stroke-width="2" stroke-miterlimit="10" d="M216.63,447.56c0,0-29.74,25.721-37.3,43.44
	s-45.38,47.43-45.38,47.43"/>
<linearGradient id="SVGID_2_" gradientUnits="userSpaceOnUse" x1="746.7056" y1="62.022" x2="746.7056" y2="624.0493" gradientTransform="matrix(1 0 0 -1 146.7598 829.1113)">
	<stop  offset="0" style="stop-color:#808080;stop-opacity:0.25"/>
	<stop  offset="0.54" style="stop-color:#808080;stop-opacity:0.12"/>
	<stop  offset="1" style="stop-color:#808080;stop-opacity:0.1"/>
</linearGradient>
<path fill="url(#SVGID_2_)" d="M999.67,471.72c0,0-16.51-82.14-10.189-92.36c0,0,0.229-9.5-0.15-21.61c0-0.46,0-0.92,0-1.39
	c1.111,0.742,2.271,1.41,3.469,2c5.824,2.992,12.51,3.855,18.9,2.44l-5-5.57c-1.199-1.33-2.449-2.77-2.709-4.53
	c-0.26-1.76,0.459-3.33,1.08-4.9c4.75-12,5-27.09-4.15-36.25c-7.73-7.7-9.609-17.64-18-24.67c-6.131-5.15-9.5-12.7-12.68-20
	c-2.691-6.17-5.4-12.39-6.941-18.93c-1.199-5.11-1.68-10.4-3.33-15.39c-1.648-4.99-4.738-9.84-9.568-12.07
	c-1.721-0.79-3.631-1.24-5.201-2.29c-2.061-1.39-3.299-3.65-4.789-5.63c-7.57-10-32.92-4.11-44.92-0.05
	c-3.264,1.022-6.283,2.696-8.881,4.92l0.109-0.18c0.092-0.15,0.201-0.3,0.301-0.45c-1.313,1.062-2.447,2.328-3.359,3.75
	c-1.75,2.77-2.48,6-3.941,9c-1.76,3.55-11.549,13.46-7.34,17.45c0.295,0.268,0.633,0.484,1,0.64c1.582,0.658,3.32,0.832,5,0.5
	l-0.18,0.43c-1.438,3.521-2.174,7.287-2.17,11.09c0,16.43,13.551,29.75,30.281,29.75c3.145,0.003,6.271-0.479,9.27-1.43
	c0.07,0.38,0.129,0.76,0.199,1.14c0,0.15,0.051,0.3,0.07,0.45l0,0l-0.529,0.74c-0.027-0.045-0.057-0.089-0.09-0.13l-15.701,21.94
	c-2.4,1.69-16.219,11.69-17,19.19c-0.82,8.21-1.641,17.82-1.641,17.82l-0.109,2.06c-1.389,1.16-3.215,1.653-5,1.35
	c-4.9-0.8-4.9,18-4.9,18s-3.26,3-5.5,0.4c-2.24-2.6-8.16,6.21-8.16,6.21l-37.1,1.6l0,0l-0.85,0.05l-2-6.19
	c-0.447-1.359-1.906-2.104-3.27-1.67c-0.156,0.051-0.307,0.114-0.451,0.19l-0.139,0.08l-0.26,0.18l-0.131,0.12
	c-0.072,0.065-0.139,0.135-0.199,0.21l-0.121,0.14l-0.061,0.06l0,0c-0.467,0.647-0.602,1.479-0.359,2.24l1.721,5.31
	c-7.16,1.44-14.48,5.5-8.51,16.68l-30.26-5.59l9.789,8.22l50.539,10.43c-0.67,1.2-0.229,2.94,1.861,5.391
	c9,10.569,25.4,13.439,32,14.18c1.742,3.898,3.92,7.589,6.49,11l-0.57,10.53c0,0-16.711,80.26-19.77,84.33
	c1.543-1.751,2.957-3.612,4.229-5.57c-4.85,16.49-11.629,39.06-13.41,42.439c-2.859,5.4-5.51,27.25-2.25,28.65
	c1,0.43,3.861,0.22,7.941-0.09v1.81l-0.18,68.591c0,0,0.818,42.069-1.432,46.079c-2.25,4.011-2.85,12.421-2.85,12.421
	s-9,16.59-16.129,23.26c-0.049,0.052-0.104,0.099-0.16,0.14l-0.221-1.56c0,0-8.57,10.819-27.529,10.21c0,0-11.41,7.42,5.51,7.819
	c16.92,0.4,38.529-0.6,38.529-0.6s15.09-23,27.73-20v17.43h3.869v-17.71c3.627-2.388,6.117-6.157,6.891-10.43
	c0.674-4.435-1.045-8.895-4.52-11.73c-1.551-1.402-2.447-3.389-2.471-5.479l-0.139,0.12c0-0.351-0.092-0.71-0.131-1.08
	c-1.109-9-2.5-27.57,2.41-41.311c6.73-18.84,8.77-45.079,3.869-60.699c-1.58-4.993-2.879-10.071-3.889-15.21
	c-0.121-0.65-0.23-1.271-0.33-1.851c3.35,0.453,6.666,1.121,9.93,2c11.35,3.13,36.18,3.71,57.379,3.54
	c0.051,0.58,0.111,1.19,0.182,1.8c0.377,4.24,1.168,8.434,2.359,12.521c2.66,8,3.879,43.27,3.879,43.27s3.432,29,1.561,40.801
	c-1,6.56-2,13.149-2.57,19.77v0.13c0,0-5.619,16-9.729,24.69c-0.102,0.22-0.211,0.439-0.311,0.649
	c-1.096,0.101-2.174,0.339-3.211,0.71c0,0-5.51,11-11,12.82s-3.67,7.811,8.76,5.61c12.432-2.2,31.201-4,31.201-4l0.811-11.221
	l3.818-4.779l-1,11.189l4.07-0.8l-0.539-13.61l6.25-7.819c0,0,7.549-6.721-3.67-19.94v0.29c-0.121-0.189-0.23-0.39-0.361-0.58v-0.06
	c-1.859-2.88-3.34-8.25-0.629-17.78c4.9-17.22,7.75-32.85,7.75-32.85s10.939-41.87-2.211-61.681h0.58
	c-1.348-2.787-2.299-5.749-2.83-8.8c-0.066-0.359-0.127-0.729-0.18-1.109c9.73-0.561,19.281-2.32,27.07-6.12
	C1008.241,586.9,1003.549,487.54,999.67,471.72z M876.139,402.42v0.2l-2,0.1L876.139,402.42z M869.28,403.37
	c-0.328,0.073-0.637,0.22-0.9,0.43c-0.859,1.217-1.398,2.63-1.57,4.11l-3.119-0.7c0,0-2.189-0.47-5.34-1l-1.49-1.5
	C860.959,404.37,865.219,403.87,869.28,403.37z"/>
<polygon fill="#1D2366" points="972.51,743.53 971.321,757.7 975.311,756.9 974.709,741.53 "/>
<path fill="#FFB0B1" d="M881.481,676.25c-4.811,13.7-3.451,32.19-2.371,41.17c0.4,3.32,0.77,5.34,0.77,5.34s-7.189,16.38-7.789,17
	s-21.16,13.17-21.16,13.17l-14.369,8.391c0,0-14.58-6.391-7.592-8.59c1.43-0.573,2.715-1.45,3.771-2.57
	c7-6.65,15.789-23.18,15.789-23.18s0.6-8.391,2.801-12.381c2.199-3.989,1.4-45.92,1.4-45.92l0.17-68.35v-8.91l27.35,0.2
	c0.172,3.024,0.566,6.033,1.18,9c0.982,5.121,2.254,10.183,3.811,15.16C890.059,631.37,888.059,657.48,881.481,676.25z"/>
<path opacity="0.1" enable-background="new    " d="M879.879,722.76c0,0-7.189,16.38-7.789,17s-21.16,13.17-21.16,13.17
	l-14.369,8.391c0,0-14.58-6.391-7.592-8.59c1.43-0.573,2.715-1.45,3.771-2.57l0.619,4.37l4.791-0.2l41-36.891
	C879.51,720.74,879.879,722.76,879.879,722.76z"/>
<path fill="#1D2366" d="M879.379,718.37l-41.229,37.14l-4.791,0.2l-1-7c0,0-8.379,10.78-27,10.18c0,0-11.18,7.391,5.391,7.79
	c16.57,0.4,37.73-0.6,37.73-0.6s14.779-23,27.148-20v17.37h3.801v-17.53c3.57-2.403,6.004-6.16,6.74-10.4
	c0.668-4.396-1.002-8.822-4.41-11.68C880.247,722.422,879.387,720.443,879.379,718.37z"/>
<path fill="#FFB0B1" d="M976.309,697.61c-2.658,9.5-1.209,14.85,0.611,17.72v0.06c2.334,3.544,3.957,7.508,4.779,11.67l0.16,0.9
	l-18.76,27.35l-10.18,4c0,0-16.371-5.59-13.381-7.189c0.75-0.391,1.92-2.47,3.26-5.34c4-8.65,9.521-24.61,9.521-24.61v-0.13
	c0.58-6.59,1.5-13.16,2.52-19.7c1.83-11.77-1.529-40.66-1.529-40.66s-1.201-35.13-3.801-43.12c-1.174-4.062-1.955-8.228-2.33-12.439
	c-0.539-5-0.66-9.12-0.66-9.12s10.779-15,30.541,1.2c1.58,1.292,2.969,2.8,4.129,4.479c13.65,19.42,2.66,62.2,2.66,62.2
	S981.1,680.44,976.309,697.61z"/>
<path opacity="0.1" enable-background="new    " d="M981.889,727.96l-18.76,27.35l-10.18,4c0,0-16.369-5.59-13.379-7.189
	c0.75-0.39,1.92-2.47,3.26-5.34c6.93-0.061,10.52,6.54,10.52,6.54l8.779-1.4c0,0,11.58-22.76,14.182-24.15
	c2.6-1.39,0.398-10.39,0.398-10.39v-2.29c0.07,0.08,0.131,0.17,0.211,0.25v0.061c2.334,3.543,3.957,7.507,4.779,11.67
	L981.889,727.96z"/>
<path fill="#1D2366" d="M953.95,753.91c0,0-5-9.18-14.58-5.79c0,0-5.389,11-10.779,12.78c-5.391,1.779-3.59,7.779,8.59,5.59
	c12.18-2.19,30.539-4,30.539-4l0.801-11.19l12.381-15.77c0,0,7.379-6.69-3.602-19.86v2.29c0,0,2.201,9-0.398,10.39
	c-2.602,1.391-14.141,24.16-14.141,24.16L953.95,753.91z"/>
<path opacity="0.1" enable-background="new    " d="M880.28,591.6c0.172,3.025,0.566,6.033,1.18,9
	c-11.26-1.649-21.709-0.83-28.559-0.29V591.4L880.28,591.6z"/>
<path opacity="0.1" enable-background="new    " d="M982.299,605.17c0,0-16,0.78-35.08,0.94c-0.539-5-0.658-9.12-0.658-9.12
	s10.779-15,30.539,1.2c1.58,1.292,2.971,2.8,4.131,4.479C981.54,603.522,981.897,604.357,982.299,605.17z"/>
<path fill="#1D2366" d="M982.299,603.37c0,0-70.08,3.39-91.439-2.601c-21.359-5.989-42.529-0.8-45.721-2.189
	c-3.189-1.39-0.6-23.16,2.201-28.55c2.799-5.391,18.16-59.9,18.16-59.9l14.779-77.06l15.57-4.29l1.1-0.311l27.131-7.479l19.879-5.49
	c0,0,39.531,154.33,36.141,165.71c-1.23,4.357-1.43,8.942-0.58,13.39C980.038,597.638,980.973,600.589,982.299,603.37z"/>
<path fill="#C7DAF5" d="M828.76,380.37c0,0-14,15-3.4,23.36c10.6,8.359,17.57,0.8,17.57,0.8L828.76,380.37z"/>
<path opacity="0.1" enable-background="new    " d="M828.76,380.37c0,0-14,15-3.4,23.36c10.6,8.359,17.57,0.8,17.57,0.8
	L828.76,380.37z"/>
<path fill="#FFB0B1" d="M941.87,281.75c0,0-1.639,1.56-4.109,3.86c-3.52,3.29-8.73,8.1-13.35,12.13c-6.4,5.57-11.68,9.66-9.791,6.17
	c1.891-3.49,1.531-9.57,0.59-15.26c-0.07-0.38-0.129-0.76-0.199-1.13c-0.779-4.179-1.811-8.307-3.09-12.36
	c0,0,10.34-13.36,16.061-18.63c2.129-2,3.619-2.82,3.709-1.43c0.1,1.87,1.5,6,3.24,10.38c0.051,0.14,0.1,0.27,0.16,0.41
	c1.16,3,2.469,6.08,3.619,8.74C940.469,278.71,941.87,281.75,941.87,281.75z"/>
<path opacity="0.1" enable-background="new    " d="M935.09,265.89c-1.979,10.645-9.598,19.367-19.881,22.76
	c-0.795-4.565-1.895-9.072-3.289-13.49c0,0,19.469-25.15,19.77-20.06C931.76,257.03,933.28,261.31,935.09,265.89z"/>
<path opacity="0.1" enable-background="new    " d="M913.27,295.37l2.52-3.55c0,0,1.67,10.18,7.811,5.69
	c6.141-4.49,6.439,33.79,6.439,33.79l-6.59,98.53l-47.619-2.85l1.35-47.61l5.391-24l13.33-34.89l7.93-11.53L913.27,295.37z"/>
<path fill="#1D2366" d="M930.04,331.91l-6,89.09l-0.629,9.44l-26.551-1.591l-1-0.06l-20-1.2l1.35-47.62l5.391-24l13.33-34.89
	l7.93-11.53l9.439-13.63l2.521-3.54c0,0,1.67,10.18,7.809,5.69l0.131-0.09l0,0C929.76,294.18,930.04,331.91,930.04,331.91z"/>
<path fill="#FFFFFF" d="M883.27,347.63c0,0-2.391,5-7.189,4.19c-4.801-0.81-4.791,18-4.791,18s-3.189,3-5.389,0.4
	c-2.201-2.6-8,6.19-8,6.19l-36.342,1.6c0,0,16.172,7.39,13,29.75c0,0,54.9-3.399,56.701-8.59
	C893.059,393.979,883.27,347.63,883.27,347.63z"/>
<path opacity="0.03" enable-background="new    " d="M883.27,347.63c0,0-2.391,5-7.189,4.19c-4.801-0.81-4.791,18-4.791,18
	s-3.189,3-5.389,0.4c-2.201-2.6-8,6.19-8,6.19l-36.342,1.6c0,0,16.172,7.39,13,29.75c0,0,54.9-3.399,56.701-8.59
	C893.059,393.979,883.27,347.63,883.27,347.63z"/>
<polygon fill="#FFFFFF" points="777.661,389.76 787.241,397.94 866.1,414.51 856.321,404.53 "/>
<path fill="#FFFFFF" d="M913.42,298.52c-1.311,2-5.061,12.24-8.189,21.18c-2.611,7.45-4.791,14-4.791,14s-5.09,33.14-7.689,39.13
	c-2.6,5.99-1.191,29.35-1.191,29.35l-9.689,57.69c0,0-4.389,29.75-11.17,47.52c-6.689,17.49-14.141,25.69-14.369,25.95
	c3-4.06,19.35-84,19.35-84l5.4-100.82c0,0,0.789-9.58,1.59-17.77c0.799-8.19,17-19.37,17-19.37l15.619-22.21
	C916.86,291.27,915.809,294.93,913.42,298.52z"/>
<path fill="#FFB0B1" d="M872.69,428.09c0,0-23-1-34.141-14.38c-11.139-13.38,25.75-5.34,25.75-5.34l9.59,2.2L872.69,428.09z"/>
<path opacity="0.1" enable-background="new    " d="M980.1,581.22c-1.23,4.358-1.43,8.942-0.58,13.391c-25.09,1.779-51.93-5-51.93-5
	c-5,4.6-18.17,11.38-18.17,11.38l-7.18-89c-4.59-12-6.391-74.87-6.391-74.87s0.41-3.29,1-8.22c0-0.12,0-0.25,0.051-0.37
	c1.789-13.771,5.34-39.62,7.08-43.11c2.398-4.8-7.381-17.57-7.381-17.57l4.449-37.95l0.541-4.58c9.379-4.19,16.57-17.57,16.57-17.57
	l5.52-9.67l0,0c6-3.85,6.311,33.88,6.311,33.88l-6,89.09l19.879-5.49C943.87,415.56,983.491,569.84,980.1,581.22z"/>
<path fill="#FFFFFF" d="M1005.85,587.37c-27.35,13.58-77.061,1-77.061,1c-5,4.6-18.17,11.38-18.17,11.38l-7.189-89
	c-4.58-12-6.381-74.87-6.381-74.87s5.781-46.91,8.182-51.7c0.699-1.4,0.359-3.48-0.471-5.72c-4.08-10.662-5.582-22.138-4.381-33.49
	l1.92-16.31l0.531-4.57c9.389-4.2,16.58-17.58,16.58-17.58l5-8.76l9.199-16.14l4.359-7.64l0.74,0.67l5.65,5.12c0,0,2.4,2,6,5
	c7.83,6.6,21.359,18.22,28.34,25.33c6.141,6.26,8.08,30.61,8.641,48.94c0.369,12.07,0.15,21.53,0.15,21.53c-6.191,10.19,10,92,10,92
	C1001.26,488.37,1005.85,587.37,1005.85,587.37z"/>
<path opacity="0.03" enable-background="new    " d="M953.35,306.31c0,0-18.77,35.73-16.59,49.31s8.379,28.95,5.391,32.54
	c-2.084,2.757-5.336,4.382-8.791,4.39c-3,0.2-11,5.79-11,6.391c0,0.6-7.391,0.6-14,3.399s-16.369,4.391-16.369,4.391
	s-19-0.601-20.771,1.199c-1.77,1.801-3.59,12.57,0.201,21.16c3.789,8.59,8,15,11.18,16.17s23.359-5.59,39.73-7.189
	c16.369-1.601,34.139-14.57,34.139-14.57s19.57-7,23-18.77c3.432-11.771-4.189-76.46-4.189-76.46S969.52,298.12,953.35,306.31z"/>
<path opacity="0.03" enable-background="new    " d="M950.95,303.31c0,0-18.77,35.74-16.57,49.31
	c2.201,13.57,8.381,28.95,5.381,32.55c-2.076,2.761-5.326,4.386-8.779,4.39c-3,0.2-11,5.791-11,6.39s-7.391,0.6-14,3.39
	c-6.611,2.79-16.371,4.391-16.371,4.391s-19-0.601-20.76,1.199c-1.76,1.801-3.6,12.58,0.199,21.16c3.801,8.58,8,15,11.182,16.17
	c3.18,1.17,23.359-5.59,39.729-7.18c16.371-1.59,34.141-14.58,34.141-14.58s19.561-7,22.949-18.76
	c3.391-11.76-4.189-76.47-4.189-76.47S967.12,295.13,950.95,303.31z"/>
<path fill="#FFFFFF" d="M952.76,304.51c0,0-18.77,35.74-16.57,49.31c2.199,13.57,8.381,28.95,5.391,32.54
	c-2.076,2.767-5.332,4.397-8.791,4.4c-3,0.2-11,5.79-11,6.38c0,0.591-7.379,0.601-14,3.4c-6.619,2.8-16.369,4.39-16.369,4.39
	s-19-0.6-20.77,1.2c-1.771,1.8-3.592,12.58,0.199,21.16c3.789,8.58,8,15,11.18,16.17s23.359-5.59,39.73-7.189
	c16.369-1.601,34.141-14.57,34.141-14.57s19.568-7,23-18.771c3.43-11.77-4.141-76.46-4.141-76.46S968.92,296.37,952.76,304.51z"/>
<path opacity="0.1" enable-background="new    " d="M952.35,400.37c0,0-15-3-9.779,2c5.219,5,5.189,9.38,11.58,9.18
	C960.54,411.35,952.35,400.37,952.35,400.37z"/>
<path opacity="0.1" enable-background="new    " d="M977.7,507.95c0,0-6.779,4.59,6.189,15.17
	C996.86,533.7,977.7,507.95,977.7,507.95z"/>
<path opacity="0.1" enable-background="new    " d="M964.76,545.68c0,0.601-2.4,22,6.58,27.351
	C980.321,578.38,964.76,545.68,964.76,545.68z"/>
<path fill="#FFB0B1" d="M822.18,377.96c-7.24,0.25-22.881,2.46-14.77,17.59c7.17,13.391,19.219,4.44,26-2.35
	C831.756,386.87,827.737,381.415,822.18,377.96z"/>
<path fill="#FFB0B1" d="M834.151,392.37L834.151,392.37z"/>
<path fill="#FFB0B1" d="M833.5,393.08l0.299-0.31L833.5,393.08z"/>
<path opacity="0.1" enable-background="new    " d="M950.36,285.37c-7.68,5.25-14.119,9.68-15.379,10.6
	c-3.441,2.55-10,17.521-14.23,25.16c-3.371,6.15-14.32,7.73-18.451,8.12l0.531-4.57c9.389-4.2,16.58-17.58,16.58-17.58l18.559-32.54
	l6.391,5.81C944.36,280.37,946.76,282.37,950.36,285.37z"/>
<path fill="#DCE7FF" d="M950.36,284.77c-7.68,5.25-14.119,9.68-15.379,10.61c-3.441,2.54-10,17.51-14.23,25.15
	c-3.371,6.15-14.32,7.73-18.451,8.12l0.531-4.57c9.389-4.2,16.58-17.58,16.58-17.58l18.559-32.54l6.391,5.79
	C944.36,279.75,946.76,281.73,950.36,284.77z"/>
<path fill="#FFB0B1" d="M935.581,259.29c0.004,6.003-1.816,11.865-5.221,16.81c-9.281,13.498-27.746,16.916-41.244,7.635
	c-13.498-9.281-16.916-27.747-7.635-41.245c9.279-13.498,27.746-16.916,41.244-7.635C930.77,240.388,935.579,249.525,935.581,259.29
	z"/>
<path opacity="0.1" enable-background="new    " d="M987.34,359.04c-4.061-2.498-7.369-6.051-9.57-10.28
	c-1.67-3.3-2.779-7.11-5.631-9.45c-2.568-2.1-6-2.61-9.199-3.55c-10.52-3.11-19.34-12.71-19.67-23.67
	c-0.16-5.16,1.449-10.31,0.721-15.42c-0.416-2.892-1.566-5.629-3.34-7.95c-0.883-1.11-1.848-2.149-2.891-3.11
	c-1.4-1.32-2.871-2.6-4.15-4c-0.807-0.867-1.512-1.823-2.1-2.85c-0.477-0.84-0.861-1.729-1.15-2.65c-2-6.12-0.18-13.38-2.381-19.57
	l-0.119-0.34c-0.83-2.2-2.52-4.4-4.869-4.57c-2.352-0.17-4.361,1.78-6.602,2.65c-4.689,1.82-9.75-1.28-13.658-4.44
	c-3.91-3.16-8.32-6.77-13.291-6.07c-3.289,0.47-5.891,2.71-8.92,3.87c-0.684,0.265-1.391,0.469-2.109,0.61
	c6.094-15.199,23.355-22.58,38.555-16.485c11.25,4.511,18.621,15.415,18.615,27.535c0.002,2.081-0.215,4.156-0.65,6.19
	c0.051,0.14,0.1,0.27,0.16,0.41c1.16,3,2.469,6.08,3.619,8.74l5.65,5.12c0,0,2.4,2,6,5c7.83,6.6,21.359,18.22,28.34,25.33
	C984.84,316.37,986.76,340.71,987.34,359.04z"/>
<path fill="#591D4B" d="M880.17,229.37c1.43-2.91,2.139-6.17,3.85-8.93c2.51-4,6.891-6.56,11.391-8.11c11.75-4.05,36.58-9.93,44,0
	c1.459,2,2.67,4.22,4.689,5.6c1.539,1.05,3.4,1.5,5.09,2.29c4.73,2.22,7.75,7.06,9.359,12c1.611,4.94,2.09,10.24,3.271,15.33
	c1.51,6.53,4.16,12.72,6.799,18.87c3.111,7.26,6.41,14.79,12.41,19.92c8.189,7,10,16.91,17.6,24.59c9,9.12,8.711,24.17,4.07,36.12
	c-0.609,1.57-1.299,3.21-1.061,4.88c0.24,1.67,1.48,3.19,2.65,4.52l4.92,5.55c-11.639,2.81-24.809-3.27-30.229-13.94
	c-1.672-3.3-2.781-7.1-5.641-9.45c-2.561-2.1-6-2.6-9.189-3.54c-10.521-3.12-19.342-12.73-19.67-23.69
	c-0.16-5.15,1.449-10.3,0.719-15.4c-0.406-2.912-1.561-5.668-3.35-8c-2.75-3.59-6.9-6-9.141-10c-3.789-6.69-0.91-15.38-3.639-22.56
	c-0.842-2.2-2.521-4.4-4.871-4.57c-2.35-0.17-4.359,1.78-6.609,2.65c-4.68,1.82-9.74-1.27-13.65-4.44s-8.32-6.77-13.301-6.06
	c-3.289,0.46-5.879,2.7-8.908,3.87c-2.24,0.86-6.781,1.63-8.74-0.26C868.85,242.8,878.44,232.93,880.17,229.37z"/>
<path opacity="0.1" enable-background="new    " d="M981.76,344.76c-1.68-3.3-2.779-7.1-5.641-9.44c-2.561-2.1-6-2.61-9.199-3.55
	c-10.51-3.11-19.33-12.72-19.67-23.68c-0.16-5.15,1.449-10.31,0.73-15.41c-0.42-2.893-1.572-5.63-3.352-7.95
	c-2.76-3.59-6.91-6-9.139-10c-3.791-6.68-0.91-15.37-3.65-22.56c-0.83-2.19-2.52-4.39-4.859-4.57c-2.342-0.18-4.371,1.79-6.611,2.66
	c-4.68,1.82-9.75-1.28-13.65-4.44c-3.898-3.16-8.33-6.77-13.299-6.07c-3.291,0.47-5.891,2.71-8.91,3.87
	c-2.24,0.86-6.791,1.64-8.75-0.25c-4.121-4,5.471-13.85,7.189-17.39c1.43-2.92,2.141-6.17,3.859-8.93
	c0.092-0.15,0.191-0.3,0.291-0.45c-1.287,1.066-2.396,2.328-3.291,3.74c-1.709,2.76-2.42,6-3.85,8.93
	c-1.729,3.54-11.32,13.42-7.189,17.39c2,1.9,6.5,1.12,8.74,0.26c3-1.17,5.619-3.41,8.91-3.87c5-0.71,9.4,2.9,13.299,6.06
	c3.9,3.16,9,6.26,13.66,4.44c2.24-0.87,4.201-2.83,6.6-2.65c2.4,0.18,4,2.37,4.871,4.57c2.73,7.18-0.15,15.87,3.641,22.561
	c2.238,3.93,6.389,6.39,9.139,10c1.791,2.332,2.945,5.088,3.35,8c0.73,5.1-0.879,10.25-0.719,15.4c0.33,11,9.15,20.57,19.67,23.69
	c3.17,0.94,6.629,1.44,9.189,3.54c2.871,2.35,4,6.15,5.641,9.45c5.42,10.67,18.59,16.75,30.23,13.94l-2.32-2.62
	C996.581,359.58,986.37,353.84,981.76,344.76z"/>
<path opacity="0.1" enable-background="new    " d="M912.821,299.12c-1.311,2-5.061,12.24-8.191,21.18
	c-2.93-1.14-5.59-8.41-5.59-8.41l15.621-22.22C916.26,291.87,915.209,295.52,912.821,299.12z"/>
<path fill="#DCE7FF" d="M913.42,298.52c-1.311,2-5.061,12.24-8.189,21.18c-2.932-1.13-5.592-8.41-5.592-8.41l15.621-22.21
	C916.86,291.27,915.809,294.93,913.42,298.52z"/>
<path fill="#BE8B87" d="M822.6,400.68l-8.66-27.31c-0.43-1.341,0.309-2.777,1.65-3.207c0.002-0.001,0.006-0.002,0.01-0.003l0,0
	c1.342-0.419,2.77,0.322,3.199,1.66l8.66,27.28l-0.859,5.71L822.6,400.68z"/>
<path opacity="0.1" fill="#FFFFFF" enable-background="new    " d="M814.76,370.97L814.76,370.97
	c1.344-0.425,2.779,0.317,3.209,1.66l8.66,27.28l-0.648,4.28l0.629,0.659l0.859-5.71l-8.709-27.28
	c-0.43-1.338-1.859-2.079-3.201-1.66l0,0c-0.541,0.176-1.01,0.528-1.328,1C814.401,371.109,814.577,371.032,814.76,370.97z"/>
<polygon fill="#EFC8C4" points="822.6,400.68 827.459,399.14 826.75,403.82 826.6,404.85 825.18,403.37 "/>
<path fill="#727A9C" d="M825.18,403.37c0.084-0.107,0.189-0.195,0.311-0.26c0.143-0.091,0.326-0.091,0.469,0
	c0.068,0.082,0.125,0.173,0.17,0.27c0.135,0.224,0.363,0.374,0.621,0.41l-0.15,1L825.18,403.37z"/>
<path fill="#FFB0B1" d="M813.889,383.07c0,0,17.371-0.1,13.281,7.29s-10.48,8.28-10.48,8.28L813.889,383.07z"/>
<path fill="#73D629" d="M705.86,51.42h-0.75c-29.84,0-56.23,15.79-71.41,39.09c-15.18-23.3-41.57-39.09-71.41-39.09h-0.75
	c-46.608,0.444-84.165,38.34-84.19,84.95c0,27.81,12.181,67.27,35.931,99.74c45.25,61.87,120.419,116,120.419,116
	s75.17-54.12,120.41-116c23.76-32.47,35.93-71.93,35.93-99.74C790.014,89.764,752.463,51.87,705.86,51.42z M695.129,240.87
	c-6.955-0.026-13.18-4.325-15.67-10.82h-17.84c-2.408-0.015-4.541-1.558-5.311-3.84l-5.479-16.51l-17.34,60.59
	c-0.693,2.396-2.887,4.046-5.381,4.05h-0.35c-2.611-0.126-4.779-2.06-5.201-4.64L604.69,162.22l-13.061,63.6
	c-0.615,2.486-2.848,4.232-5.41,4.23H561.09c-3.084,0.131-5.691-2.264-5.822-5.349c-0.129-3.084,2.266-5.69,5.35-5.821
	c0.158-0.006,0.314-0.006,0.473,0h20.73l18.5-85.51c0.723-3.013,3.752-4.868,6.764-4.145c2.217,0.532,3.891,2.352,4.236,4.604
	l18.25,109.64l15.539-54.21c0.664-2.345,2.793-3.973,5.23-4h0.109c2.41,0.001,4.549,1.55,5.301,3.84l9.91,29.81h13.58
	c2.893-8.792,12.367-13.574,21.158-10.68c8.793,2.894,13.574,12.367,10.68,21.16c-2.262,6.875-8.682,11.52-15.918,11.52
	L695.129,240.87z"/>
</svg>
